<?xml version="1.0" standalone="no"?>
<!DOCTYPE svg PUBLIC "-//W3C//DTD SVG 1.1//EN" "http://www.w3.org/Graphics/SVG/1.1/DTD/svg11.dtd" >
<svg>
<metadata>
Created by FontForge 20090914 at Thu Jul  1 06:39:51 2021
 By www-data
Copyright 2018 The Roboto Slab Project Authors (https://github.com/googlefonts/robotoslab)
</metadata>
<defs>
<font id="RobotoSlab-Thin" horiz-adv-x="0" >
  <font-face 
    font-family="Roboto Slab Thin"
    font-weight="250"
    font-stretch="normal"
    units-per-em="2048"
    panose-1="0 0 0 0 0 0 0 0 0 0"
    ascent="1638"
    descent="-410"
    x-height="1082"
    cap-height="1456"
    bbox="-89.999 -555 2638 2146"
    underline-thickness="100"
    underline-position="-100"
    unicode-range="U+000D-U+FFFD"
  />
<missing-glyph horiz-adv-x="1038" 
d="M100 0v1456h838v-1456h-838zM154 54h730v1348h-730v-1348zM858 20l-738 1416h60l738 -1416h-60zM120 20l738 1416h60l-738 -1416h-60z" />
    <glyph glyph-name="fi" unicode="fi" horiz-adv-x="1183" 
d="M96 0l0.000976562 54h163v973h-188v55h188v158c0 108.667 28.5 192.667 85.5 252s136.167 89 237.5 89c44.667 0 89.667 -4.5 135 -13.5s89.666 -23.5 132.999 -43.5l-8 -52c-44 19.333 -84.5 33.333 -121.5 42s-82.833 13 -137.5 13c-84 0 -150 -25.333 -198 -76
s-72 -121 -72 -211v-158h626v-1028h163v-54h-380v54h163v973h-572v-973h163v-54h-380z" />
    <glyph glyph-name="fl" unicode="fl" horiz-adv-x="1303" 
d="M96 0v54h163v973h-170v55h170v138c0 114.667 33.833 203.5 101.5 266.5s161.5 94.5 281.5 94.5c58.667 0 118.5 -5.83301 179.5 -17.5s119.167 -30.5 174.5 -56.5h5v-1453h163v-54h-380v54h163v1419c-45.333 18 -91.666 31.5 -138.999 40.5s-102.333 13.5 -165 13.5
c-112.667 0 -195.834 -26.333 -249.501 -79s-80.5 -128.667 -80.5 -228v-138h304v-55h-304v-973h163v-54h-380z" />
    <glyph glyph-name=".notdef" horiz-adv-x="1038" 
d="M100 0v1456h838v-1456h-838zM154 54h730v1348h-730v-1348zM858 20l-738 1416h60l738 -1416h-60zM120 20l738 1416h60l-738 -1416h-60z" />
    <glyph glyph-name="CR" unicode="&#xd;" horiz-adv-x="490" 
 />
    <glyph glyph-name="space" unicode=" " horiz-adv-x="490" 
 />
    <glyph glyph-name="exclam" unicode="!" horiz-adv-x="437" 
d="M163 478v978h54v-978h-54zM143 0v134h95v-134h-95z" />
    <glyph glyph-name="quotedbl" unicode="&#x22;" horiz-adv-x="602" 
d="M166 1122l15 267v171h55v-169l-20 -269h-50zM347 1122l15 267v171h55v-169l-20 -269h-50z" />
    <glyph glyph-name="numbersign" unicode="#" horiz-adv-x="1246" 
d="M260 0l74 410h-271v52h281l95 524h-300v54h310l75 416h56l-76 -416h365l76 416h56l-76 -416h254v-54h-264l-96 -524h285v-52h-294l-75 -410h-56l75 410h-364l-74 -410h-56zM400 462h363l96 524h-365z" />
    <glyph glyph-name="dollar" unicode="$" horiz-adv-x="1086" 
d="M521 -208v187.001c-84 2.66699 -159.5 19.334 -226.5 50.001s-119.5 76.834 -157.5 138.501s-56 140.167 -54 235.5l2 6h46c0 -88.667 18.667 -160.667 56 -216s87.166 -96 149.499 -122s130.833 -39 205.5 -39c72.667 0 136 14.167 190 42.5s96 66.166 126 113.499
s45 99.333 45 156c0 58 -11.167 107.167 -33.5 147.5s-60.5 77 -114.5 110s-128.333 66.5 -223 100.5c-95.333 31.333 -173 64.333 -233 99s-104.167 76.334 -132.5 125.001s-42.5 110 -42.5 184c0 106.667 34.833 193.167 104.5 259.5s163.5 101.833 281.5 106.5v187h55
v-187c120.667 -6.66699 214.5 -46.834 281.5 -120.501s99.5 -174.834 97.5 -303.501l-2 -5h-47c0 110.667 -31.667 201.167 -95 271.5s-151.666 105.5 -264.999 105.5c-116 0 -204.5 -30.5 -265.5 -91.5s-91.5 -134.5 -91.5 -220.5c0 -58 10.167 -107.667 30.5 -149
s57.333 -78.333 111 -111s130.167 -65.334 229.5 -98.001c93.333 -32.667 170.166 -66.334 230.499 -101.001s105 -76.167 134 -124.5s43.5 -109.166 43.5 -182.499c0 -107.333 -34.667 -193.5 -104 -258.5s-161.666 -100.833 -276.999 -107.5v-188h-55z" />
    <glyph glyph-name="percent" unicode="%" horiz-adv-x="1457" 
d="M388 131l-45 31l711 1138l45 -31zM1106 -21c-54 0 -101.499 13.334 -142.499 40.001s-73 62.667 -96 108s-34.5 96 -34.5 152v78c0 55.333 11.5 105.666 34.5 150.999s54.833 81.5 95.5 108.5s87.667 40.5 141 40.5s100.5 -13.333 141.5 -40s73 -62.667 96 -108
s34.5 -96 34.5 -152v-78c0 -56 -11.5 -106.667 -34.5 -152s-54.833 -81.333 -95.5 -108s-87.334 -40 -140.001 -40zM1106 34.001c68.667 0 121.668 24 159.001 72s56 105.667 56 173v78c0 70.667 -18.667 129.167 -56 175.5s-91 69.5 -161 69.5
c-68.667 0 -121.834 -23.333 -159.501 -70s-56.5 -105 -56.5 -175v-78c0 -67.333 18.667 -125 56 -173s91.333 -72 162 -72zM351.002 800.001c-54 0 -101.667 13.333 -143 40s-73.5 62.5 -96.5 107.5s-34.5 95.5 -34.5 151.5v77c0 56 11.5 106.833 34.5 152.5
s55 81.834 96 108.501s88.167 40 141.5 40c52.667 0 99.5 -13.333 140.5 -40s73 -62.834 96 -108.501s34.5 -96.5 34.5 -152.5v-77c0 -56 -11.5 -106.5 -34.5 -151.5s-54.667 -80.833 -95 -107.5s-86.833 -40 -139.5 -40zM351.002 855.001c68 0 120.667 23.999 158 71.999
s56 105.333 56 172v77c0 66.667 -18.833 124.334 -56.5 173.001s-90.834 73 -159.501 73s-122 -24.5 -160 -73.5s-57 -106.5 -57 -172.5v-77c0 -66.667 18.833 -124 56.5 -172s91.834 -72 162.501 -72z" />
    <glyph glyph-name="ampersand" unicode="&#x26;" horiz-adv-x="1253" 
d="M508 -21c-90 0 -167.331 15.1631 -231.998 45.4961s-114.5 73.333 -149.5 129s-52.5 121.834 -52.5 198.501c0 76 22.5 146.333 67.5 211s107.833 131 188.5 199l25.5 21l25.5 20c-54.667 68.667 -95 131.334 -121 188.001s-39 115.334 -39 176.001
c0 66 12.333 122.167 37 168.5s59.667 81.5 105 105.5s99.666 36 162.999 36c58.667 0 108.5 -10.833 149.5 -32.5s72.333 -52.167 94 -91.5s32.5 -85.333 32.5 -138c0 -56 -12.833 -103.5 -38.5 -142.5s-61.834 -77.167 -108.501 -114.5l-202 -161l475 -540
c36 50.667 64.167 107.667 84.5 171s30.5 131.333 30.5 204h55c0 -83.333 -11.667 -159.166 -35 -227.499s-56 -131.166 -98 -188.499l185 -211l-2 -5h-60l-157 177c-50.667 -52.667 -109.5 -98.834 -176.5 -138.501s-149.167 -59.5 -246.5 -59.5zM508.002 32.9961
c73.333 0 143.667 15.832 211 47.499s126.333 76.834 177 135.501l-483 548l-52 -41c-91.333 -78.667 -153 -147.167 -185 -205.5s-48 -113.5 -48 -165.5c0 -89.333 32.667 -164.833 98 -226.5s159.333 -92.5 282 -92.5zM421.003 833.995l209 165.999
c40 33.333 69.333 67.833 88 103.5s28 72.834 28 111.501c0 62.667 -18.833 113 -56.5 151s-92.167 57 -163.5 57c-80 0 -141.667 -24.167 -185 -72.5s-65 -108.833 -65 -181.5c0 -52.667 11.667 -107 35 -163s60 -113.333 110 -172z" />
    <glyph glyph-name="quotesingle" unicode="'" horiz-adv-x="421" 
d="M166 1122l15 267v171h55v-169l-20 -269h-50z" />
    <glyph glyph-name="parenleft" unicode="(" horiz-adv-x="615" 
d="M525 -463c-57.333 35.333 -110.834 86.5 -160.501 153.5s-93.334 146 -131.001 237s-67 190.667 -88 299s-31.5 221.5 -31.5 339.5v20c0 112.667 10.667 223 32 331s50.833 208.5 88.5 301.5s81.334 174 131.001 243s102.834 120.5 159.501 154.5h6l16 -36
c-50.667 -34 -98.834 -84.5 -144.501 -151.5s-86.167 -145.667 -121.5 -236s-63 -187 -83 -290s-30 -207.167 -30 -312.5v-26c0 -106 10 -210.5 30 -313.5s47.667 -199.667 83 -290s75.833 -169 121.5 -236s93.834 -117.5 144.501 -151.5l-16 -36h-6z" />
    <glyph glyph-name="parenright" unicode=")" horiz-adv-x="608" 
d="M27 -463l-16.001 36c50.667 34 98.834 84.5 144.501 151.5s86 145.667 121 236s62.667 187 83 290s30.5 207.5 30.5 313.5v26c0 105.333 -10.167 209.5 -30.5 312.5s-48 199.667 -83 290s-75.333 169 -121 236s-93.834 117.5 -144.501 151.5l16 36h6
c56 -34 108.833 -85.5 158.5 -154.5s93.5 -150 131.5 -243s67.667 -193.5 89 -301.5s32 -218.333 32 -331v-20c0 -118 -10.667 -231.167 -32 -339.5s-50.666 -208 -87.999 -299s-80.833 -170 -130.5 -237s-103.167 -118.167 -160.5 -153.5h-6z" />
    <glyph glyph-name="asterisk" unicode="*" horiz-adv-x="948" 
d="M710 664l-242 322l-228 -325l-45 32l234 324l-363 124l18 54l362 -133l1 394h56l-7 -395l352 143l20 -53l-360 -137l249 -317z" />
    <glyph glyph-name="plus" unicode="+" horiz-adv-x="1145" 
d="M535 146v503h-462v53h462v504h55v-504h481v-53h-481v-503h-55z" />
    <glyph glyph-name="comma" unicode="," horiz-adv-x="383" 
d="M129 -255l-37 32c30.667 40.667 53.167 79.834 67.5 117.501s21.5 81.167 21.5 130.5v134h54v-132c0 -58.667 -9.33301 -111.334 -28 -158.001s-44.667 -88 -78 -124z" />
    <glyph glyph-name="hyphen" unicode="-" horiz-adv-x="789" 
d="M154 599v54h470v-54h-470z" />
    <glyph glyph-name="period" unicode="." horiz-adv-x="444" 
d="M145 0v130h86v-130h-86z" />
    <glyph glyph-name="slash" unicode="/" horiz-adv-x="776" 
d="M0 -125l608 1581h59l-608 -1581h-59z" />
    <glyph glyph-name="zero" unicode="0" horiz-adv-x="1150" 
d="M566 -21c-140.667 0 -250.001 51.833 -328.001 155.5s-117 250.167 -117 439.5v308c0 189.333 38.667 335.833 116 439.5s186.333 155.5 327 155.5s249.834 -51.833 327.501 -155.5s116.5 -250.167 116.5 -439.5v-308c0 -190 -38.5 -336.667 -115.5 -440
s-185.833 -155 -326.5 -155zM565.999 33c126 0 222.168 48.332 288.501 144.999s99.5 229.334 99.5 398.001v306c0 169.333 -33.333 301.833 -100 397.5s-163.334 143.5 -290.001 143.5s-223.167 -47.833 -289.5 -143.5s-99.5 -228.167 -99.5 -397.5v-306
c0 -168 33.5 -300.5 100.5 -397.5s163.833 -145.5 290.5 -145.5z" />
    <glyph glyph-name="one" unicode="1" horiz-adv-x="821" 
d="M108 0v54h293v1352l-338 -76v50l392 84v-1410h293v-54h-640z" />
    <glyph glyph-name="two" unicode="2" horiz-adv-x="1104" 
d="M106 0l0.00292969 54l477 550c60.667 70 110.167 133.167 148.5 189.5s66.666 108.333 84.999 156s27.5 93.167 27.5 136.5c0 106 -29.333 188.667 -88 248s-144.334 89 -257.001 89c-119.333 0 -211.666 -35 -276.999 -105s-98 -160.667 -98 -272h-46l-2 6
c-2 78.667 14.167 150.167 48.5 214.5s83.666 115.5 147.999 153.5s139.833 57 226.5 57c80.667 0 151 -15.333 211 -46s106.5 -75.167 139.5 -133.5s49.5 -128.833 49.5 -211.5c0 -54 -11.833 -108.167 -35.5 -162.5s-57.834 -112.333 -102.501 -174
s-98.667 -129.5 -162 -203.5l-417 -487l2 -5h739v239h54v-293h-871z" />
    <glyph glyph-name="three" unicode="3" horiz-adv-x="1098" 
d="M539 -21c-82 0 -158.835 16.3369 -230.502 49.0039s-129 80.334 -172 143.001s-63.5 138.667 -61.5 228l2 6h46c0 -72 18.167 -136 54.5 -192s85.833 -100 148.5 -132s133.667 -48 213 -48c120 0 213.333 30.833 280 92.5s100 147.167 100 256.5
c0 113.333 -38.167 197.166 -114.5 251.499s-179.833 81.5 -310.5 81.5h-111v56h111c81.333 0 151.333 14 210 42s103.834 65.667 135.501 113s47.5 100.666 47.5 159.999c0 98 -30.167 178.667 -90.5 242s-149.166 95 -266.499 95c-72 0 -136.333 -14.333 -193 -43
s-101.334 -69.167 -134.001 -121.5s-49 -113.5 -49 -183.5h-46l-2 6c-2 78.667 15.5 147.667 52.5 207s88 105.666 153 138.999s137.833 50 218.5 50c125.333 0 225.166 -35.5 299.499 -106.5s111.5 -167.167 111.5 -288.5c0 -76.667 -24.167 -145.334 -72.5 -206.001
s-113.5 -104.334 -195.5 -131.001c94.667 -23.333 168.334 -65.666 221.001 -126.999s79 -138.666 79 -231.999c0 -84.667 -18.333 -157.334 -55 -218.001s-87.667 -107.334 -153 -140.001s-140.666 -49 -225.999 -49z" />
    <glyph glyph-name="four" unicode="4" horiz-adv-x="1170" 
d="M606 0v54h163v343h-706v30l695 1029h65v-1005h252v-54h-252v-343h163v-54h-380zM147 451h622v929l-6 2l-78 -129z" />
    <glyph glyph-name="five" unicode="5" horiz-adv-x="1061" 
d="M503 -21c-78.667 0 -148.996 15.001 -210.996 45.001s-110.5 74.5 -145.5 133.5s-51.5 132.167 -49.5 219.5l2 6h47c0 -114.667 32 -201.667 96 -261s151 -89 261 -89c129.333 0 224.166 35.667 284.499 107s90.5 178.666 90.5 321.999
c0 122.667 -30.167 219.334 -90.5 290.001s-144.833 106 -253.5 106c-106.667 0 -190.5 -17.833 -251.5 -53.5s-104.833 -88.5 -131.5 -158.5l-41 16l78 794h700v-191h-54v138h-597l-61 -618c28 28 57.167 51.333 87.5 70s66.666 33 108.999 43s95.833 16 160.5 18
c77.333 2 146.166 -15.333 206.499 -52s107.666 -89.334 141.999 -158.001s51.5 -149.334 51.5 -242.001c0 -99.333 -15.5 -185.166 -46.5 -257.499s-78.167 -128.333 -141.5 -168s-144 -59.5 -242 -59.5z" />
    <glyph glyph-name="six" unicode="6" horiz-adv-x="1107" 
d="M555 -21c-86 0 -161.497 22.501 -226.497 67.501s-115.833 110.167 -152.5 195.5s-55 188.666 -55 309.999v328c0 130 19.5 239.333 58.5 328s92.667 155.667 161 201s146.166 68 233.499 68c50.667 0 100.167 -5.5 148.5 -16.5s93.833 -28.833 136.5 -53.5l-21 -51
c-44 25.333 -84.833 42.833 -122.5 52.5s-84.834 14.5 -141.501 14.5c-116.667 0 -212.334 -44.833 -287.001 -134.5s-112 -225.5 -112 -407.5v-175c31.333 72.667 81.5 132.667 150.5 180s148.833 71 239.5 71c87.333 0 162.5 -20.5 225.5 -61.5
s111.333 -98.833 145 -173.5s50.5 -162 50.5 -262c0 -92 -18.5 -174.167 -55.5 -246.5s-88 -129.5 -153 -171.5s-139.167 -63 -222.5 -63zM555.003 32.001c74 0 139.332 19.334 195.999 58.001s101 90.5 133 155.5s48 136.5 48 214.5c0 134.667 -32 242.167 -96 322.5
s-156.667 120.5 -278 120.5c-68 0 -131.167 -16 -189.5 -48s-105.166 -74.333 -140.499 -127s-53 -110.667 -53 -174v-3c0 -164.667 34.667 -292.334 104 -383.001s161.333 -136 276 -136z" />
    <glyph glyph-name="seven" unicode="7" horiz-adv-x="1104" 
d="M385 0l6.00098 91.001c19.333 175.333 53 340.166 101 494.499s109.833 299.333 185.5 435s163.5 262.834 263.5 381.501h-811v-239h-54v293h930v-54c-72 -83.333 -138.833 -172.333 -200.5 -267s-116.834 -195.834 -165.501 -303.501s-89.5 -223 -122.5 -346
s-57.167 -254.5 -72.5 -394.5l-6 -91h-54z" />
    <glyph glyph-name="eight" unicode="8" horiz-adv-x="1123" 
d="M557 -21c-91.333 0 -171.999 15.498 -241.999 46.498s-124.667 76.333 -164 136s-59 132.167 -59 217.5c0 88.667 28.167 165.667 84.5 231s131.166 110.333 224.499 135c-81.333 24.667 -146.333 67.167 -195 127.5s-73 131.5 -73 213.5s18 152.167 54 210.5
s85.833 103 149.5 134s136.5 46.5 218.5 46.5c81.333 0 153.833 -15.667 217.5 -47s113.834 -76.166 150.501 -134.499s55 -128.166 55 -209.499s-24.833 -152.333 -74.5 -213s-114.834 -103.334 -195.501 -128.001c92.667 -25.333 167.834 -70.666 225.501 -135.999
s86.5 -142 86.5 -230c0 -85.333 -19.833 -157.833 -59.5 -217.5s-94.334 -105 -164.001 -136s-149.5 -46.5 -239.5 -46.5zM557.001 32.998c78 0 147.833 13.667 209.5 41s110.167 66.333 145.5 117s53 111.667 53 183c0 68.667 -18 128.834 -54 180.501
s-85 91.834 -147 120.501s-131.667 43 -209 43c-78.667 0 -148.834 -14.333 -210.501 -43s-110.167 -68.834 -145.5 -120.501s-53 -111.834 -53 -180.501c0 -107.333 38.333 -191 115 -251s175.334 -90 296.001 -90zM557.001 771.998c70 0 132.667 13.166 188 39.499
s99 63.333 131 111s48 103.834 48 168.501c0 63.333 -16.333 120 -49 170s-77 89.5 -133 118.5s-118.333 43.5 -187 43.5c-107.333 0 -195.5 -30.167 -264.5 -90.5s-103.5 -140.833 -103.5 -241.5c0 -97.333 34.667 -174.833 104 -232.5s158 -86.5 266 -86.5z" />
    <glyph glyph-name="nine" unicode="9" horiz-adv-x="1125" 
d="M501 -21c-52 0 -104.001 5.33203 -156.001 15.999s-104.333 26.334 -157 47.001l16 57c50 -22.667 97.667 -39.334 143 -50.001s96.666 -16 153.999 -16c125.333 0 223.166 46 293.499 138s105.5 227.667 105.5 407v123c-37.333 -72.667 -90.166 -129.667 -158.499 -171
s-144.833 -62 -229.5 -62c-83.333 0 -157.166 22 -221.499 66s-114.833 103.167 -151.5 177.5s-55 156.5 -55 246.5c0 95.333 18.667 182.333 56 261s88.833 141.334 154.5 188.001s140.834 70 225.501 70c88.667 0 166.167 -20 232.5 -60s117.833 -101 154.5 -183
s55 -185.667 55 -311v-343c0 -132.667 -18.667 -243.667 -56 -333s-90.5 -156.333 -159.5 -201s-150.833 -67 -245.5 -67zM511.999 520.999c98.667 0 181.333 28.499 248 85.499s113.334 125.167 140.001 204.5v111c0 170.667 -34.167 296.834 -102.5 378.501
s-159.5 122.5 -273.5 122.5c-74.667 0 -140.334 -21.667 -197.001 -65s-101 -100.333 -133 -171s-48 -147 -48 -229c0 -79.333 15.167 -152 45.5 -218s72.833 -119 127.5 -159s119 -60 193 -60z" />
    <glyph glyph-name="colon" unicode=":" horiz-adv-x="364" 
d="M118 0v130h86v-130h-86zM118 949v130h86v-130h-86z" />
    <glyph glyph-name="semicolon" unicode=";" horiz-adv-x="364" 
d="M125 952v130h86v-130h-86zM113 -255l-37 32c30.667 40.667 53.167 79.834 67.5 117.501s21.5 81.167 21.5 130.5v134h54v-132c0 -58.667 -9.33301 -111.334 -28 -158.001s-44.667 -88 -78 -124z" />
    <glyph glyph-name="less" unicode="&#x3c;" horiz-adv-x="1027" 
d="M913 136l-837 379v50l837 378v-58l-661 -308l-119 -37v-6l119 -36l661 -303v-59z" />
    <glyph glyph-name="equal" unicode="=" horiz-adv-x="1127" 
d="M147 843v54h834v-54h-834zM147 436v54h834v-54h-834z" />
    <glyph glyph-name="greater" unicode="&#x3e;" horiz-adv-x="1052" 
d="M125 137v59l660 307l118 36v6l-118 37l-660 304v58l836 -378v-50z" />
    <glyph glyph-name="question" unicode="?" horiz-adv-x="901" 
d="M362 400c0 39.333 1.33105 71.832 3.99805 97.499s8.16699 48.334 16.5 68.001s20.833 39.167 37.5 58.5s39 42 67 68c54 51.333 97.667 96.833 131 136.5s57.666 81.167 72.999 124.5s23 96.333 23 159c0 97.333 -26 173.666 -78 228.999s-125.667 83 -221 83
c-94.667 0 -168 -28.167 -220 -84.5s-79 -130.833 -81 -223.5h-46l-3 6c-0.666992 75.333 13.833 139.5 43.5 192.5s71 93.333 124 121s113.833 41.5 182.5 41.5c109.333 0 195.5 -33.667 258.5 -101s94.5 -156 94.5 -266c0 -62.667 -9.16699 -119.167 -27.5 -169.5
s-46.166 -98.5 -83.499 -144.5s-84.666 -94.667 -141.999 -146c-28.667 -25.333 -50.167 -48.666 -64.5 -69.999s-23.666 -45.5 -27.999 -72.5s-6.5 -62.833 -6.5 -107.5h-54zM357.998 -0.000976562v106h82v-106h-82z" />
    <glyph glyph-name="at" unicode="@" horiz-adv-x="1799" 
d="M857 -453c-165.333 0 -306.999 37.6641 -424.999 112.997s-207.167 182.5 -267.5 321.5s-86.5 304.5 -78.5 496.5c8 188.667 49.333 352.834 124 492.501s176 248 304 325s276 115.5 444 115.5c174.667 0 320 -35.167 436 -105.5s202 -171.666 258 -303.999
s80 -291.833 72 -478.5c-4 -97.333 -22.333 -187.333 -55 -270s-78.667 -149 -138 -199s-131.666 -75 -216.999 -75c-55.333 0 -100.333 20.333 -135 61s-55 97 -61 169c-73.333 -153.333 -184 -230 -332 -230c-90.667 0 -158.334 39.667 -203.001 119
s-60.667 185.333 -48 318c10.667 111.333 36 208.333 76 291s91.167 146.834 153.5 192.501s131.5 68.5 207.5 68.5c55.333 0 100.333 -9.16699 135 -27.5s73 -45.833 115 -82.5l-2 -27l-47 -538c-4.66699 -67.333 -0.5 -119.833 12.5 -157.5s31.5 -64 55.5 -79
s49.333 -22.5 76 -22.5c105.333 0 188.166 44.833 248.499 134.5s94.166 207.834 101.499 354.501c13.333 264 -39.334 469 -158.001 615s-303.667 219 -555 219c-154.667 0 -291.5 -36.5 -410.5 -109.5s-213.667 -175.333 -284 -307s-110.166 -285.834 -119.499 -462.501
c-8.66699 -171.333 13.666 -323 66.999 -455s135.333 -235.167 246 -309.5s247.334 -111.5 410.001 -111.5c66 0 127.833 7 185.5 21s107.167 33 148.5 57l24 -44c-41.333 -26.667 -96.166 -48.167 -164.499 -64.5s-134.833 -24.5 -199.5 -24.5zM784.001 32.9971
c72 0 136.668 22.168 194.001 66.501s105.333 126.166 144 245.499c0.666992 4.66699 1 9 1 13s0.333008 8.33301 1 13l40 460c-22.667 26 -50.167 46.167 -82.5 60.5s-69.833 21.5 -112.5 21.5c-94.667 0 -177.334 -42.167 -248.001 -126.5s-114.667 -207.833 -132 -370.5
c-12.667 -111.333 -2.16699 -203 31.5 -275s88.167 -108 163.5 -108z" />
    <glyph glyph-name="A" unicode="A" horiz-adv-x="1472" 
d="M55 0v54h107l524 1402h66l525 -1402h107v-54h-309v54h143l-143 381h-712l-142 -381h143v-54h-309zM383 489h672l-305 820l-28 82h-6l-27 -82z" />
    <glyph glyph-name="B" unicode="B" horiz-adv-x="1247" 
d="M71 0l-0.00195312 54h163v1348h-163v54h163h383c150.667 0 267.667 -31 351 -93s125 -155.333 125 -280c0 -86.667 -22.333 -159.667 -67 -219s-107.667 -96.333 -189 -111c60.667 -8 115.334 -28.833 164.001 -62.5s87.167 -75.667 115.5 -126
s42.5 -104.833 42.5 -163.5c0 -127.333 -41.167 -226 -123.5 -296s-191.166 -105 -326.499 -105h-638zM287.998 54h420.999c122.667 0 219.334 30.333 290.001 91s106 145.334 106 254.001c0 59.333 -15.167 113.166 -45.5 161.499s-74.333 86.833 -132 115.5
s-127.167 43 -208.5 43h-431v-665zM287.997 773h349c132.667 0 232.667 25.833 300 77.5s101 130.5 101 236.5c0 104 -35.5 182.5 -106.5 235.5s-175.833 79.5 -314.5 79.5h-329v-629z" />
    <glyph glyph-name="C" unicode="C" horiz-adv-x="1348" 
d="M794 -21c-141.333 0 -261.499 31.167 -360.499 93.5s-174.333 149 -226 260s-77.5 239.833 -77.5 386.5v18c0 146.667 26.667 275.5 80 386.5s127.833 197.667 223.5 260s206.834 93.5 333.501 93.5c105.333 0 191.666 -13.333 258.999 -40s130.666 -66 189.999 -118
v-257h-55v234c-36 27.333 -72.167 50.333 -108.5 69s-77 33 -122 43s-99.5 15 -163.5 15c-114.667 0 -215.834 -28.667 -303.501 -86s-156.167 -137.333 -205.5 -240s-74 -222 -74 -358v-20c0 -136 24.167 -255.5 72.5 -358.5s117.833 -183.333 208.5 -241
s199.334 -86.5 326.001 -86.5c73.333 0 144 9.33301 212 28s125.667 44 173 76v235h55v-269c-62.667 -42 -130.667 -73.167 -204 -93.5s-151 -30.5 -233 -30.5z" />
    <glyph glyph-name="D" unicode="D" horiz-adv-x="1386" 
d="M71 0v54h163v1348h-163v54h163h395c119.333 0 225.5 -30.833 318.5 -92.5s166.333 -146.5 220 -254.5s80.5 -232 80.5 -372v-18c0 -140 -26.833 -264 -80.5 -372s-127 -192.833 -220 -254.5s-199.167 -92.5 -318.5 -92.5h-558zM288 54l341 -0.000976562
c108.667 0 205.5 28.833 290.5 86.5s152 136.667 201 237s73.5 214.166 73.5 341.499v21c0 126.667 -24.5 239.834 -73.5 339.501s-116 178.334 -201 236.001s-181.833 86.5 -290.5 86.5h-341v-1348z" />
    <glyph glyph-name="E" unicode="E" horiz-adv-x="1270" 
d="M71 0v54h163v1348h-163v54h1019v-293h-54v239h-748v-616h630v-54h-630v-678h778v239h54v-293h-1049z" />
    <glyph glyph-name="F" unicode="F" horiz-adv-x="1246" 
d="M71 0v54h163v1348h-163v54h1065v-293h-54v239h-794v-630h646v-56h-646v-662h163v-54h-380z" />
    <glyph glyph-name="G" unicode="G" horiz-adv-x="1417" 
d="M770 -21c-132.667 0 -246.835 31.167 -342.502 93.5s-169.167 149.166 -220.5 260.499s-77 240.333 -77 387v38c0 142 27 267 81 375s128 192.333 222 253s201 91 321 91c102.667 0 189.834 -13.833 261.501 -41.5s137.5 -64.834 197.5 -111.501v-252h-54v224
c-49.333 38.667 -104.833 69.5 -166.5 92.5s-141.167 34.5 -238.5 34.5c-108 0 -205 -28.167 -291 -84.5s-154 -134.166 -204 -233.499s-75 -214.333 -75 -345v-40c0 -135.333 23.167 -254.666 69.5 -357.999s113 -184 200 -242s191.833 -87 314.5 -87
c89.333 0 170 10.833 242 32.5s133.333 46.834 184 75.501v424h-315v55h369v-509c-60.667 -36.667 -129.667 -67.834 -207 -93.501s-167.666 -38.5 -270.999 -38.5z" />
    <glyph glyph-name="H" unicode="H" horiz-adv-x="1506" 
d="M71 0v54h163v1348h-163v54h380v-54h-163v-653h930v653h-163v54h163h54h163v-54h-163v-1348h163v-54h-380v54h163v641h-930v-641h163v-54h-380z" />
    <glyph glyph-name="I" unicode="I" horiz-adv-x="522" 
d="M71 0v54h163v1348h-163v54h380v-54h-163v-1348h163v-54h-380z" />
    <glyph glyph-name="J" unicode="J" horiz-adv-x="1137" 
d="M471 -21c-88.667 0 -165.167 15.8311 -229.5 47.498s-113.5 78.334 -147.5 140.001s-50 137.834 -48 228.501l2 6h46c0 -118.667 32.333 -209.667 97 -273s158 -95 280 -95c68 0 128.833 15.833 182.5 47.5s95.834 76.667 126.501 135s46 127.166 46 206.499v980h-186v54
h403v-54h-163v-980c0 -90 -17.333 -168.167 -52 -234.5s-82.834 -117.666 -144.501 -153.999s-132.5 -54.5 -212.5 -54.5z" />
    <glyph glyph-name="K" unicode="K" horiz-adv-x="1388" 
d="M270 391l-20 62l841 944l-2 5h-168v54h361v-54h-115zM71 0v54h163v1348h-163v54h380v-54h-163v-1348h163v-54h-380zM967 0v54h163l3 6l-542 743l50 29l569 -778h118v-54h-361z" />
    <glyph glyph-name="L" unicode="L" horiz-adv-x="1161" 
d="M71 0v54h163v1348h-163v54h163h55h163v-54h-163v-1348h693v239h54v-293h-965z" />
    <glyph glyph-name="M" unicode="M" horiz-adv-x="1824" 
d="M71 0v54h163v1348h-163v54h163h77l596 -1370h6l598 1370h242v-54h-163v-1348h163v-54h-380v54h163v791v516l-6 2l-598 -1363h-43l-595 1356l-6 -2v-482v-818h163v-54h-380z" />
    <glyph glyph-name="N" unicode="N" horiz-adv-x="1517" 
d="M71 0v54h163v1348h-163v54h163h55l934 -1353l6 2v1297h-163v54h217h163v-54h-163v-1402h-54l-934 1356l-6 -2v-1300h163v-54h-381z" />
    <glyph glyph-name="O" unicode="O" horiz-adv-x="1488" 
d="M740 -21c-90.667 0 -173.331 17.5 -247.998 52.5s-139 85 -193 150s-95.667 142.833 -125 233.5s-44 192 -44 304v18c0 112 14.5 213.333 43.5 304s70.5 168.5 124.5 233.5s118.167 115 192.5 150s156.833 52.5 247.5 52.5c90 0 172.333 -17.5 247 -52.5
s139.167 -85 193.5 -150s96.166 -142.833 125.499 -233.5s44 -192 44 -304v-18c0 -112 -14.667 -213.5 -44 -304.5s-70.833 -168.833 -124.5 -233.5s-117.834 -114.5 -192.501 -149.5s-157 -52.5 -247 -52.5zM740.003 33c112.667 0 210.501 28.333 293.501 85
s147.167 136.5 192.5 239.5s68 223.5 68 361.5v20c0 137.333 -22.833 257.333 -68.5 360s-110.167 182.334 -193.5 239.001s-181.333 85 -294 85c-112 0 -209.333 -28.333 -292 -85s-146.834 -136.334 -192.501 -239.001s-68.5 -222.667 -68.5 -360v-20
c0 -138 22.833 -258.5 68.5 -361.5s110 -182.833 193 -239.5s180.833 -85 293.5 -85z" />
    <glyph glyph-name="P" unicode="P" horiz-adv-x="1255" 
d="M71 0v53.998h163v1348h-163v54h163h405c100.667 0 186 -17.167 256 -51.5s123.167 -82.666 159.5 -144.999s54.5 -135.166 54.5 -218.499c0 -84.667 -18.167 -158.167 -54.5 -220.5s-89.5 -110.5 -159.5 -144.5s-155.333 -51 -256 -51h-351v-571h163v-54h-380z
M288 678.998h351c138 0 241.833 34.333 311.5 103s104.5 154.334 104.5 257.001c0 105.333 -34.667 192.166 -104 260.499s-173.333 102.5 -312 102.5h-351v-723z" />
    <glyph glyph-name="Q" unicode="Q" horiz-adv-x="1478" 
d="M1308 -206l-328.997 234c-36.667 -16.667 -75 -29 -115 -37s-81.333 -12 -124 -12c-90.667 0 -173.334 17.5 -248.001 52.5s-139 85 -193 150s-95.667 142.833 -125 233.5s-44 192 -44 304v18c0 112 14.5 213.333 43.5 304s70.5 168.5 124.5 233.5s118.167 115 192.5 150
s156.833 52.5 247.5 52.5c90 0 172.333 -17.5 247 -52.5s139.167 -85 193.5 -150s96.166 -142.833 125.499 -233.5s44 -192 44 -304v-18c0 -154.667 -27.833 -289.5 -83.5 -404.5s-132.834 -201.167 -231.501 -258.5l310 -221zM740.003 33
c112.667 0 210.501 28.333 293.501 85s147.167 136.5 192.5 239.5s68 223.5 68 361.5v20c0 137.333 -22.833 257.333 -68.5 360s-110.167 182.334 -193.5 239.001s-181.333 85 -294 85c-112 0 -209.333 -28.333 -292 -85s-146.834 -136.334 -192.501 -239.001
s-68.5 -222.667 -68.5 -360v-20c0 -138 22.833 -258.5 68.5 -361.5s110 -182.833 193 -239.5s180.833 -85 293.5 -85z" />
    <glyph glyph-name="R" unicode="R" horiz-adv-x="1364" 
d="M71 -1l-0.000976562 54.001h163v1348h-163v54h585c102.667 0 189.5 -14.833 260.5 -44.5s125 -73.334 162 -131.001s55.5 -129.167 55.5 -214.5c0 -81.333 -20.167 -150.5 -60.5 -207.5s-96.666 -100.333 -168.999 -130s-156.5 -44.5 -252.5 -44.5h-364v-630h163v-54
h-380zM1067 -0.999023l-305 719h54l287 -665h133v-54h-169zM287.999 737.001l363.001 -0.000976562c147.333 0 255.666 31.333 324.999 94s104 140.667 104 234c0 108.667 -35.5 191.834 -106.5 249.501s-176.833 86.5 -317.5 86.5h-368v-664z" />
    <glyph glyph-name="S" unicode="S" horiz-adv-x="1183" 
d="M589 -21c-78 0 -159.17 12.335 -243.503 37.002s-166.166 63.667 -245.499 117v257h54v-226c72 -45.333 145 -78.5 219 -99.5s146 -31.5 216 -31.5c85.333 0 161 13.333 227 40s117.833 63.834 155.5 111.501s56.5 102.5 56.5 164.5
c0 61.333 -14.5 114.666 -43.5 159.999s-76.167 85.666 -141.5 120.999s-153.333 68.333 -264 99s-198.667 63.334 -264 98.001s-112.166 76 -140.499 124s-42.5 107.333 -42.5 178c0 69.333 18.667 130 56 182s89.833 92.667 157.5 122s146.5 44 236.5 44
c94 0 178.833 -14 254.5 -42s141.834 -65.667 198.501 -113v-234h-54v204c-52 43.333 -112 76 -180 98s-141 33 -219 33c-84.667 0 -156.5 -13.5 -215.5 -40.5s-103.833 -62.667 -134.5 -107s-46 -92.5 -46 -144.5c0 -54.667 11 -102.834 33 -144.501
s62.333 -78.834 121 -111.501s143.334 -64 254.001 -94c161.333 -43.333 283.166 -97.166 365.499 -161.499s123.5 -153.833 123.5 -268.5c0 -76.667 -21.5 -142.834 -64.5 -198.501s-101.667 -98.5 -176 -128.5s-158.833 -45 -253.5 -45z" />
    <glyph glyph-name="T" unicode="T" horiz-adv-x="1277" 
d="M447 0v54h163v1348h-476v-239h-54v293h1114v-293h-54v239h-476v-1348h163v-54h-380z" />
    <glyph glyph-name="U" unicode="U" horiz-adv-x="1441" 
d="M721 -21c-99.333 0 -186.335 18.834 -261.002 56.501s-132.834 93 -174.501 166s-62.5 162.167 -62.5 267.5v933h-163v54h380v-54h-163v-933c0 -91.333 18.833 -169.5 56.5 -234.5s89.834 -114.833 156.501 -149.5s143.667 -52 231 -52
c86.667 0 163.334 17.333 230.001 52s118.834 84.5 156.501 149.5s56.5 143.167 56.5 234.5v933h-163v54h380v-54h-163v-933c0 -106 -21 -195.333 -63 -268s-100.333 -127.834 -175 -165.501s-161 -56.5 -259 -56.5z" />
    <glyph glyph-name="V" unicode="V" horiz-adv-x="1434" 
d="M686 0l-524 1402h-107v54h319v-54h-153l469 -1260l26 -79h6l26 79l469 1260h-153v54h319v-54h-107l-524 -1402h-66z" />
    <glyph glyph-name="W" unicode="W" horiz-adv-x="2000" 
d="M517 0l-359 1402h-101v54h320v-54h-160l269 -1072l63 -229h6l63 229l364 1126h60l362 -1126l62 -229h6l65 229l266 1072h-159v54h319v-54h-101l-358 -1402h-61l-381 1214l-48 145h-6l-46 -145l-384 -1214h-61z" />
    <glyph glyph-name="X" unicode="X" horiz-adv-x="1384" 
d="M57 0v54h115l486 689l-466 659h-115v54h348v-54h-166l432 -617l433 617h-165v54h347v-54h-115l-465 -659l486 -689h115v-54h-347v54h165l-454 647l-453 -647h165v-54h-346z" />
    <glyph glyph-name="Y" unicode="Y" horiz-adv-x="1429" 
d="M526 0v54h163v499l-515 849h-119v54h326v-54h-141l449 -755l26 -50l1 2l26 48l451 755h-141v54h326v-54h-120l-514 -849v-499h163v-54h-381z" />
    <glyph glyph-name="Z" unicode="Z" horiz-adv-x="1220" 
d="M92 0v44l929 1359h-835v-240h-54v293h964v-38l-930 -1364h908v239h54v-293h-1036z" />
    <glyph glyph-name="bracketleft" unicode="[" horiz-adv-x="527" 
d="M157 -312v1976h283v-54h-229v-1868h229v-54h-283z" />
    <glyph glyph-name="backslash" unicode="\" horiz-adv-x="784" 
d="M644 -125l-608 1581h58l608 -1581h-58z" />
    <glyph glyph-name="bracketright" unicode="]" horiz-adv-x="505" 
d="M23 -312v54h228v1868h-228v54h283v-1976h-283z" />
    <glyph glyph-name="asciicircum" unicode="^" horiz-adv-x="828" 
d="M71 729l299 727h52l299 -727h-61l-222 543l-40 114h-6l-43 -114l-219 -543h-59z" />
    <glyph glyph-name="underscore" unicode="_" horiz-adv-x="1134" 
d="M119 -54v54h846v-54h-846z" />
    <glyph glyph-name="grave" unicode="`" horiz-adv-x="326" 
d="M286 1329l-2 -5h-45l-199 231l2 5h64z" />
    <glyph glyph-name="a" unicode="a" horiz-adv-x="1116" 
d="M417 -21c-94.667 0 -170.498 27.166 -227.498 81.499s-85.5 125.5 -85.5 213.5c0 64.667 19.5 121.834 58.5 171.501s94 88.5 165 116.5s154.5 42 250.5 42h249v138c0 90 -26 163.667 -78 221s-133.667 86 -245 86c-58.667 0 -112.334 -11 -161.001 -33
s-90 -48.667 -124 -80v-177h-54v206c44.667 41.333 94.5 74.5 149.5 99.5s118.5 37.5 190.5 37.5c124.667 0 218.5 -32.5 281.5 -97.5s94.5 -153.167 94.5 -264.5v-522c0 -28 1.16699 -55.667 3.5 -83s6.16602 -54.333 11.499 -81h150v-54h-197
c-8.66699 47.333 -14.5 83.5 -17.5 108.5s-4.5 55.167 -4.5 90.5c-40.667 -65.333 -96.5 -118.333 -167.5 -159s-151.833 -61 -242.5 -61zM417.002 31.999c82 0 161.332 23.001 237.999 69.001s134 109.667 172 191v257h-246c-127.333 0 -229.666 -25.833 -306.999 -77.5
s-116 -118.834 -116 -201.501c0 -67.333 24.333 -123.833 73 -169.5s110.667 -68.5 186 -68.5z" />
    <glyph glyph-name="b" unicode="b" horiz-adv-x="1088" 
d="M578 -21c-86 0 -160.499 17.5 -223.499 52.5s-112.167 82.167 -147.5 141.5l-7 -173h-45v1506h-163v54h217v-675c36 67.333 84.667 120.333 146 159s135 58 221 58c84.667 0 157.5 -22.833 218.5 -68.5s107.833 -110.5 140.5 -194.5s49 -183 49 -297v-21
c0 -111.333 -16.167 -207.5 -48.5 -288.5s-78.833 -143.5 -139.5 -187.5s-133.334 -66 -218.001 -66zM579.001 33c114 0 200.668 44 260.001 132s89 206.667 89 356v21c0 100 -13.333 188 -40 264s-66.167 135.333 -118.5 178s-116.5 64 -192.5 64
c-105.333 0 -186.833 -26.833 -244.5 -80.5s-98.834 -119.5 -123.501 -197.5v-496c26 -73.333 70.167 -131.833 132.5 -175.5s141.5 -65.5 237.5 -65.5z" />
    <glyph glyph-name="c" unicode="c" horiz-adv-x="1082" 
d="M540 -21c-82.667 0 -157.002 22.665 -223.002 67.998s-118 108.5 -156 189.5s-57 175.5 -57 283.5v42c0 108 18.5 202.5 55.5 283.5s88.167 144 153.5 189s140.333 67.5 225 67.5c81.333 0 154.5 -17.167 219.5 -51.5s119.167 -76.166 162.5 -125.499v-232h-54v212
c-42.667 45.333 -91 80.5 -145 105.5s-114.667 37.5 -182 37.5c-76 0 -142.667 -20.667 -200 -62s-101.833 -98.5 -133.5 -171.5s-47.5 -157.167 -47.5 -252.5v-42c0 -96 16 -180.667 48 -254s76.833 -130.5 134.5 -171.5s125.167 -61.5 202.5 -61.5
c92.667 0 170.5 23.667 233.5 71s100.5 120.333 112.5 219h46l2 -6c-8 -74 -29.667 -136.167 -65 -186.5s-81.166 -88.166 -137.499 -113.499s-121.166 -38 -194.499 -38z" />
    <glyph glyph-name="d" unicode="d" horiz-adv-x="1205" 
d="M510 -21c-84.667 0 -157.332 22 -217.999 66s-107.167 106.5 -139.5 187.5s-48.5 177.167 -48.5 288.5v21c0 114 16.167 213 48.5 297s79 148.833 140 194.5s134.167 68.5 219.5 68.5s158.666 -19.5 219.999 -58.5s110.333 -92.5 147 -160.5v623h-163v54h163h54v-1506
h163v-54h-215l-2 173c-35.333 -59.333 -84.333 -106.5 -147 -141.5s-136.667 -52.5 -222 -52.5zM509.002 33c94 0 172.167 21.334 234.5 64.001s107.5 99.667 135.5 171v507c-26 77.333 -68 142.166 -126 194.499s-138.667 78.5 -242 78.5c-76.667 0 -141 -21.333 -193 -64
s-91.333 -102 -118 -178s-40 -164 -40 -264v-21c0 -149.333 29.5 -268 88.5 -356s145.833 -132 260.5 -132z" />
    <glyph glyph-name="e" unicode="e" horiz-adv-x="1084" 
d="M564 -21c-86.667 0 -163.999 22.167 -231.999 66.5s-121.667 105.666 -161 183.999s-59 168.5 -59 270.5v64c0 103.333 19 195.5 57 276.5s90.167 144.833 156.5 191.5s141.5 70 225.5 70c81.333 0 152.5 -18.167 213.5 -54.5s108.333 -87.5 142 -153.5
s50.5 -144 50.5 -234v-83h-791v-77c0 -89.333 17 -169.166 51 -239.499s81 -125.833 141 -166.5s128.667 -61 206 -61c68.667 0 129.5 11.833 182.5 35.5s100.167 55.834 141.5 96.501l29 -42c-44.667 -42.667 -95.334 -77.334 -152.001 -104.001s-123.667 -40 -201 -40z
M177.001 631h726v33c0 73.333 -14.5 139 -43.5 197s-69.833 103.667 -122.5 137s-114.667 50 -186 50c-68 0 -129.333 -18 -184 -54s-99 -85 -133 -147s-54 -132 -60 -210z" />
    <glyph glyph-name="f" unicode="f" horiz-adv-x="722" 
d="M114 0l-0.00195312 54h163v973h-188v55h188v178c0 102 24.833 181 74.5 237s119.167 84 208.5 84c22 0 43.833 -1.33301 65.5 -4s42.5 -7 62.5 -13l-8 -52c-21.333 5.33301 -40.166 9.16602 -56.499 11.499s-37.166 3.5 -62.499 3.5c-72 0 -128.333 -23.667 -169 -71
s-61 -112.666 -61 -195.999v-178h286v-55h-286v-973h163v-54h-380z" />
    <glyph glyph-name="g" unicode="g" horiz-adv-x="1155" 
d="M524 -437c-52.667 0 -107.499 5.49902 -164.499 16.499s-106.833 26.167 -149.5 45.5l16 54c48.667 -21.333 95.667 -37.166 141 -47.499s97 -15.5 155 -15.5c115.333 0 203.5 35.5 264.5 106.5s91.5 168.167 91.5 291.5v157
c-36 -58.667 -85.167 -105.334 -147.5 -140.001s-135.833 -52 -220.5 -52s-157.334 22 -218.001 66s-107.167 106.667 -139.5 188s-48.5 177.333 -48.5 288v21c0 114.667 16.167 213.834 48.5 297.501s79 148.334 140 194.001s134.167 68.5 219.5 68.5
s158.833 -19.667 220.5 -59s110.5 -93 146.5 -161l8 200h46v-1068c0 -92 -16.5 -171.833 -49.5 -239.5s-80 -119.834 -141 -156.501s-133.833 -55 -218.5 -55zM509.001 32.999c96 0 174.832 22 236.499 66s105.834 103 132.501 177v491c-25.333 79.333 -66.5 146 -123.5 200
s-138.167 81 -243.5 81c-76 0 -140.167 -21.333 -192.5 -64s-92 -102 -119 -178s-40.5 -164 -40.5 -264v-21c0 -149.333 29.667 -268 89 -356s146.333 -132 261 -132zM913 1028l-7 54h170v-54h-163z" />
    <glyph glyph-name="h" unicode="h" horiz-adv-x="1278" 
d="M62 0l-0.000976562 54h163v1452h-163v54h217v-706c33.333 78.667 82.333 139.667 147 183s143.667 65 237 65c112.667 0 198.167 -35.667 256.5 -107s87.5 -183.666 87.5 -336.999v-604h163v-54h-381v54h163v606c0 142 -26.167 242.167 -78.5 300.5
s-122.166 87.5 -209.499 87.5c-116.667 0 -206 -34.833 -268 -104.5s-101 -158.834 -117 -267.501v-622h163v-54h-380z" />
    <glyph glyph-name="i" unicode="i" horiz-adv-x="609" 
d="M89 0v54h163v974h-163v54h217v-1028h163v-54h-380zM234 1420v140h72v-140h-72z" />
    <glyph glyph-name="j" unicode="j" horiz-adv-x="563" 
d="M108 -437c-20 0 -38.665 1.66602 -55.998 4.99902s-36 8.33301 -56 15l13 52c12 -4 27.167 -8 45.5 -12s36.166 -6 53.499 -6c73.333 0 130.166 25.5 170.499 76.5s60.5 123.5 60.5 217.5v1117h-163v54h217v-1171c0 -111.333 -25 -197.166 -75 -257.499
s-120 -90.5 -210 -90.5zM315.002 1420v140h72v-140h-72z" />
    <glyph glyph-name="k" unicode="k" horiz-adv-x="1154" 
d="M62 0v54h163v1452h-163v54h217v-1506h163v-54h-380zM761 0v54h126l2 5l-399 555l38 35l436 -595h117v-54h-320zM269 346l-18 54l587 622l-2 6h-119v54h321v-54h-122z" />
    <glyph glyph-name="l" unicode="l" horiz-adv-x="581" 
d="M82 0v54h163v1452h-163v54h217v-1506h163v-54h-380z" />
    <glyph glyph-name="m" unicode="m" horiz-adv-x="1980" 
d="M89 0l0.00195312 54h163v974h-163v54h210l7 -223c32.667 76.667 79.667 136.334 141 179.001s136 64 224 64c93.333 0 169.166 -23.833 227.499 -71.5s98.5 -121.167 120.5 -220.5c28.667 92 75.5 163.833 140.5 215.5s146.167 77.5 243.5 77.5
c119.333 0 210 -39 272 -117s93 -200.667 93 -368v-563h163v-54h-381v54h163v565c0 156.667 -28 267.334 -84 332.001s-130.667 97 -224 97c-114.667 0 -201.334 -34.5 -260.001 -103.5s-94.667 -156.833 -108 -263.5v-628h163v-54h-381v54h163v565
c0 157.333 -28 268.166 -84 332.499s-131 96.5 -225 96.5c-112 0 -197 -32.833 -255 -98.5s-95 -150.834 -111 -255.501v-640h163v-54h-381z" />
    <glyph glyph-name="n" unicode="n" horiz-adv-x="1320" 
d="M89 0l-0.000976562 54.001h163v974h-163v54h209l7 -223c32.667 77.333 80.334 137.166 143.001 179.499s140 63.5 232 63.5c118 0 206.5 -37.167 265.5 -111.5s88.5 -192.166 88.5 -353.499v-583h163v-54h-380v54h163v585c0 150 -26.833 255.667 -80.5 317
s-126.5 92 -218.5 92c-116.667 0 -204.667 -34.833 -264 -104.5s-96.333 -158.834 -111 -267.501v-622h163v-54h-380z" />
    <glyph glyph-name="o" unicode="o" horiz-adv-x="1155" 
d="M579 -21c-94 0 -176.667 23 -248 69s-127 109.667 -167 191s-60 175 -60 281v42c0 106 20 199.5 60 280.5s95.5 144.5 166.5 190.5s153.167 69 246.5 69c94 0 176.5 -23 247.5 -69s126.5 -109.5 166.5 -190.5s60 -174.5 60 -280.5v-42c0 -106 -20 -199.667 -60 -281
s-95.5 -145 -166.5 -191s-152.833 -69 -245.5 -69zM579 33c84.667 0 158.333 21.833 221 65.5s111.167 102.334 145.5 176.001s51.5 155.5 51.5 245.5v42c0 88.667 -17.333 169.834 -52 243.501s-83.5 132.5 -146.5 176.5s-136.833 66 -221.5 66s-158.5 -22 -221.5 -66
s-111.667 -102.833 -146 -176.5s-51.5 -154.834 -51.5 -243.501v-42c0 -90.667 17.167 -172.834 51.5 -246.501s83 -132.167 146 -175.5s137.5 -65 223.5 -65z" />
    <glyph glyph-name="p" unicode="p" horiz-adv-x="1161" 
d="M65 -416l0.000976562 54h163v1390h-163v54h205l11 -194c36 66.667 85 119 147 157s135.667 57 221 57c84.667 0 157.5 -22.833 218.5 -68.5s107.833 -110.5 140.5 -194.5s49 -183 49 -297v-21c0 -111.333 -16.167 -207.5 -48.5 -288.5s-78.833 -143.5 -139.5 -187.5
s-133.334 -66 -218.001 -66s-158.5 17 -221.5 51s-112.167 80 -147.5 138v-530h163v-54h-380zM652.001 33c114 0 200.831 44.001 260.498 132.001s89.5 206.667 89.5 356v21c0 100 -13.5 188 -40.5 264s-66.667 135.333 -119 178s-116.5 64 -192.5 64
c-104.667 0 -186 -26.333 -244 -79s-99.333 -117.334 -124 -194.001v-506c26.667 -72 71.334 -129.333 134.001 -172s141.334 -64 236.001 -64z" />
    <glyph glyph-name="q" unicode="q" horiz-adv-x="1136" 
d="M716 -416v53.999h163v532c-36 -58.667 -85.333 -105.167 -148 -139.5s-136.334 -51.5 -221.001 -51.5s-157.334 22 -218.001 66s-107.167 106.5 -139.5 187.5s-48.5 177.167 -48.5 288.5v21c0 114 16.167 213 48.5 297s79 148.833 140 194.5s134.167 68.5 219.5 68.5
c84.667 0 157.834 -19.167 219.501 -57.5s110.834 -91.166 147.501 -158.499l5 196h49v-1444h163v-54h-380zM509 32.999c95.333 0 174.168 21.833 236.501 65.5s106.833 102.167 133.5 175.5v494c-25.333 76.667 -67.333 142.5 -126 197.5s-139.334 82.5 -242.001 82.5
c-76.667 0 -141 -21.333 -193 -64s-91.333 -102 -118 -178s-40 -164 -40 -264v-21c0 -149.333 29.5 -268 88.5 -356s145.833 -132 260.5 -132z" />
    <glyph glyph-name="r" unicode="r" horiz-adv-x="823" 
d="M89 0v54.001h163v974h-163v54h207l10 -188v-37c30 77.333 74.667 137.5 134 180.5s132.333 64.5 219 64.5c15.333 0 32.833 -1.33301 52.5 -4s34.167 -5.33398 43.5 -8.00098l-6 -48l-90 7c-96.667 0 -175.167 -31.167 -235.5 -93.5s-99.5 -144.5 -117.5 -246.5v-655h163
v-54h-380z" />
    <glyph glyph-name="s" unicode="s" horiz-adv-x="1009" 
d="M487 -21c-78.667 0 -151.166 12.668 -217.499 38.001s-121.833 60.333 -166.5 105v193h54v-163c39.333 -42 88 -72.333 146 -91s119.333 -28 184 -28c100 0 179.333 23.333 238 70s88 100.667 88 162c0 57.333 -24.5 109.5 -73.5 156.5s-134.5 83.833 -256.5 110.5
c-127.333 26.667 -218.166 61.667 -272.499 105s-81.5 106.333 -81.5 189c0 52 14 98.833 42 140.5s68.167 74.667 120.5 99s114.5 36.5 186.5 36.5c77.333 0 145.5 -13.333 204.5 -40s108.833 -62.334 149.5 -107.001v-202h-54v175
c-34.667 38.667 -75.667 68.334 -123 89.001s-106.333 31 -177 31c-98 0 -171.667 -22.667 -221 -68s-74 -96 -74 -152c0 -38.667 8.16699 -72.667 24.5 -102s47.166 -55.5 92.499 -78.5s111.666 -44.167 198.999 -63.5c121.333 -26.667 213 -65 275 -115
s93 -118.333 93 -205c0 -84.667 -34.667 -153.334 -104 -206.001s-161.333 -79 -276 -79z" />
    <glyph glyph-name="t" unicode="t" horiz-adv-x="719" 
d="M487 -21c-72.667 0 -127.833 23.6699 -165.5 71.0029s-56.5 123.666 -56.5 228.999v748h-200v55h200v292h55v-292h266v-55h-266v-748c0 -88.667 15 -151.834 45 -189.501s69.667 -56.5 119 -56.5c21.333 0 40.333 0.666992 57 2s39.667 3.66602 69 6.99902l10 -49
c-20 -5.33301 -40.5 -9 -61.5 -11s-44.833 -3 -71.5 -3z" />
    <glyph glyph-name="u" unicode="u" horiz-adv-x="1202" 
d="M533 -21c-109.333 0 -194.333 39.501 -255 118.501s-91 201.5 -91 367.5v563h-143v54h143h54v-619c0 -146.667 25.833 -255 77.5 -325s122.5 -105 212.5 -105c112.667 0 197.5 27.667 254.5 83s93.833 128.666 110.5 219.999v692h-163v54h163h55v-1028h163v-54h-208
l-8 194c-34 -68.667 -80.833 -121.667 -140.5 -159s-134.5 -56 -224.5 -56z" />
    <glyph glyph-name="v" unicode="v" horiz-adv-x="1165" 
d="M569 0l-399 1028h-118v54h318v-54h-142l313 -799l51 -146h6l52 146l312 799h-142v54h318v-54h-118l-399 -1028h-52z" />
    <glyph glyph-name="w" unicode="w" horiz-adv-x="1787" 
d="M492 0l-318 1028h-122v54h332v-54h-148l217 -715l65 -221l6 -1l70 222l257 769h55l264 -769l75 -223l6 1l67 222l216 715h-148v54h333v-54h-123l-319 -1028h-55l-282 813l-59 181h-6l-55 -181l-273 -813h-55z" />
    <glyph glyph-name="x" unicode="x" horiz-adv-x="1192" 
d="M82 0v54h126l361 501l-341 473h-126v54h318v-54h-124l307 -426l306 426h-124v54h318v-54h-126l-341 -473l361 -501h126v-54h-317v54h124l-328 454l-327 -454h124v-54h-317z" />
    <glyph glyph-name="y" unicode="y" horiz-adv-x="1185" 
d="M283 -437c-12.667 0 -26.667 1.16895 -42 3.50195s-26.666 4.83301 -33.999 7.5l9 51c7.33301 -2 18.333 -4 33 -6s26 -3 34 -3c61.333 0 109.166 18 143.499 54s64.833 89.333 91.5 160l65 176l-410 1022h-118v54h319v-54h-142l335 -832l40 -108h6l359 940h-142v54h320
v-54h-118l-460 -1208c-19.333 -50.667 -40.5 -95.334 -63.5 -134.001s-52.167 -68.834 -87.5 -90.501s-81.333 -32.5 -138 -32.5z" />
    <glyph glyph-name="z" unicode="z" horiz-adv-x="1077" 
d="M120 0v44l711 983h-656v-238h-54v293h783v-48l-711 -980h716v239h54v-293h-843z" />
    <glyph glyph-name="braceleft" unicode="{" horiz-adv-x="693" 
d="M632 -441c-115.333 36.667 -197.333 94.333 -246 173s-73 174.667 -73 288v245c0 88 -20.333 156.333 -61 205s-103.667 73 -189 73v66c85.333 0 148.333 24 189 72s61 116 61 204v247c0 114 24.333 210.833 73 290.5s130.667 137.834 246 174.501l15 -45
c-95.333 -30.667 -165.833 -82.5 -211.5 -155.5s-68.5 -161.167 -68.5 -264.5v-247c0 -80 -17.333 -147.333 -52 -202s-87.667 -90.334 -159 -107.001c71.333 -17.333 124.333 -53.666 159 -108.999s52 -122.666 52 -201.999v-245c0 -102.667 23.5 -189.334 70.5 -260.001
s118.5 -122.334 214.5 -155.001z" />
    <glyph glyph-name="bar" unicode="|" horiz-adv-x="405" 
d="M150 -270v1726h54v-1726h-54z" />
    <glyph glyph-name="braceright" unicode="}" horiz-adv-x="692" 
d="M46 -441l-18.999 46c95.333 32.667 166.5 84.334 213.5 155.001s70.5 157.334 70.5 260.001v245c0 79.333 17.167 146.666 51.5 201.999s87.5 91.666 159.5 108.999c-72 16.667 -125.167 52.334 -159.5 107.001s-51.5 122 -51.5 202v247
c0 103.333 -22.833 191.5 -68.5 264.5s-115.834 124.833 -210.501 155.5l14 45c114.667 -36.667 196.5 -94.834 245.5 -174.501s73.5 -176.5 73.5 -290.5v-247c0 -88 20.333 -156 61 -204s103.667 -72 189 -72v-66c-85.333 0 -148.333 -24.5 -189 -73.5
s-61 -117.167 -61 -204.5v-245c0 -114 -24.333 -210.167 -73 -288.5s-130.667 -135.833 -246 -172.5z" />
    <glyph glyph-name="asciitilde" unicode="~" horiz-adv-x="1368" 
d="M952 443c-58 0 -110.828 12.668 -158.495 38.001s-101.834 65.666 -162.501 120.999c-45.333 39.333 -87.833 68.833 -127.5 88.5s-79.834 29.5 -120.501 29.5c-59.333 0 -108 -22.667 -146 -68s-57 -108.666 -57 -189.999l-59 12c0 56.667 11.167 107.667 33.5 153
s53.166 81.166 92.499 107.499s84.666 39.5 135.999 39.5c57.333 0 110.166 -13.167 158.499 -39.5s103.166 -66.5 164.499 -120.5c44.667 -41.333 86.334 -71.333 125.001 -90s79 -28 121 -28c57.333 0 105.5 23.5 144.5 70.5s58.5 109.167 58.5 186.5l61 -13
c0 -54 -11.5 -103.5 -34.5 -148.5s-54.5 -81 -94.5 -108s-85 -40.5 -135 -40.5z" />
    <glyph glyph-name="uni00A0" unicode="&#xa0;" horiz-adv-x="490" 
 />
    <glyph glyph-name="exclamdown" unicode="&#xa1;" horiz-adv-x="437" 
d="M219 604v-978h54v978h-54zM199 1082v-134h95v134h-95z" />
    <glyph glyph-name="cent" unicode="&#xa2;" horiz-adv-x="1063" 
d="M576 -245l0.00195312 224.001c-91.333 1.33301 -169.333 24.666 -234 69.999s-114.334 108.333 -149.001 189s-52 174.667 -52 282v42c0 106.667 17.333 200.334 52 281.001s84.5 143.667 149.5 189s142.833 68.666 233.5 69.999v216h55v-218
c70.667 -6.66699 136 -26.5 196 -59.5s109 -74.833 147 -125.5v-232h-54v212c-38 46.667 -85.833 83.834 -143.5 111.501s-122.834 41.5 -195.501 41.5c-84.667 0 -155.667 -20.667 -213 -62s-100.5 -98.5 -129.5 -171.5s-43.5 -157.167 -43.5 -252.5v-42
c0 -96 14.5 -180.667 43.5 -254s72.333 -130.5 130 -171.5s129.167 -61.5 214.5 -61.5c60.667 0 117.5 11.167 170.5 33.5s95.667 55.666 128 99.999s48.5 99.833 48.5 166.5h46l2 -6c2 -64.667 -12.667 -121.667 -44 -171s-73.5 -89 -126.5 -119
s-111.833 -48.333 -176.5 -55v-227h-55z" />
    <glyph glyph-name="sterling" unicode="&#xa3;" horiz-adv-x="1151" 
d="M132 0l0.000976562 53.999h10c39.333 7.33301 72.166 32.333 98.499 75s46 94.334 59 155.001s19.5 121.334 19.5 182.001l-8 201h-243v54h241l-11 319c0 136 33.667 242.833 101 320.5s157.333 116.5 270 116.5c116.667 0 202 -34 256 -102s80 -161.333 78 -280l-2 -5
h-47c0 117.333 -24.5 202.166 -73.5 254.499s-119.5 78.5 -211.5 78.5c-98 0 -175.333 -33.333 -232 -100s-85 -161 -85 -283l11 -319h478v-54h-476l8 -201c0 -83.333 -12 -161.833 -36 -235.5s-58 -132.5 -102 -176.5h755v239h54v-293h-912z" />
    <glyph glyph-name="currency" unicode="&#xa4;" horiz-adv-x="1461" 
d="M1319 -27l-179.999 183.003c-54.667 -56 -117.5 -99.333 -188.5 -130s-146.167 -46 -225.5 -46c-80 0 -155.5 15.167 -226.5 45.5s-133.833 73.166 -188.5 128.499l-176 -180l-40 39l179 182c-46 56 -81.5 119.167 -106.5 189.5s-37.5 144.833 -37.5 223.5
c0 81.333 13.333 158.166 40 230.499s64.667 136.833 114 193.5l-189 193l40 39l188 -192c53.333 51.333 114.5 91.166 183.5 119.499s142.167 42.5 219.5 42.5c76 0 148.5 -14.333 217.5 -43s130.833 -69 185.5 -121l191 195l41 -40l-193 -196
c48 -56.667 85.333 -121 112 -193s40 -148 40 -228c0 -78 -12.333 -151.833 -37 -221.5s-59.334 -132.167 -104.001 -187.5l182 -186zM725.001 33.0029c74 0 143.5 14.833 208.5 44.5s122.333 71 172 124s88.667 114.167 117 183.5s42.5 143.666 42.5 222.999
s-14.167 153.5 -42.5 222.5s-67.333 129.833 -117 182.5s-107 93.834 -172 123.501s-134.5 44.5 -208.5 44.5s-143.667 -14.833 -209 -44.5s-123 -70.834 -173 -123.501s-89 -113.5 -117 -182.5s-42 -143.167 -42 -222.5s14 -153.666 42 -222.999s67 -130.5 117 -183.5
s107.667 -94.333 173 -124s135 -44.5 209 -44.5z" />
    <glyph glyph-name="yen" unicode="&#xa5;" horiz-adv-x="1381" 
d="M499 0v54h163v272h-450v55h450v240h-450v55h421l-453 726h-121v54h315v-54h-129l418 -664l24 -51h5l24 51l417 664h-129v54h316v-54h-121l-455 -726h424v-55h-452v-240h452v-55h-452v-272h163v-54h-380z" />
    <glyph glyph-name="brokenbar" unicode="&#xa6;" horiz-adv-x="432" 
d="M150 -270v752h54v-752h-54zM150 698v758h54v-758h-54z" />
    <glyph glyph-name="section" unicode="&#xa7;" horiz-adv-x="1197" 
d="M569 -495c-91.333 0 -173.499 15.0029 -246.499 45.0029s-130.5 76.5 -172.5 139.5s-62 143.5 -60 241.5l2 5l46 2c0 -88.667 19.5 -160.834 58.5 -216.501s91.167 -96.667 156.5 -123s137.333 -39.5 216 -39.5c123.333 0 220 26.833 290 80.5s105 123.5 105 209.5
c0 53.333 -11.333 98.666 -34 135.999s-62.167 70.166 -118.5 98.499s-134.833 55.833 -235.5 82.5c-108.667 26 -199 55.333 -271 88s-125.833 72.834 -161.5 120.501s-53.5 106.5 -53.5 176.5c0 72 25.333 131.667 76 179s121 78 211 92
c-81.333 32 -142 72.167 -182 120.5s-60 110.833 -60 187.5c0 70 18.667 131 56 183s89.833 92.333 157.5 121s147.167 43 238.5 43c142.667 0 253.667 -37.167 333 -111.5s117.666 -178.833 114.999 -313.5l-2 -6h-46c0 72 -16 136.5 -48 193.5
s-77.833 101.833 -137.5 134.5s-131.167 49 -214.5 49c-131.333 0 -230.5 -27.167 -297.5 -81.5s-100.5 -123.833 -100.5 -208.5c0 -56 11 -102.833 33 -140.5s61.667 -71 119 -100s138.666 -58.5 243.999 -88.5c112 -28.667 203.167 -58.334 273.5 -89.001
s122 -68.334 155 -113.001s49.5 -101.667 49.5 -171c0 -70 -27.333 -128.667 -82 -176s-128.667 -77.666 -222 -90.999c87.333 -33.333 152.5 -74 195.5 -122s64.5 -111.667 64.5 -191c0 -107.333 -40.667 -191.833 -122 -253.5s-190.666 -92.5 -327.999 -92.5z
M662.001 196.003c107.333 0.666992 191.999 23.001 253.999 67.001s93 99 93 165c0 54.667 -13.5 101.167 -40.5 139.5s-73.167 73 -138.5 104s-155.666 62.5 -270.999 94.5c-20 4 -39 8.5 -57 13.5s-35 10.5 -51 16.5c-101.333 -4.66699 -177.833 -29.334 -229.5 -74.001
s-77.5 -101 -77.5 -169c0 -58 12.167 -105.5 36.5 -142.5s68.833 -70.333 133.5 -100s157.667 -61.5 279 -95.5c11.333 -2.66699 22.833 -5.66699 34.5 -9z" />
    <glyph glyph-name="dieresis" unicode="&#xa8;" horiz-adv-x="472" 
d="M360 1422v138h72v-138h-72zM40 1422v138h73v-138h-73z" />
    <glyph glyph-name="copyright" unicode="&#xa9;" horiz-adv-x="1596" 
d="M802 -21c-98 0 -190.001 19.167 -276.001 57.5s-161.5 91.5 -226.5 159.5s-115.833 147.5 -152.5 238.5s-55 189.167 -55 294.5s18.333 203.166 55 293.499s87.334 169.5 152.001 237.5s140 121 226 159s178.333 57 277 57c98 0 190 -19 276 -57s161.5 -91 226.5 -159
s115.833 -147.167 152.5 -237.5s55 -188.166 55 -293.499s-18.333 -203.5 -55 -294.5s-87.5 -170.5 -152.5 -238.5s-140.5 -121.167 -226.5 -159.5s-178 -57.5 -276 -57.5zM801.999 34c90 0 174.333 17.833 253 53.5s148.167 85.334 208.5 149.001s107.5 137.5 141.5 221.5
s51 174.333 51 271c0 96 -17 186 -51 270s-81 157.5 -141 220.5s-129.5 112.333 -208.5 148s-163.5 53.5 -253.5 53.5s-174.667 -17.833 -254 -53.5s-148.833 -85 -208.5 -148s-106.5 -136.5 -140.5 -220.5s-51 -174 -51 -270c0 -96.667 17 -187 51 -271
s80.833 -157.833 140.5 -221.5s129.167 -113.334 208.5 -149.001s164 -53.5 254 -53.5zM794.999 282c-96 0 -173.334 35.666 -232.001 106.999s-88 164.666 -88 279.999v119c0 114.667 29.5 207.834 88.5 279.501s136.167 107.5 231.5 107.5
c92.667 0 165.334 -26.5 218.001 -79.5s78 -128.833 76 -227.5l-3 -6h-44c0 86 -21.333 150.833 -64 194.5s-103.667 65.5 -183 65.5c-82 0 -146.667 -31.667 -194 -95s-71 -142.666 -71 -237.999v-120c0 -96.667 23.5 -176.167 70.5 -238.5s111.833 -93.5 194.5 -93.5
c80 0 141 21.167 183 63.5s63 107.5 63 195.5h44l3 -6c2 -100 -23.167 -176.333 -75.5 -229s-124.833 -79 -217.5 -79z" />
    <glyph glyph-name="ordfeminine" unicode="&#xaa;" horiz-adv-x="860" 
d="M355 692c-79.333 0 -140.665 20.335 -183.998 61.002s-65 96.334 -65 167.001c0 67.333 24.667 119.666 74 156.999s121 56 215 56h220v69c0 70 -17 124.333 -51 163s-83.333 58 -148 58c-76 0 -134.5 -15.667 -175.5 -47s-61.5 -77.333 -61.5 -138l-46 5l-2 6
c-3.33301 65.333 21.5 119.666 74.5 162.999s123.167 65 210.5 65c76.667 0 138.167 -23.833 184.5 -71.5s69.5 -115.834 69.5 -204.501v-314c0 -32 2 -62.833 6 -92.5s10.667 -59.167 20 -88.5h-58c-6.66699 18.667 -11.834 38.167 -15.501 58.5
s-5.83398 40.833 -6.50098 61.5c-26.667 -38.667 -62.167 -70.667 -106.5 -96s-95.833 -38 -154.5 -38zM356.001 747.002c38.667 0 76.168 7.33203 112.501 21.999s67.666 33.667 93.999 57s43.833 48 52.5 74v177h-219c-75.333 0 -133.5 -14.667 -174.5 -44
s-61.5 -65.666 -61.5 -108.999c0 -56 16 -99.5 48 -130.5s81.333 -46.5 148 -46.5z" />
    <glyph glyph-name="guillemotleft" unicode="&#xab;" horiz-adv-x="905" 
d="M400 146l-295 370v19l295 370h70l-294 -380l294 -379h-70zM687 146l-295 370v19l295 370h70l-294 -380l294 -379h-70z" />
    <glyph glyph-name="logicalnot" unicode="&#xac;" horiz-adv-x="1104" 
d="M860 396v304h-739v53h793v-357h-54z" />
    <glyph glyph-name="uni00AD" unicode="&#xad;" horiz-adv-x="789" 
d="M154 599v54h470v-54h-470z" />
    <glyph glyph-name="registered" unicode="&#xae;" horiz-adv-x="1595" 
d="M802 -21c-98.667 0 -191 19.167 -277 57.5s-161.333 91.5 -226 159.5s-115.334 147.5 -152.001 238.5s-55 189.167 -55 294.5s18.333 203.166 55 293.499s87.334 169.5 152.001 237.5s140 121 226 159s178.333 57 277 57c98 0 190 -19 276 -57s161.5 -91 226.5 -159
s115.833 -147.167 152.5 -237.5s55 -188.166 55 -293.499s-18.333 -203.5 -55 -294.5s-87.5 -170.5 -152.5 -238.5s-140.5 -121.167 -226.5 -159.5s-178 -57.5 -276 -57.5zM802 34c90 0 174.333 17.833 253 53.5s148.167 85.334 208.5 149.001s107.5 137.5 141.5 221.5
s51 174.333 51 271c0 96 -17 186 -51 270s-81 157.5 -141 220.5s-129.5 112.333 -208.5 148s-163.5 53.5 -253.5 53.5s-174.667 -17.833 -254 -53.5s-149 -85 -209 -148s-107 -136.5 -141 -220.5s-51 -174 -51 -270c0 -96.667 17 -187 51 -271s81 -157.833 141 -221.5
s129.667 -113.334 209 -149.001s164 -53.5 254 -53.5zM570 316v850.002h239c95.333 0 167.333 -20.333 216 -61s73 -100.334 73 -179.001c0 -48.667 -13.333 -90.334 -40 -125.001s-64.334 -61.667 -113.001 -81c46.667 -14.667 80.334 -39.834 101.001 -75.501
s31 -78.834 31 -129.501v-56c0 -25.333 1.33301 -49.166 4 -71.499s7 -40.833 13 -55.5v-16h-59c-6.66699 14 -10.667 34.5 -12 61.5s-2 54.5 -2 82.5v54c0 62.667 -14 107.334 -42 134.001s-75.333 40 -142 40h-212v-372h-55zM625 744.002h204.999
c60.667 0 111.334 16 152.001 48s61 77 61 135c0 64 -17.5 110.667 -52.5 140s-95.5 44 -181.5 44h-184v-367z" />
    <glyph glyph-name="macron" unicode="&#xaf;" horiz-adv-x="707" 
d="M40 1420v53h627v-53h-627z" />
    <glyph glyph-name="degree" unicode="&#xb0;" horiz-adv-x="739" 
d="M360 1000c-43.333 0 -82.833 10.5 -118.5 31.5s-64.167 49.333 -85.5 85s-32 75.834 -32 120.501c0 43.333 10.667 83.166 32 119.499s49.833 65.5 85.5 87.5s75.167 33 118.5 33c42 0 80.667 -11 116 -33s63.5 -51.167 84.5 -87.5s31.5 -76.166 31.5 -119.499
c0 -44.667 -10.5 -84.834 -31.5 -120.501s-49.167 -64 -84.5 -85s-74 -31.5 -116 -31.5zM360 1056c50.667 0 92.667 17 126 51s50 77.667 50 131c0 52.667 -16.667 96.5 -50 131.5s-75.333 52.5 -126 52.5c-52 0 -95.167 -17.667 -129.5 -53s-51.5 -79.333 -51.5 -132
s17.167 -96 51.5 -130s77.5 -51 129.5 -51z" />
    <glyph glyph-name="plusminus" unicode="&#xb1;" horiz-adv-x="1104" 
d="M536 289v462h-443v54h443v462h54v-462h419v-54h-419v-462h-54zM133 88v54h835v-54h-835z" />
    <glyph glyph-name="uni00B2" unicode="&#xb2;" horiz-adv-x="807" 
d="M657 667l0.00195312 55.0039h-475l-2 6l265 235c40.667 39.333 75.167 75.166 103.5 107.499s49.833 63.166 64.5 92.499s22 59.666 22 90.999c0 73.333 -22.167 129.166 -66.5 167.499s-104.833 57.5 -181.5 57.5c-55.333 0 -103.333 -10.5 -144 -31.5
s-71.834 -49 -93.501 -84s-31.5 -73.5 -29.5 -115.5l3 -6h48c0 53.333 18.667 97 56 131s90.666 51 159.999 51c64 0 112 -15.167 144 -45.5s48 -71.5 48 -123.5c0 -34 -10.5 -68 -31.5 -102s-59.167 -77.667 -114.5 -131l-327 -300v-55h551z" />
    <glyph glyph-name="uni00B3" unicode="&#xb3;" horiz-adv-x="831" 
d="M376 1103l-114.001 0.000976562v-56h114c73.333 0 128.5 -13.333 165.5 -40s55.5 -68.667 55.5 -126c0 -53.333 -19.333 -95.166 -58 -125.499s-93.334 -45.5 -164.001 -45.5c-67.333 0 -121.833 16.667 -163.5 50s-62.5 76 -62.5 128h-48l-2 -6
c-2 -48.667 9.33301 -90 34 -124s58.334 -59.667 101.001 -77s89.667 -26 141 -26c82 0 148.833 20.167 200.5 60.5s77.5 96.166 77.5 167.499c0 100 -50.333 164.333 -151 193c43.333 16 77 40 101 72s36 68.333 36 109c0 70.667 -23.667 125.167 -71 163.5
s-111.666 57.5 -192.999 57.5c-76 0 -139.667 -20 -191 -60s-75 -91.333 -71 -154l2 -6h46c0 49.333 20.333 89.166 61 119.499s91.667 45.5 153 45.5c69.333 0 121.5 -15 156.5 -45s52.5 -69.333 52.5 -118c0 -104.667 -69.333 -157 -208 -157z" />
    <glyph glyph-name="acute" unicode="&#xb4;" horiz-adv-x="326" 
d="M40 1329l180 231h64l2 -5l-199 -231h-45z" />
    <glyph glyph-name="uni00B5" unicode="&#xb5;" horiz-adv-x="1282" 
d="M229 -416l-0.000976562 1444h-163v54h163h52v-642c0 -148.667 28.333 -253.667 85 -315s130.334 -92 221.001 -92c122.667 0 212 31 268 93s90 149.667 102 263v639h-163v54h217v-1028h163v-54h-204l-11 205c-32 -72.667 -78 -128.5 -138 -167.5s-135 -58.5 -225 -58.5
c-68.667 0 -130.5 15 -185.5 45s-98.167 79 -129.5 147v-587h-52z" />
    <glyph glyph-name="paragraph" unicode="&#xb6;" horiz-adv-x="1044" 
d="M532 0l0.000976562 54.001h163v466h-125c-104 0 -192.667 19.667 -266 59s-129.333 94.166 -168 164.499s-58 151.833 -58 244.5c0 92 19.5 173.167 58.5 243.5s95.167 125.333 168.5 165s161.666 59.5 264.999 59.5h342v-54h-163v-1348h163v-54h-380z" />
    <glyph glyph-name="periodcentered" unicode="&#xb7;" horiz-adv-x="480" 
d="M176 636v130h86v-130h-86z" />
    <glyph glyph-name="cedilla" unicode="&#xb8;" horiz-adv-x="470" 
d="M47 -435l-7 49c69.333 0 129.5 12 180.5 36s76.5 59 76.5 105c0 42.667 -15.167 72.334 -45.5 89.001s-84.833 28.334 -163.5 35.001l25 121h53l-11 -76c60.667 -4.66699 108.667 -19.834 144 -45.501s53 -66.834 53 -123.501c0 -58 -26.333 -104.167 -79 -138.5
s-128 -51.5 -226 -51.5z" />
    <glyph glyph-name="uni00B9" unicode="&#xb9;" horiz-adv-x="471" 
d="M308 665v812l-220 -23v-56l166 14v-747h54z" />
    <glyph glyph-name="ordmasculine" unicode="&#xba;" horiz-adv-x="904" 
d="M427 691c-94 0 -168.499 30.833 -223.499 92.5s-82.5 142.167 -82.5 241.5v117c0 98.667 27.333 179.167 82 241.5s128.667 93.5 222 93.5s167.5 -31.167 222.5 -93.5s82.5 -142.833 82.5 -241.5v-117c0 -99.333 -27.333 -179.833 -82 -241.5
s-128.334 -92.5 -221.001 -92.5zM427.001 745c80 0 141.666 26.167 184.999 78.5s65 119.5 65 201.5v117c0 81.333 -21.667 148.5 -65 201.5s-105.666 79.5 -186.999 79.5c-80.667 0 -142.5 -26.5 -185.5 -79.5s-64.5 -120.167 -64.5 -201.5v-117
c0 -83.333 21 -150.833 63 -202.5s105 -77.5 189 -77.5z" />
    <glyph glyph-name="guillemotright" unicode="&#xbb;" horiz-adv-x="897" 
d="M105 171l293 379l-293 390h70l294 -380v-19l-294 -370h-70zM395 171l293 379l-293 390h70l294 -380v-19l-294 -370h-70z" />
    <glyph glyph-name="onequarter" unicode="&#xbc;" horiz-adv-x="1533" 
d="M316 664v747l-166 -14v56l220 23v-812h-54zM338 139l-45 31l711 1138l45 -31zM1190 0v186h-442v36l435 579h62v-560h176v-55h-176v-186h-55zM831 241h359v481l-6 2l-36 -60z" />
    <glyph glyph-name="onehalf" unicode="&#xbd;" horiz-adv-x="1447" 
d="M350 139l-45 31l711 1138l45 -31zM316 664v747l-166 -14v56l220 23v-812h-54zM887 0l-0.00195312 54.9961l327 300c55.333 53.333 93.5 97 114.5 131s31.5 68 31.5 102c0 52 -16 93.167 -48 123.5s-80 45.5 -144 45.5c-69.333 0 -122.666 -17 -159.999 -51
s-56 -77.667 -56 -131h-48l-3 6c-2 42 7.83301 80.5 29.5 115.5s52.834 63 93.501 84s88.667 31.5 144 31.5c76.667 0 137.167 -19.167 181.5 -57.5s66.5 -94.166 66.5 -167.499c0 -31.333 -7.33301 -61.666 -22 -90.999s-36.167 -60.166 -64.5 -92.499
s-62.833 -68.166 -103.5 -107.499l-265 -235l2 -6h475v-55h-551z" />
    <glyph glyph-name="threequarters" unicode="&#xbe;" horiz-adv-x="1653" 
d="M565 139l-45 31l711 1138l45 -31zM1415 0v186h-442v36l435 579h62v-560h176v-55h-176v-186h-55zM1056 241h359v481l-6 2l-36 -60zM407 656c-51.333 0 -98.332 8.66602 -140.999 25.999s-76.334 43 -101.001 77s-36 75.333 -34 124l2 6h48c0 -52 20.833 -94.667 62.5 -128
s96.167 -50 163.5 -50c70.667 0 125.334 15.167 164.001 45.5s58 72.166 58 125.499c0 57.333 -18.5 99.333 -55.5 126s-92.167 40 -165.5 40h-114v56h114c138.667 0 208 52.333 208 157c0 48.667 -17.5 88 -52.5 118s-87.167 45 -156.5 45
c-61.333 0 -112.333 -15.167 -153 -45.5s-61 -70.166 -61 -119.499h-46l-2 6c-4 62.667 19.667 114 71 154s115 60 191 60c81.333 0 145.666 -19.167 192.999 -57.5s71 -92.833 71 -163.5c0 -40.667 -12 -77 -36 -109s-57.667 -56 -101 -72
c100.667 -28.667 151 -93 151 -193c0 -71.333 -25.833 -127.166 -77.5 -167.499s-118.5 -60.5 -200.5 -60.5z" />
    <glyph glyph-name="questiondown" unicode="&#xbf;" horiz-adv-x="839" 
d="M464 683c0 -39.333 -1.33105 -71.832 -3.99805 -97.499s-8.16699 -48.334 -16.5 -68.001s-20.833 -39.167 -37.5 -58.5s-39 -42 -67 -68c-54 -51.333 -97.667 -96.833 -131 -136.5s-57.666 -81.167 -72.999 -124.5s-23 -96.333 -23 -159
c0 -97.333 26 -173.666 78 -228.999s125.667 -83 221 -83c94.667 0 168 28.167 220 84.5s79 130.833 81 223.5h46l3 -6c0.666992 -75.333 -13.833 -139.5 -43.5 -192.5s-71 -93.333 -124 -121s-113.833 -41.5 -182.5 -41.5c-109.333 0 -195.5 33.667 -258.5 101
s-94.5 156 -94.5 266c0 62.667 9.16699 119.167 27.5 169.5s46.166 98.5 83.499 144.5s84.666 94.667 141.999 146c28.667 25.333 50.167 48.666 64.5 69.999s23.666 45.5 27.999 72.5s6.5 62.833 6.5 107.5h54zM468.002 1083v-106h-82v106h82z" />
    <glyph glyph-name="Agrave" unicode="&#xc0;" horiz-adv-x="1472" 
d="M55 0v54h107l524 1402h66l525 -1402h107v-54h-309v54h143l-143 381h-712l-142 -381h143v-54h-309zM383 489h672l-305 820l-28 82h-6l-27 -82zM779 1592l-2 -5h-45l-199 231l2 5h64z" />
    <glyph glyph-name="Aacute" unicode="&#xc1;" horiz-adv-x="1472" 
d="M55 0v54h107l524 1402h66l525 -1402h107v-54h-309v54h143l-143 381h-712l-142 -381h143v-54h-309zM383 489h672l-305 820l-28 82h-6l-27 -82zM659 1592l180 231h64l2 -5l-199 -231h-45z" />
    <glyph glyph-name="Acircumflex" unicode="&#xc2;" horiz-adv-x="1472" 
d="M55 0v54h107l524 1402h66l525 -1402h107v-54h-309v54h143l-143 381h-712l-142 -381h143v-54h-309zM383 489h672l-305 820l-28 82h-6l-27 -82zM467 1600v17l218 206h65l221 -210v-13h-60l-195 186l-190 -186h-59z" />
    <glyph glyph-name="Atilde" unicode="&#xc3;" horiz-adv-x="1472" 
d="M55 0v54h107l524 1402h66l525 -1402h107v-54h-309v54h143l-143 381h-712l-142 -381h143v-54h-309zM383 489h672l-305 820l-28 82h-6l-27 -82zM452 1635h-52.9971c0 36.667 7.5 68.5 22.5 95.5s35 48.167 60 63.5s52.5 23 82.5 23c38.667 0 76.167 -10.333 112.5 -31
s71.166 -41.5 104.499 -62.5s64.666 -31.5 93.999 -31.5c27.333 0 52.5 11.5 75.5 34.5s34.5 55.167 34.5 96.5h53c0 -36 -7.33301 -68 -22 -96s-34 -49.833 -58 -65.5s-50.667 -23.5 -80 -23.5c-38 0 -75.167 10.5 -111.5 31.5l-105.5 63c-34 21 -66.667 31.5 -98 31.5
c-28.667 0 -54.334 -11 -77.001 -33s-34 -54 -34 -96z" />
    <glyph glyph-name="Adieresis" unicode="&#xc4;" horiz-adv-x="1472" 
d="M55 0v54h107l524 1402h66l525 -1402h107v-54h-309v54h143l-143 381h-712l-142 -381h143v-54h-309zM383 489h672l-305 820l-28 82h-6l-27 -82zM842 1685v138h72v-138h-72zM522 1685v138h73v-138h-73z" />
    <glyph glyph-name="Aring" unicode="&#xc5;" horiz-adv-x="1472" 
d="M55 0v54h107l524 1402h66l525 -1402h107v-54h-309v54h143l-143 381h-712l-142 -381h143v-54h-309zM383 489h672l-305 820l-28 82h-6l-27 -82zM719 1475c-48 0 -88.5 16.167 -121.5 48.5s-49.5 72.833 -49.5 121.5c0 49.333 16.5 90.666 49.5 123.999s73.5 50 121.5 50
c47.333 0 87.666 -16.667 120.999 -50s50 -74.666 50 -123.999c0 -48.667 -16.667 -89.167 -50 -121.5s-73.666 -48.5 -120.999 -48.5zM719 1529c34 0 62 10.667 84 32s33 49.333 33 84c0 35.333 -11 64.166 -33 86.499s-50 33.5 -84 33.5s-62 -11.167 -84 -33.5
s-33 -51.166 -33 -86.499c0 -34.667 11 -62.667 33 -84s50 -32 84 -32z" />
    <glyph glyph-name="AE" unicode="&#xc6;" horiz-adv-x="2026" 
d="M51 0v54h119l849 1402h776v-293h-54v239h-642l26 -616h588v-54h-586l28 -678h647v239h54v-293h-915v54h160l-15 371h-628l-223 -371h131v-54h-315zM490 478h594l-39 924l-5 1l-57 -105z" />
    <glyph glyph-name="Ccedilla" unicode="&#xc7;" horiz-adv-x="1348" 
d="M794 -21c-141.333 0 -261.499 31.167 -360.499 93.5s-174.333 149 -226 260s-77.5 239.833 -77.5 386.5v18c0 146.667 26.667 275.5 80 386.5s127.833 197.667 223.5 260s206.834 93.5 333.501 93.5c105.333 0 191.666 -13.333 258.999 -40s130.666 -66 189.999 -118
v-257h-55v234c-36 27.333 -72.167 50.333 -108.5 69s-77 33 -122 43s-99.5 15 -163.5 15c-114.667 0 -215.834 -28.667 -303.501 -86s-156.167 -137.333 -205.5 -240s-74 -222 -74 -358v-20c0 -136 24.167 -255.5 72.5 -358.5s117.833 -183.333 208.5 -241
s199.334 -86.5 326.001 -86.5c73.333 0 144 9.33301 212 28s125.667 44 173 76v235h55v-269c-62.667 -42 -130.667 -73.167 -204 -93.5s-151 -30.5 -233 -30.5zM629.001 -435l-7 49c69.333 0 129.5 12 180.5 36s76.5 59 76.5 105c0 42.667 -15.167 72.334 -45.5 89.001
s-84.833 28.334 -163.5 35.001l25 121h53l-11 -76c60.667 -4.66699 108.667 -19.834 144 -45.501s53 -66.834 53 -123.501c0 -58 -26.333 -104.167 -79 -138.5s-128 -51.5 -226 -51.5z" />
    <glyph glyph-name="Egrave" unicode="&#xc8;" horiz-adv-x="1270" 
d="M71 0v54h163v1348h-163v54h1019v-293h-54v239h-748v-616h630v-54h-630v-678h778v239h54v-293h-1049zM695 1592l-2 -5h-45l-199 231l2 5h64z" />
    <glyph glyph-name="Eacute" unicode="&#xc9;" horiz-adv-x="1270" 
d="M71 0v54h163v1348h-163v54h1019v-293h-54v239h-748v-616h630v-54h-630v-678h778v239h54v-293h-1049zM575 1592l180 231h64l2 -5l-199 -231h-45z" />
    <glyph glyph-name="Ecircumflex" unicode="&#xca;" horiz-adv-x="1270" 
d="M71 0v54h163v1348h-163v54h1019v-293h-54v239h-748v-616h630v-54h-630v-678h778v239h54v-293h-1049zM383 1600v17l218 206h65l221 -210v-13h-60l-195 186l-190 -186h-59z" />
    <glyph glyph-name="Edieresis" unicode="&#xcb;" horiz-adv-x="1270" 
d="M71 0v54h163v1348h-163v54h1019v-293h-54v239h-748v-616h630v-54h-630v-678h778v239h54v-293h-1049zM758 1685v138h72v-138h-72zM438 1685v138h73v-138h-73z" />
    <glyph glyph-name="Igrave" unicode="&#xcc;" horiz-adv-x="522" 
d="M71 0v54h163v1348h-163v54h380v-54h-163v-1348h163v-54h-380zM321 1592l-2 -5h-45l-199 231l2 5h64z" />
    <glyph glyph-name="Iacute" unicode="&#xcd;" horiz-adv-x="522" 
d="M71 0v54h163v1348h-163v54h380v-54h-163v-1348h163v-54h-380zM201 1592l180 231h64l2 -5l-199 -231h-45z" />
    <glyph glyph-name="Icircumflex" unicode="&#xce;" horiz-adv-x="522" 
d="M71 0v54h163v1348h-163v54h380v-54h-163v-1348h163v-54h-380zM9 1600v17l218 206h65l221 -210v-13h-60l-195 186l-190 -186h-59z" />
    <glyph glyph-name="Idieresis" unicode="&#xcf;" horiz-adv-x="522" 
d="M71 0v54h163v1348h-163v54h380v-54h-163v-1348h163v-54h-380zM384 1685v138h72v-138h-72zM64 1685v138h73v-138h-73z" />
    <glyph glyph-name="Eth" unicode="&#xd0;" horiz-adv-x="1386" 
d="M71 0v54h163v1348h-163v54h163h395c119.333 0 225.5 -30.833 318.5 -92.5s166.333 -146.5 220 -254.5s80.5 -232 80.5 -372v-18c0 -140 -26.833 -264 -80.5 -372s-127 -192.833 -220 -254.5s-199.167 -92.5 -318.5 -92.5h-558zM288 54l341 -0.000976562
c108.667 0 205.5 28.833 290.5 86.5s152 136.667 201 237s73.5 214.166 73.5 341.499v21c0 126.667 -24.5 239.834 -73.5 339.501s-116 178.334 -201 236.001s-181.833 86.5 -290.5 86.5h-341v-1348zM71 715.999v54h521v-54h-521z" />
    <glyph glyph-name="Ntilde" unicode="&#xd1;" horiz-adv-x="1517" 
d="M71 0v54h163v1348h-163v54h163h55l934 -1353l6 2v1297h-163v54h217h163v-54h-163v-1402h-54l-934 1356l-6 -2v-1300h163v-54h-381zM492 1635h-52.9971c0 36.667 7.5 68.5 22.5 95.5s35 48.167 60 63.5s52.5 23 82.5 23c38.667 0 76.167 -10.333 112.5 -31
s71.166 -41.5 104.499 -62.5s64.666 -31.5 93.999 -31.5c27.333 0 52.5 11.5 75.5 34.5s34.5 55.167 34.5 96.5h53c0 -36 -7.33301 -68 -22 -96s-34 -49.833 -58 -65.5s-50.667 -23.5 -80 -23.5c-38 0 -75.167 10.5 -111.5 31.5l-105.5 63c-34 21 -66.667 31.5 -98 31.5
c-28.667 0 -54.334 -11 -77.001 -33s-34 -54 -34 -96z" />
    <glyph glyph-name="Ograve" unicode="&#xd2;" horiz-adv-x="1488" 
d="M740 -21c-90.667 0 -173.331 17.5 -247.998 52.5s-139 85 -193 150s-95.667 142.833 -125 233.5s-44 192 -44 304v18c0 112 14.5 213.333 43.5 304s70.5 168.5 124.5 233.5s118.167 115 192.5 150s156.833 52.5 247.5 52.5c90 0 172.333 -17.5 247 -52.5
s139.167 -85 193.5 -150s96.166 -142.833 125.499 -233.5s44 -192 44 -304v-18c0 -112 -14.667 -213.5 -44 -304.5s-70.833 -168.833 -124.5 -233.5s-117.834 -114.5 -192.501 -149.5s-157 -52.5 -247 -52.5zM740.003 33c112.667 0 210.501 28.333 293.501 85
s147.167 136.5 192.5 239.5s68 223.5 68 361.5v20c0 137.333 -22.833 257.333 -68.5 360s-110.167 182.334 -193.5 239.001s-181.333 85 -294 85c-112 0 -209.333 -28.333 -292 -85s-146.834 -136.334 -192.501 -239.001s-68.5 -222.667 -68.5 -360v-20
c0 -138 22.833 -258.5 68.5 -361.5s110 -182.833 193 -239.5s180.833 -85 293.5 -85zM798.004 1592l-2 -5h-45l-199 231l2 5h64z" />
    <glyph glyph-name="Oacute" unicode="&#xd3;" horiz-adv-x="1488" 
d="M740 -21c-90.667 0 -173.331 17.5 -247.998 52.5s-139 85 -193 150s-95.667 142.833 -125 233.5s-44 192 -44 304v18c0 112 14.5 213.333 43.5 304s70.5 168.5 124.5 233.5s118.167 115 192.5 150s156.833 52.5 247.5 52.5c90 0 172.333 -17.5 247 -52.5
s139.167 -85 193.5 -150s96.166 -142.833 125.499 -233.5s44 -192 44 -304v-18c0 -112 -14.667 -213.5 -44 -304.5s-70.833 -168.833 -124.5 -233.5s-117.834 -114.5 -192.501 -149.5s-157 -52.5 -247 -52.5zM740.003 33c112.667 0 210.501 28.333 293.501 85
s147.167 136.5 192.5 239.5s68 223.5 68 361.5v20c0 137.333 -22.833 257.333 -68.5 360s-110.167 182.334 -193.5 239.001s-181.333 85 -294 85c-112 0 -209.333 -28.333 -292 -85s-146.834 -136.334 -192.501 -239.001s-68.5 -222.667 -68.5 -360v-20
c0 -138 22.833 -258.5 68.5 -361.5s110 -182.833 193 -239.5s180.833 -85 293.5 -85zM678.004 1592l180 231h64l2 -5l-199 -231h-45z" />
    <glyph glyph-name="Ocircumflex" unicode="&#xd4;" horiz-adv-x="1488" 
d="M740 -21c-90.667 0 -173.331 17.5 -247.998 52.5s-139 85 -193 150s-95.667 142.833 -125 233.5s-44 192 -44 304v18c0 112 14.5 213.333 43.5 304s70.5 168.5 124.5 233.5s118.167 115 192.5 150s156.833 52.5 247.5 52.5c90 0 172.333 -17.5 247 -52.5
s139.167 -85 193.5 -150s96.166 -142.833 125.499 -233.5s44 -192 44 -304v-18c0 -112 -14.667 -213.5 -44 -304.5s-70.833 -168.833 -124.5 -233.5s-117.834 -114.5 -192.501 -149.5s-157 -52.5 -247 -52.5zM740.003 33c112.667 0 210.501 28.333 293.501 85
s147.167 136.5 192.5 239.5s68 223.5 68 361.5v20c0 137.333 -22.833 257.333 -68.5 360s-110.167 182.334 -193.5 239.001s-181.333 85 -294 85c-112 0 -209.333 -28.333 -292 -85s-146.834 -136.334 -192.501 -239.001s-68.5 -222.667 -68.5 -360v-20
c0 -138 22.833 -258.5 68.5 -361.5s110 -182.833 193 -239.5s180.833 -85 293.5 -85zM486.004 1600v17l218 206h65l221 -210v-13h-60l-195 186l-190 -186h-59z" />
    <glyph glyph-name="Otilde" unicode="&#xd5;" horiz-adv-x="1488" 
d="M740 -21c-90.667 0 -173.331 17.5 -247.998 52.5s-139 85 -193 150s-95.667 142.833 -125 233.5s-44 192 -44 304v18c0 112 14.5 213.333 43.5 304s70.5 168.5 124.5 233.5s118.167 115 192.5 150s156.833 52.5 247.5 52.5c90 0 172.333 -17.5 247 -52.5
s139.167 -85 193.5 -150s96.166 -142.833 125.499 -233.5s44 -192 44 -304v-18c0 -112 -14.667 -213.5 -44 -304.5s-70.833 -168.833 -124.5 -233.5s-117.834 -114.5 -192.501 -149.5s-157 -52.5 -247 -52.5zM740.003 33c112.667 0 210.501 28.333 293.501 85
s147.167 136.5 192.5 239.5s68 223.5 68 361.5v20c0 137.333 -22.833 257.333 -68.5 360s-110.167 182.334 -193.5 239.001s-181.333 85 -294 85c-112 0 -209.333 -28.333 -292 -85s-146.834 -136.334 -192.501 -239.001s-68.5 -222.667 -68.5 -360v-20
c0 -138 22.833 -258.5 68.5 -361.5s110 -182.833 193 -239.5s180.833 -85 293.5 -85zM471.004 1635h-52.9971c0 36.667 7.5 68.5 22.5 95.5s35 48.167 60 63.5s52.5 23 82.5 23c38.667 0 76.167 -10.333 112.5 -31s71.166 -41.5 104.499 -62.5s64.666 -31.5 93.999 -31.5
c27.333 0 52.5 11.5 75.5 34.5s34.5 55.167 34.5 96.5h53c0 -36 -7.33301 -68 -22 -96s-34 -49.833 -58 -65.5s-50.667 -23.5 -80 -23.5c-38 0 -75.167 10.5 -111.5 31.5l-105.5 63c-34 21 -66.667 31.5 -98 31.5c-28.667 0 -54.334 -11 -77.001 -33s-34 -54 -34 -96z" />
    <glyph glyph-name="Odieresis" unicode="&#xd6;" horiz-adv-x="1488" 
d="M740 -21c-90.667 0 -173.331 17.5 -247.998 52.5s-139 85 -193 150s-95.667 142.833 -125 233.5s-44 192 -44 304v18c0 112 14.5 213.333 43.5 304s70.5 168.5 124.5 233.5s118.167 115 192.5 150s156.833 52.5 247.5 52.5c90 0 172.333 -17.5 247 -52.5
s139.167 -85 193.5 -150s96.166 -142.833 125.499 -233.5s44 -192 44 -304v-18c0 -112 -14.667 -213.5 -44 -304.5s-70.833 -168.833 -124.5 -233.5s-117.834 -114.5 -192.501 -149.5s-157 -52.5 -247 -52.5zM740.003 33c112.667 0 210.501 28.333 293.501 85
s147.167 136.5 192.5 239.5s68 223.5 68 361.5v20c0 137.333 -22.833 257.333 -68.5 360s-110.167 182.334 -193.5 239.001s-181.333 85 -294 85c-112 0 -209.333 -28.333 -292 -85s-146.834 -136.334 -192.501 -239.001s-68.5 -222.667 -68.5 -360v-20
c0 -138 22.833 -258.5 68.5 -361.5s110 -182.833 193 -239.5s180.833 -85 293.5 -85zM861.004 1685v138h72v-138h-72zM541.004 1685v138h73v-138h-73z" />
    <glyph glyph-name="multiply" unicode="&#xd7;" horiz-adv-x="1044" 
d="M118 252l-39 37l384 393l-357 364l39 39l356 -364l357 364l39 -39l-357 -364l385 -393l-39 -37l-384 391z" />
    <glyph glyph-name="Oslash" unicode="&#xd8;" horiz-adv-x="1488" 
d="M740 -21c-90.667 0 -173.331 17.5 -247.998 52.5s-139 85 -193 150s-95.667 142.833 -125 233.5s-44 192 -44 304v18c0 112 14.5 213.333 43.5 304s70.5 168.5 124.5 233.5s118.167 115 192.5 150s156.833 52.5 247.5 52.5c90 0 172.333 -17.5 247 -52.5
s139.167 -85 193.5 -150s96.166 -142.833 125.499 -233.5s44 -192 44 -304v-18c0 -112 -14.667 -213.5 -44 -304.5s-70.833 -168.833 -124.5 -233.5s-117.834 -114.5 -192.501 -149.5s-157 -52.5 -247 -52.5zM740.003 33c112.667 0 210.501 28.333 293.501 85
s147.167 136.5 192.5 239.5s68 223.5 68 361.5v20c0 137.333 -22.833 257.333 -68.5 360s-110.167 182.334 -193.5 239.001s-181.333 85 -294 85c-112 0 -209.333 -28.333 -292 -85s-146.834 -136.334 -192.501 -239.001s-68.5 -222.667 -68.5 -360v-20
c0 -138 22.833 -258.5 68.5 -361.5s110 -182.833 193 -239.5s180.833 -85 293.5 -85zM212.004 -57l997 1570h66l-997 -1570h-66z" />
    <glyph glyph-name="Ugrave" unicode="&#xd9;" horiz-adv-x="1441" 
d="M721 -21c-99.333 0 -186.335 18.834 -261.002 56.501s-132.834 93 -174.501 166s-62.5 162.167 -62.5 267.5v933h-163v54h380v-54h-163v-933c0 -91.333 18.833 -169.5 56.5 -234.5s89.834 -114.833 156.501 -149.5s143.667 -52 231 -52
c86.667 0 163.334 17.333 230.001 52s118.834 84.5 156.501 149.5s56.5 143.167 56.5 234.5v933h-163v54h380v-54h-163v-933c0 -106 -21 -195.333 -63 -268s-100.333 -127.834 -175 -165.501s-161 -56.5 -259 -56.5zM780.998 1592l-2 -5h-45l-199 231l2 5h64z" />
    <glyph glyph-name="Uacute" unicode="&#xda;" horiz-adv-x="1441" 
d="M721 -21c-99.333 0 -186.335 18.834 -261.002 56.501s-132.834 93 -174.501 166s-62.5 162.167 -62.5 267.5v933h-163v54h380v-54h-163v-933c0 -91.333 18.833 -169.5 56.5 -234.5s89.834 -114.833 156.501 -149.5s143.667 -52 231 -52
c86.667 0 163.334 17.333 230.001 52s118.834 84.5 156.501 149.5s56.5 143.167 56.5 234.5v933h-163v54h380v-54h-163v-933c0 -106 -21 -195.333 -63 -268s-100.333 -127.834 -175 -165.501s-161 -56.5 -259 -56.5zM660.998 1592l180 231h64l2 -5l-199 -231h-45z" />
    <glyph glyph-name="Ucircumflex" unicode="&#xdb;" horiz-adv-x="1441" 
d="M721 -21c-99.333 0 -186.335 18.834 -261.002 56.501s-132.834 93 -174.501 166s-62.5 162.167 -62.5 267.5v933h-163v54h380v-54h-163v-933c0 -91.333 18.833 -169.5 56.5 -234.5s89.834 -114.833 156.501 -149.5s143.667 -52 231 -52
c86.667 0 163.334 17.333 230.001 52s118.834 84.5 156.501 149.5s56.5 143.167 56.5 234.5v933h-163v54h380v-54h-163v-933c0 -106 -21 -195.333 -63 -268s-100.333 -127.834 -175 -165.501s-161 -56.5 -259 -56.5zM468.998 1600v17l218 206h65l221 -210v-13h-60l-195 186
l-190 -186h-59z" />
    <glyph glyph-name="Udieresis" unicode="&#xdc;" horiz-adv-x="1441" 
d="M721 -21c-99.333 0 -186.335 18.834 -261.002 56.501s-132.834 93 -174.501 166s-62.5 162.167 -62.5 267.5v933h-163v54h380v-54h-163v-933c0 -91.333 18.833 -169.5 56.5 -234.5s89.834 -114.833 156.501 -149.5s143.667 -52 231 -52
c86.667 0 163.334 17.333 230.001 52s118.834 84.5 156.501 149.5s56.5 143.167 56.5 234.5v933h-163v54h380v-54h-163v-933c0 -106 -21 -195.333 -63 -268s-100.333 -127.834 -175 -165.501s-161 -56.5 -259 -56.5zM843.998 1685v138h72v-138h-72zM523.998 1685v138h73
v-138h-73z" />
    <glyph glyph-name="Yacute" unicode="&#xdd;" horiz-adv-x="1429" 
d="M526 0v54h163v499l-515 849h-119v54h326v-54h-141l449 -755l26 -50l1 2l26 48l451 755h-141v54h326v-54h-120l-514 -849v-499h163v-54h-381zM655 1592l180 231h64l2 -5l-199 -231h-45z" />
    <glyph glyph-name="Thorn" unicode="&#xde;" horiz-adv-x="1240" 
d="M70 0v53.999h163v1348h-163v54h217h163v-54h-163v-259h371c141.333 0 251.666 -37.667 330.999 -113s119 -172.666 119 -291.999c0 -120 -39.667 -217.333 -119 -292s-189.666 -112 -330.999 -112h-371v-280h163v-54h-380zM287 387.999h371
c86.667 0 159.334 16 218.001 48s103 74.5 133 127.5s45 110.5 45 172.5c0 64 -14.833 122.833 -44.5 176.5s-73.834 96.5 -132.501 128.5s-131.667 48 -219 48h-371v-701z" />
    <glyph glyph-name="germandbls" unicode="&#xdf;" horiz-adv-x="1243" 
d="M778 -21c-38.667 0 -78.6709 4.00195 -120.004 12.002s-79.166 18.833 -113.499 32.5s-60.5 28.5 -78.5 44.5l25 49c28 -22.667 68.833 -42.5 122.5 -59.5s105.834 -25.5 156.501 -25.5c85.333 0 155.333 23.833 210 71.5s82 108.5 82 182.5c0 50 -13 94 -39 132
s-58.167 73.167 -96.5 105.5l-115 98.5c-38.333 33.333 -70.5 70 -96.5 110s-39 86.667 -39 140c0 33.333 6 68.5 18 105.5s25.833 74.667 41.5 113s29.5 76.333 41.5 114s18 73.834 18 108.501c0 60.667 -21.333 111.5 -64 152.5s-101.667 61.5 -177 61.5
c-84.667 0 -152.834 -29.167 -204.501 -87.5s-77.5 -141.833 -77.5 -250.5v-1189h-217v54h163v1135c0 84 13.333 155.167 40 213.5s64.834 102.666 114.501 132.999s109.5 45.5 179.5 45.5c56.667 0 107.334 -11 152.001 -33s80 -53 106 -93s39 -87.333 39 -142
c0 -40.667 -6 -80.667 -18 -120s-25.833 -77.5 -41.5 -114.5s-29.5 -73 -41.5 -108s-18 -68.5 -18 -100.5c0 -45.333 13 -85.833 39 -121.5s58.167 -69.334 96.5 -101.001l115 -98.5c38.333 -34 70.5 -72 96.5 -114s39 -91.667 39 -149
c0 -64.667 -16.333 -119.834 -49 -165.501s-74.667 -80.667 -126 -105s-105.666 -36.5 -162.999 -36.5z" />
    <glyph glyph-name="agrave" unicode="&#xe0;" horiz-adv-x="1116" 
d="M417 -21c-94.667 0 -170.498 27.166 -227.498 81.499s-85.5 125.5 -85.5 213.5c0 64.667 19.5 121.834 58.5 171.501s94 88.5 165 116.5s154.5 42 250.5 42h249v138c0 90 -26 163.667 -78 221s-133.667 86 -245 86c-58.667 0 -112.334 -11 -161.001 -33
s-90 -48.667 -124 -80v-177h-54v206c44.667 41.333 94.5 74.5 149.5 99.5s118.5 37.5 190.5 37.5c124.667 0 218.5 -32.5 281.5 -97.5s94.5 -153.167 94.5 -264.5v-522c0 -28 1.16699 -55.667 3.5 -83s6.16602 -54.333 11.499 -81h150v-54h-197
c-8.66699 47.333 -14.5 83.5 -17.5 108.5s-4.5 55.167 -4.5 90.5c-40.667 -65.333 -96.5 -118.333 -167.5 -159s-151.833 -61 -242.5 -61zM417.002 31.999c82 0 161.332 23.001 237.999 69.001s134 109.667 172 191v257h-246c-127.333 0 -229.666 -25.833 -306.999 -77.5
s-116 -118.834 -116 -201.501c0 -67.333 24.333 -123.833 73 -169.5s110.667 -68.5 186 -68.5zM575.001 1329l-2 -5h-45l-199 231l2 5h64z" />
    <glyph glyph-name="aacute" unicode="&#xe1;" horiz-adv-x="1116" 
d="M417 -21c-94.667 0 -170.498 27.166 -227.498 81.499s-85.5 125.5 -85.5 213.5c0 64.667 19.5 121.834 58.5 171.501s94 88.5 165 116.5s154.5 42 250.5 42h249v138c0 90 -26 163.667 -78 221s-133.667 86 -245 86c-58.667 0 -112.334 -11 -161.001 -33
s-90 -48.667 -124 -80v-177h-54v206c44.667 41.333 94.5 74.5 149.5 99.5s118.5 37.5 190.5 37.5c124.667 0 218.5 -32.5 281.5 -97.5s94.5 -153.167 94.5 -264.5v-522c0 -28 1.16699 -55.667 3.5 -83s6.16602 -54.333 11.499 -81h150v-54h-197
c-8.66699 47.333 -14.5 83.5 -17.5 108.5s-4.5 55.167 -4.5 90.5c-40.667 -65.333 -96.5 -118.333 -167.5 -159s-151.833 -61 -242.5 -61zM417.002 31.999c82 0 161.332 23.001 237.999 69.001s134 109.667 172 191v257h-246c-127.333 0 -229.666 -25.833 -306.999 -77.5
s-116 -118.834 -116 -201.501c0 -67.333 24.333 -123.833 73 -169.5s110.667 -68.5 186 -68.5zM455.001 1329l180 231h64l2 -5l-199 -231h-45z" />
    <glyph glyph-name="acircumflex" unicode="&#xe2;" horiz-adv-x="1116" 
d="M417 -21c-94.667 0 -170.498 27.166 -227.498 81.499s-85.5 125.5 -85.5 213.5c0 64.667 19.5 121.834 58.5 171.501s94 88.5 165 116.5s154.5 42 250.5 42h249v138c0 90 -26 163.667 -78 221s-133.667 86 -245 86c-58.667 0 -112.334 -11 -161.001 -33
s-90 -48.667 -124 -80v-177h-54v206c44.667 41.333 94.5 74.5 149.5 99.5s118.5 37.5 190.5 37.5c124.667 0 218.5 -32.5 281.5 -97.5s94.5 -153.167 94.5 -264.5v-522c0 -28 1.16699 -55.667 3.5 -83s6.16602 -54.333 11.499 -81h150v-54h-197
c-8.66699 47.333 -14.5 83.5 -17.5 108.5s-4.5 55.167 -4.5 90.5c-40.667 -65.333 -96.5 -118.333 -167.5 -159s-151.833 -61 -242.5 -61zM417.002 31.999c82 0 161.332 23.001 237.999 69.001s134 109.667 172 191v257h-246c-127.333 0 -229.666 -25.833 -306.999 -77.5
s-116 -118.834 -116 -201.501c0 -67.333 24.333 -123.833 73 -169.5s110.667 -68.5 186 -68.5zM263.001 1337v17l218 206h65l221 -210v-13h-60l-195 186l-190 -186h-59z" />
    <glyph glyph-name="atilde" unicode="&#xe3;" horiz-adv-x="1116" 
d="M417 -21c-94.667 0 -170.498 27.166 -227.498 81.499s-85.5 125.5 -85.5 213.5c0 64.667 19.5 121.834 58.5 171.501s94 88.5 165 116.5s154.5 42 250.5 42h249v138c0 90 -26 163.667 -78 221s-133.667 86 -245 86c-58.667 0 -112.334 -11 -161.001 -33
s-90 -48.667 -124 -80v-177h-54v206c44.667 41.333 94.5 74.5 149.5 99.5s118.5 37.5 190.5 37.5c124.667 0 218.5 -32.5 281.5 -97.5s94.5 -153.167 94.5 -264.5v-522c0 -28 1.16699 -55.667 3.5 -83s6.16602 -54.333 11.499 -81h150v-54h-197
c-8.66699 47.333 -14.5 83.5 -17.5 108.5s-4.5 55.167 -4.5 90.5c-40.667 -65.333 -96.5 -118.333 -167.5 -159s-151.833 -61 -242.5 -61zM417.002 31.999c82 0 161.332 23.001 237.999 69.001s134 109.667 172 191v257h-246c-127.333 0 -229.666 -25.833 -306.999 -77.5
s-116 -118.834 -116 -201.501c0 -67.333 24.333 -123.833 73 -169.5s110.667 -68.5 186 -68.5zM248.001 1372h-52.9971c0 36.667 7.5 68.5 22.5 95.5s35 48.167 60 63.5s52.5 23 82.5 23c38.667 0 76.167 -10.333 112.5 -31s71.166 -41.5 104.499 -62.5
s64.666 -31.5 93.999 -31.5c27.333 0 52.5 11.5 75.5 34.5s34.5 55.167 34.5 96.5h53c0 -36 -7.33301 -68 -22 -96s-34 -49.833 -58 -65.5s-50.667 -23.5 -80 -23.5c-38 0 -75.167 10.5 -111.5 31.5l-105.5 63c-34 21 -66.667 31.5 -98 31.5
c-28.667 0 -54.334 -11 -77.001 -33s-34 -54 -34 -96z" />
    <glyph glyph-name="adieresis" unicode="&#xe4;" horiz-adv-x="1116" 
d="M417 -21c-94.667 0 -170.498 27.166 -227.498 81.499s-85.5 125.5 -85.5 213.5c0 64.667 19.5 121.834 58.5 171.501s94 88.5 165 116.5s154.5 42 250.5 42h249v138c0 90 -26 163.667 -78 221s-133.667 86 -245 86c-58.667 0 -112.334 -11 -161.001 -33
s-90 -48.667 -124 -80v-177h-54v206c44.667 41.333 94.5 74.5 149.5 99.5s118.5 37.5 190.5 37.5c124.667 0 218.5 -32.5 281.5 -97.5s94.5 -153.167 94.5 -264.5v-522c0 -28 1.16699 -55.667 3.5 -83s6.16602 -54.333 11.499 -81h150v-54h-197
c-8.66699 47.333 -14.5 83.5 -17.5 108.5s-4.5 55.167 -4.5 90.5c-40.667 -65.333 -96.5 -118.333 -167.5 -159s-151.833 -61 -242.5 -61zM417.002 31.999c82 0 161.332 23.001 237.999 69.001s134 109.667 172 191v257h-246c-127.333 0 -229.666 -25.833 -306.999 -77.5
s-116 -118.834 -116 -201.501c0 -67.333 24.333 -123.833 73 -169.5s110.667 -68.5 186 -68.5zM638.001 1422v138h72v-138h-72zM318.001 1422v138h73v-138h-73z" />
    <glyph glyph-name="aring" unicode="&#xe5;" horiz-adv-x="1116" 
d="M417 -21c-94.667 0 -170.498 27.166 -227.498 81.499s-85.5 125.5 -85.5 213.5c0 64.667 19.5 121.834 58.5 171.501s94 88.5 165 116.5s154.5 42 250.5 42h249v138c0 90 -26 163.667 -78 221s-133.667 86 -245 86c-58.667 0 -112.334 -11 -161.001 -33
s-90 -48.667 -124 -80v-177h-54v206c44.667 41.333 94.5 74.5 149.5 99.5s118.5 37.5 190.5 37.5c124.667 0 218.5 -32.5 281.5 -97.5s94.5 -153.167 94.5 -264.5v-522c0 -28 1.16699 -55.667 3.5 -83s6.16602 -54.333 11.499 -81h150v-54h-197
c-8.66699 47.333 -14.5 83.5 -17.5 108.5s-4.5 55.167 -4.5 90.5c-40.667 -65.333 -96.5 -118.333 -167.5 -159s-151.833 -61 -242.5 -61zM417.002 31.999c82 0 161.332 23.001 237.999 69.001s134 109.667 172 191v257h-246c-127.333 0 -229.666 -25.833 -306.999 -77.5
s-116 -118.834 -116 -201.501c0 -67.333 24.333 -123.833 73 -169.5s110.667 -68.5 186 -68.5zM515.001 1212c-48 0 -88.5 16.167 -121.5 48.5s-49.5 72.833 -49.5 121.5c0 49.333 16.5 90.666 49.5 123.999s73.5 50 121.5 50c47.333 0 87.666 -16.667 120.999 -50
s50 -74.666 50 -123.999c0 -48.667 -16.667 -89.167 -50 -121.5s-73.666 -48.5 -120.999 -48.5zM515.001 1266c34 0 62 10.667 84 32s33 49.333 33 84c0 35.333 -11 64.166 -33 86.499s-50 33.5 -84 33.5s-62 -11.167 -84 -33.5s-33 -51.166 -33 -86.499
c0 -34.667 11 -62.667 33 -84s50 -32 84 -32z" />
    <glyph glyph-name="ae" unicode="&#xe6;" horiz-adv-x="1795" 
d="M417 -21c-94.667 0 -170.499 28.501 -227.499 85.501s-85.5 131.5 -85.5 223.5c0 68 19.5 127.833 58.5 179.5s94 92 165 121s154.5 43.5 250.5 43.5h249v110c0 90 -26 163.667 -78 221s-133.667 86 -245 86c-58.667 0 -112.334 -11 -161.001 -33s-90 -48.667 -124 -80
v-177h-54v206c44.667 41.333 94.5 74.5 149.5 99.5s118.5 37.5 190.5 37.5c109.333 0 194.833 -24.333 256.5 -73s98.834 -115.334 111.501 -200.001c18 53.333 46.667 100.5 86 141.5s85.5 73.167 138.5 96.5s108.5 35 166.5 35c84 0 156.167 -17.833 216.5 -53.5
s106.666 -86.5 138.999 -152.5s48.5 -144.667 48.5 -236v-83h-787v-77c0 -138.667 33 -251.167 99 -337.5s165.667 -129.5 299 -129.5c68 0 130.167 11.5 186.5 34.5s104.833 55.167 145.5 96.5l30 -42c-43.333 -44 -92.833 -78.833 -148.5 -104.5
s-126.834 -38.5 -213.501 -38.5c-193.333 0 -329.666 89.667 -408.999 269c-46.667 -80.667 -109 -145.667 -187 -195s-166.667 -74 -266 -74zM417.001 32.001c56 0 111.5 11 166.5 33s105.333 53.667 151 95s81.5 91 107.5 149
c-4.66699 31.333 -8.33398 63.166 -11.001 95.499s-4 64.833 -4 97.5v75h-246c-127.333 0 -229.666 -27.167 -306.999 -81.5s-116 -124.833 -116 -211.5c0 -71.333 24.333 -131.166 73 -179.499s110.667 -72.5 186 -72.5zM883.001 632.001l731 0.000976562v32
c0 112 -30.5 204 -91.5 276s-147.167 108 -258.5 108c-72 0 -135.833 -17.833 -191.5 -53.5s-100 -84.334 -133 -146.001s-52.5 -132.167 -58.5 -211.5z" />
    <glyph glyph-name="ccedilla" unicode="&#xe7;" horiz-adv-x="1082" 
d="M540 -21c-82.667 0 -157.002 22.665 -223.002 67.998s-118 108.5 -156 189.5s-57 175.5 -57 283.5v42c0 108 18.5 202.5 55.5 283.5s88.167 144 153.5 189s140.333 67.5 225 67.5c81.333 0 154.5 -17.167 219.5 -51.5s119.167 -76.166 162.5 -125.499v-232h-54v212
c-42.667 45.333 -91 80.5 -145 105.5s-114.667 37.5 -182 37.5c-76 0 -142.667 -20.667 -200 -62s-101.833 -98.5 -133.5 -171.5s-47.5 -157.167 -47.5 -252.5v-42c0 -96 16 -180.667 48 -254s76.833 -130.5 134.5 -171.5s125.167 -61.5 202.5 -61.5
c92.667 0 170.5 23.667 233.5 71s100.5 120.333 112.5 219h46l2 -6c-8 -74 -29.667 -136.167 -65 -186.5s-81.166 -88.166 -137.499 -113.499s-121.166 -38 -194.499 -38zM422.998 -435.002l-7 49c69.333 0 129.5 12 180.5 36s76.5 59 76.5 105
c0 42.667 -15.167 72.334 -45.5 89.001s-84.833 28.334 -163.5 35.001l25 121h53l-11 -76c60.667 -4.66699 108.667 -19.834 144 -45.501s53 -66.834 53 -123.501c0 -58 -26.333 -104.167 -79 -138.5s-128 -51.5 -226 -51.5z" />
    <glyph glyph-name="egrave" unicode="&#xe8;" horiz-adv-x="1084" 
d="M564 -21c-86.667 0 -163.999 22.167 -231.999 66.5s-121.667 105.666 -161 183.999s-59 168.5 -59 270.5v64c0 103.333 19 195.5 57 276.5s90.167 144.833 156.5 191.5s141.5 70 225.5 70c81.333 0 152.5 -18.167 213.5 -54.5s108.333 -87.5 142 -153.5
s50.5 -144 50.5 -234v-83h-791v-77c0 -89.333 17 -169.166 51 -239.499s81 -125.833 141 -166.5s128.667 -61 206 -61c68.667 0 129.5 11.833 182.5 35.5s100.167 55.834 141.5 96.501l29 -42c-44.667 -42.667 -95.334 -77.334 -152.001 -104.001s-123.667 -40 -201 -40z
M177.001 631h726v33c0 73.333 -14.5 139 -43.5 197s-69.833 103.667 -122.5 137s-114.667 50 -186 50c-68 0 -129.333 -18 -184 -54s-99 -85 -133 -147s-54 -132 -60 -210zM613.001 1329l-2 -5h-45l-199 231l2 5h64z" />
    <glyph glyph-name="eacute" unicode="&#xe9;" horiz-adv-x="1084" 
d="M564 -21c-86.667 0 -163.999 22.167 -231.999 66.5s-121.667 105.666 -161 183.999s-59 168.5 -59 270.5v64c0 103.333 19 195.5 57 276.5s90.167 144.833 156.5 191.5s141.5 70 225.5 70c81.333 0 152.5 -18.167 213.5 -54.5s108.333 -87.5 142 -153.5
s50.5 -144 50.5 -234v-83h-791v-77c0 -89.333 17 -169.166 51 -239.499s81 -125.833 141 -166.5s128.667 -61 206 -61c68.667 0 129.5 11.833 182.5 35.5s100.167 55.834 141.5 96.501l29 -42c-44.667 -42.667 -95.334 -77.334 -152.001 -104.001s-123.667 -40 -201 -40z
M177.001 631h726v33c0 73.333 -14.5 139 -43.5 197s-69.833 103.667 -122.5 137s-114.667 50 -186 50c-68 0 -129.333 -18 -184 -54s-99 -85 -133 -147s-54 -132 -60 -210zM493.001 1329l180 231h64l2 -5l-199 -231h-45z" />
    <glyph glyph-name="ecircumflex" unicode="&#xea;" horiz-adv-x="1084" 
d="M564 -21c-86.667 0 -163.999 22.167 -231.999 66.5s-121.667 105.666 -161 183.999s-59 168.5 -59 270.5v64c0 103.333 19 195.5 57 276.5s90.167 144.833 156.5 191.5s141.5 70 225.5 70c81.333 0 152.5 -18.167 213.5 -54.5s108.333 -87.5 142 -153.5
s50.5 -144 50.5 -234v-83h-791v-77c0 -89.333 17 -169.166 51 -239.499s81 -125.833 141 -166.5s128.667 -61 206 -61c68.667 0 129.5 11.833 182.5 35.5s100.167 55.834 141.5 96.501l29 -42c-44.667 -42.667 -95.334 -77.334 -152.001 -104.001s-123.667 -40 -201 -40z
M177.001 631h726v33c0 73.333 -14.5 139 -43.5 197s-69.833 103.667 -122.5 137s-114.667 50 -186 50c-68 0 -129.333 -18 -184 -54s-99 -85 -133 -147s-54 -132 -60 -210zM301.001 1337v17l218 206h65l221 -210v-13h-60l-195 186l-190 -186h-59z" />
    <glyph glyph-name="edieresis" unicode="&#xeb;" horiz-adv-x="1084" 
d="M564 -21c-86.667 0 -163.999 22.167 -231.999 66.5s-121.667 105.666 -161 183.999s-59 168.5 -59 270.5v64c0 103.333 19 195.5 57 276.5s90.167 144.833 156.5 191.5s141.5 70 225.5 70c81.333 0 152.5 -18.167 213.5 -54.5s108.333 -87.5 142 -153.5
s50.5 -144 50.5 -234v-83h-791v-77c0 -89.333 17 -169.166 51 -239.499s81 -125.833 141 -166.5s128.667 -61 206 -61c68.667 0 129.5 11.833 182.5 35.5s100.167 55.834 141.5 96.501l29 -42c-44.667 -42.667 -95.334 -77.334 -152.001 -104.001s-123.667 -40 -201 -40z
M177.001 631h726v33c0 73.333 -14.5 139 -43.5 197s-69.833 103.667 -122.5 137s-114.667 50 -186 50c-68 0 -129.333 -18 -184 -54s-99 -85 -133 -147s-54 -132 -60 -210zM676.001 1422v138h72v-138h-72zM356.001 1422v138h73v-138h-73z" />
    <glyph glyph-name="igrave" unicode="&#xec;" horiz-adv-x="609" 
d="M89 0v54h163v974h-163v54h217v-1028h163v-54h-380zM331 1329l-2 -5h-45l-199 231l2 5h64z" />
    <glyph glyph-name="iacute" unicode="&#xed;" horiz-adv-x="609" 
d="M89 0v54h163v974h-163v54h217v-1028h163v-54h-380zM211 1329l180 231h64l2 -5l-199 -231h-45z" />
    <glyph glyph-name="icircumflex" unicode="&#xee;" horiz-adv-x="609" 
d="M89 0v54h163v974h-163v54h217v-1028h163v-54h-380zM19 1337v17l218 206h65l221 -210v-13h-60l-195 186l-190 -186h-59z" />
    <glyph glyph-name="idieresis" unicode="&#xef;" horiz-adv-x="609" 
d="M89 0v54h163v974h-163v54h217v-1028h163v-54h-380zM394 1422v138h72v-138h-72zM74 1422v138h73v-138h-73z" />
    <glyph glyph-name="eth" unicode="&#xf0;" horiz-adv-x="1170" 
d="M534 -21c-88.667 0 -167.333 20.5 -236 61.5s-122.5 96.833 -161.5 167.5s-58.5 150 -58.5 238c0 107.333 18.5 198.666 55.5 273.999s90.5 133 160.5 173s154 60 252 60c83.333 0 158.833 -15.5 226.5 -46.5s118.834 -73.5 153.501 -127.5l5 4
c-10.667 108.667 -35 204 -73 286s-87.333 153 -148 213l-338 -193l-28 48l323 185c-33.333 27.333 -69.333 52.833 -108 76.5s-80.667 46.5 -126 68.5l20 50c51.333 -24.667 99 -50.667 143 -78s84.333 -56.666 121 -87.999l280 160l29 -48l-266 -152
c80 -81.333 139.333 -178.166 178 -290.499s58 -247.5 58 -405.5v-80c0 -108.667 -20 -204.834 -60 -288.501s-94.833 -149.167 -164.5 -196.5s-148.834 -71 -237.501 -71zM538.001 37c79.333 0 149.332 21.1699 209.999 63.5029s108.167 101 142.5 176
s51.5 161.167 51.5 258.5v82v59c-26.667 61.333 -73 113.166 -139 155.499s-151.667 63.5 -257 63.5c-92.667 0 -169.5 -18.833 -230.5 -56.5s-106.667 -90.334 -137 -158.001s-45.5 -145.834 -45.5 -234.501c0 -72.667 16.5 -140.167 49.5 -202.5
s79.833 -112.333 140.5 -150s132.334 -56.5 215.001 -56.5z" />
    <glyph glyph-name="ntilde" unicode="&#xf1;" horiz-adv-x="1320" 
d="M89 0l-0.000976562 54.001h163v974h-163v54h209l7 -223c32.667 77.333 80.334 137.166 143.001 179.499s140 63.5 232 63.5c118 0 206.5 -37.167 265.5 -111.5s88.5 -192.166 88.5 -353.499v-583h163v-54h-380v54h163v585c0 150 -26.833 255.667 -80.5 317
s-126.5 92 -218.5 92c-116.667 0 -204.667 -34.833 -264 -104.5s-96.333 -158.834 -111 -267.501v-622h163v-54h-380zM392.999 1372h-52.9971c0 36.667 7.5 68.5 22.5 95.5s35 48.167 60 63.5s52.5 23 82.5 23c38.667 0 76.167 -10.333 112.5 -31
s71.166 -41.5 104.499 -62.5s64.666 -31.5 93.999 -31.5c27.333 0 52.5 11.5 75.5 34.5s34.5 55.167 34.5 96.5h53c0 -36 -7.33301 -68 -22 -96s-34 -49.833 -58 -65.5s-50.667 -23.5 -80 -23.5c-38 0 -75.167 10.5 -111.5 31.5l-105.5 63c-34 21 -66.667 31.5 -98 31.5
c-28.667 0 -54.334 -11 -77.001 -33s-34 -54 -34 -96z" />
    <glyph glyph-name="ograve" unicode="&#xf2;" horiz-adv-x="1155" 
d="M579 -21c-94 0 -176.667 23 -248 69s-127 109.667 -167 191s-60 175 -60 281v42c0 106 20 199.5 60 280.5s95.5 144.5 166.5 190.5s153.167 69 246.5 69c94 0 176.5 -23 247.5 -69s126.5 -109.5 166.5 -190.5s60 -174.5 60 -280.5v-42c0 -106 -20 -199.667 -60 -281
s-95.5 -145 -166.5 -191s-152.833 -69 -245.5 -69zM579 33c84.667 0 158.333 21.833 221 65.5s111.167 102.334 145.5 176.001s51.5 155.5 51.5 245.5v42c0 88.667 -17.333 169.834 -52 243.501s-83.5 132.5 -146.5 176.5s-136.833 66 -221.5 66s-158.5 -22 -221.5 -66
s-111.667 -102.833 -146 -176.5s-51.5 -154.834 -51.5 -243.501v-42c0 -90.667 17.167 -172.834 51.5 -246.501s83 -132.167 146 -175.5s137.5 -65 223.5 -65zM637.999 1329l-2 -5h-45l-199 231l2 5h64z" />
    <glyph glyph-name="oacute" unicode="&#xf3;" horiz-adv-x="1155" 
d="M579 -21c-94 0 -176.667 23 -248 69s-127 109.667 -167 191s-60 175 -60 281v42c0 106 20 199.5 60 280.5s95.5 144.5 166.5 190.5s153.167 69 246.5 69c94 0 176.5 -23 247.5 -69s126.5 -109.5 166.5 -190.5s60 -174.5 60 -280.5v-42c0 -106 -20 -199.667 -60 -281
s-95.5 -145 -166.5 -191s-152.833 -69 -245.5 -69zM579 33c84.667 0 158.333 21.833 221 65.5s111.167 102.334 145.5 176.001s51.5 155.5 51.5 245.5v42c0 88.667 -17.333 169.834 -52 243.501s-83.5 132.5 -146.5 176.5s-136.833 66 -221.5 66s-158.5 -22 -221.5 -66
s-111.667 -102.833 -146 -176.5s-51.5 -154.834 -51.5 -243.501v-42c0 -90.667 17.167 -172.834 51.5 -246.501s83 -132.167 146 -175.5s137.5 -65 223.5 -65zM517.999 1329l180 231h64l2 -5l-199 -231h-45z" />
    <glyph glyph-name="ocircumflex" unicode="&#xf4;" horiz-adv-x="1155" 
d="M579 -21c-94 0 -176.667 23 -248 69s-127 109.667 -167 191s-60 175 -60 281v42c0 106 20 199.5 60 280.5s95.5 144.5 166.5 190.5s153.167 69 246.5 69c94 0 176.5 -23 247.5 -69s126.5 -109.5 166.5 -190.5s60 -174.5 60 -280.5v-42c0 -106 -20 -199.667 -60 -281
s-95.5 -145 -166.5 -191s-152.833 -69 -245.5 -69zM579 33c84.667 0 158.333 21.833 221 65.5s111.167 102.334 145.5 176.001s51.5 155.5 51.5 245.5v42c0 88.667 -17.333 169.834 -52 243.501s-83.5 132.5 -146.5 176.5s-136.833 66 -221.5 66s-158.5 -22 -221.5 -66
s-111.667 -102.833 -146 -176.5s-51.5 -154.834 -51.5 -243.501v-42c0 -90.667 17.167 -172.834 51.5 -246.501s83 -132.167 146 -175.5s137.5 -65 223.5 -65zM325.999 1337v17l218 206h65l221 -210v-13h-60l-195 186l-190 -186h-59z" />
    <glyph glyph-name="otilde" unicode="&#xf5;" horiz-adv-x="1155" 
d="M579 -21c-94 0 -176.667 23 -248 69s-127 109.667 -167 191s-60 175 -60 281v42c0 106 20 199.5 60 280.5s95.5 144.5 166.5 190.5s153.167 69 246.5 69c94 0 176.5 -23 247.5 -69s126.5 -109.5 166.5 -190.5s60 -174.5 60 -280.5v-42c0 -106 -20 -199.667 -60 -281
s-95.5 -145 -166.5 -191s-152.833 -69 -245.5 -69zM579 33c84.667 0 158.333 21.833 221 65.5s111.167 102.334 145.5 176.001s51.5 155.5 51.5 245.5v42c0 88.667 -17.333 169.834 -52 243.501s-83.5 132.5 -146.5 176.5s-136.833 66 -221.5 66s-158.5 -22 -221.5 -66
s-111.667 -102.833 -146 -176.5s-51.5 -154.834 -51.5 -243.501v-42c0 -90.667 17.167 -172.834 51.5 -246.501s83 -132.167 146 -175.5s137.5 -65 223.5 -65zM310.999 1372h-52.9971c0 36.667 7.5 68.5 22.5 95.5s35 48.167 60 63.5s52.5 23 82.5 23
c38.667 0 76.167 -10.333 112.5 -31s71.166 -41.5 104.499 -62.5s64.666 -31.5 93.999 -31.5c27.333 0 52.5 11.5 75.5 34.5s34.5 55.167 34.5 96.5h53c0 -36 -7.33301 -68 -22 -96s-34 -49.833 -58 -65.5s-50.667 -23.5 -80 -23.5c-38 0 -75.167 10.5 -111.5 31.5
l-105.5 63c-34 21 -66.667 31.5 -98 31.5c-28.667 0 -54.334 -11 -77.001 -33s-34 -54 -34 -96z" />
    <glyph glyph-name="odieresis" unicode="&#xf6;" horiz-adv-x="1155" 
d="M579 -21c-94 0 -176.667 23 -248 69s-127 109.667 -167 191s-60 175 -60 281v42c0 106 20 199.5 60 280.5s95.5 144.5 166.5 190.5s153.167 69 246.5 69c94 0 176.5 -23 247.5 -69s126.5 -109.5 166.5 -190.5s60 -174.5 60 -280.5v-42c0 -106 -20 -199.667 -60 -281
s-95.5 -145 -166.5 -191s-152.833 -69 -245.5 -69zM579 33c84.667 0 158.333 21.833 221 65.5s111.167 102.334 145.5 176.001s51.5 155.5 51.5 245.5v42c0 88.667 -17.333 169.834 -52 243.501s-83.5 132.5 -146.5 176.5s-136.833 66 -221.5 66s-158.5 -22 -221.5 -66
s-111.667 -102.833 -146 -176.5s-51.5 -154.834 -51.5 -243.501v-42c0 -90.667 17.167 -172.834 51.5 -246.501s83 -132.167 146 -175.5s137.5 -65 223.5 -65zM700.999 1422v138h72v-138h-72zM380.999 1422v138h73v-138h-73z" />
    <glyph glyph-name="divide" unicode="&#xf7;" horiz-adv-x="1148" 
d="M74 686v52h998v-52h-998zM536 241v122h96v-122h-96zM536 1020v122h96v-122h-96z" />
    <glyph glyph-name="oslash" unicode="&#xf8;" horiz-adv-x="1155" 
d="M579 -21c-94 0 -176.667 23 -248 69s-127 109.667 -167 191s-60 175 -60 281v42c0 106 20 199.5 60 280.5s95.5 144.5 166.5 190.5s153.167 69 246.5 69c94 0 176.5 -23 247.5 -69s126.5 -109.5 166.5 -190.5s60 -174.5 60 -280.5v-42c0 -106 -20 -199.667 -60 -281
s-95.5 -145 -166.5 -191s-152.833 -69 -245.5 -69zM579 33c84.667 0 158.333 21.833 221 65.5s111.167 102.334 145.5 176.001s51.5 155.5 51.5 245.5v42c0 88.667 -17.333 169.834 -52 243.501s-83.5 132.5 -146.5 176.5s-136.833 66 -221.5 66s-158.5 -22 -221.5 -66
s-111.667 -102.833 -146 -176.5s-51.5 -154.834 -51.5 -243.501v-42c0 -90.667 17.167 -172.834 51.5 -246.501s83 -132.167 146 -175.5s137.5 -65 223.5 -65zM184.999 -141l723 1364h63l-723 -1364h-63z" />
    <glyph glyph-name="ugrave" unicode="&#xf9;" horiz-adv-x="1202" 
d="M533 -21c-109.333 0 -194.333 39.501 -255 118.501s-91 201.5 -91 367.5v563h-143v54h143h54v-619c0 -146.667 25.833 -255 77.5 -325s122.5 -105 212.5 -105c112.667 0 197.5 27.667 254.5 83s93.833 128.666 110.5 219.999v692h-163v54h163h55v-1028h163v-54h-208
l-8 194c-34 -68.667 -80.833 -121.667 -140.5 -159s-134.5 -56 -224.5 -56zM661 1329l-2 -5h-45l-199 231l2 5h64z" />
    <glyph glyph-name="uacute" unicode="&#xfa;" horiz-adv-x="1202" 
d="M533 -21c-109.333 0 -194.333 39.501 -255 118.501s-91 201.5 -91 367.5v563h-143v54h143h54v-619c0 -146.667 25.833 -255 77.5 -325s122.5 -105 212.5 -105c112.667 0 197.5 27.667 254.5 83s93.833 128.666 110.5 219.999v692h-163v54h163h55v-1028h163v-54h-208
l-8 194c-34 -68.667 -80.833 -121.667 -140.5 -159s-134.5 -56 -224.5 -56zM541 1329l180 231h64l2 -5l-199 -231h-45z" />
    <glyph glyph-name="ucircumflex" unicode="&#xfb;" horiz-adv-x="1202" 
d="M533 -21c-109.333 0 -194.333 39.501 -255 118.501s-91 201.5 -91 367.5v563h-143v54h143h54v-619c0 -146.667 25.833 -255 77.5 -325s122.5 -105 212.5 -105c112.667 0 197.5 27.667 254.5 83s93.833 128.666 110.5 219.999v692h-163v54h163h55v-1028h163v-54h-208
l-8 194c-34 -68.667 -80.833 -121.667 -140.5 -159s-134.5 -56 -224.5 -56zM349 1337v17l218 206h65l221 -210v-13h-60l-195 186l-190 -186h-59z" />
    <glyph glyph-name="udieresis" unicode="&#xfc;" horiz-adv-x="1202" 
d="M533 -21c-109.333 0 -194.333 39.501 -255 118.501s-91 201.5 -91 367.5v563h-143v54h143h54v-619c0 -146.667 25.833 -255 77.5 -325s122.5 -105 212.5 -105c112.667 0 197.5 27.667 254.5 83s93.833 128.666 110.5 219.999v692h-163v54h163h55v-1028h163v-54h-208
l-8 194c-34 -68.667 -80.833 -121.667 -140.5 -159s-134.5 -56 -224.5 -56zM724 1422v138h72v-138h-72zM404 1422v138h73v-138h-73z" />
    <glyph glyph-name="yacute" unicode="&#xfd;" horiz-adv-x="1185" 
d="M283 -437c-12.667 0 -26.667 1.16895 -42 3.50195s-26.666 4.83301 -33.999 7.5l9 51c7.33301 -2 18.333 -4 33 -6s26 -3 34 -3c61.333 0 109.166 18 143.499 54s64.833 89.333 91.5 160l65 176l-410 1022h-118v54h319v-54h-142l335 -832l40 -108h6l359 940h-142v54h320
v-54h-118l-460 -1208c-19.333 -50.667 -40.5 -95.334 -63.5 -134.001s-52.167 -68.834 -87.5 -90.501s-81.333 -32.5 -138 -32.5zM533 1329l180 231h64l2 -5l-199 -231h-45z" />
    <glyph glyph-name="thorn" unicode="&#xfe;" horiz-adv-x="1161" 
d="M65 -416l0.000976562 54h163v1868h-163v54h217v-671c36 66 85 118 147 156s135.333 57 220 57s157.5 -22.833 218.5 -68.5s107.833 -110.5 140.5 -194.5s49 -183 49 -297v-21c0 -111.333 -16.167 -207.5 -48.5 -288.5s-78.833 -143.5 -139.5 -187.5
s-133.334 -66 -218.001 -66s-158.5 17 -221.5 51s-112.167 80 -147.5 138v-530h163v-54h-380zM652.001 33c114 0 200.831 44.001 260.498 132.001s89.5 206.667 89.5 356v21c0 100 -13.5 188 -40.5 264s-66.667 135.333 -119 178s-116.5 64 -192.5 64
c-104.667 0 -186 -26.333 -244 -79s-99.333 -117.334 -124 -194.001v-506c26.667 -72 71.334 -129.333 134.001 -172s141.334 -64 236.001 -64z" />
    <glyph glyph-name="ydieresis" unicode="&#xff;" horiz-adv-x="1185" 
d="M283 -437c-12.667 0 -26.667 1.16895 -42 3.50195s-26.666 4.83301 -33.999 7.5l9 51c7.33301 -2 18.333 -4 33 -6s26 -3 34 -3c61.333 0 109.166 18 143.499 54s64.833 89.333 91.5 160l65 176l-410 1022h-118v54h319v-54h-142l335 -832l40 -108h6l359 940h-142v54h320
v-54h-118l-460 -1208c-19.333 -50.667 -40.5 -95.334 -63.5 -134.001s-52.167 -68.834 -87.5 -90.501s-81.333 -32.5 -138 -32.5zM716 1422v138h72v-138h-72zM396 1422v138h73v-138h-73z" />
    <glyph glyph-name="Amacron" unicode="&#x100;" horiz-adv-x="1472" 
d="M55 0v54h107l524 1402h66l525 -1402h107v-54h-309v54h143l-143 381h-712l-142 -381h143v-54h-309zM383 489h672l-305 820l-28 82h-6l-27 -82zM405 1683v53h627v-53h-627z" />
    <glyph glyph-name="amacron" unicode="&#x101;" horiz-adv-x="1116" 
d="M417 -21c-94.667 0 -170.498 27.166 -227.498 81.499s-85.5 125.5 -85.5 213.5c0 64.667 19.5 121.834 58.5 171.501s94 88.5 165 116.5s154.5 42 250.5 42h249v138c0 90 -26 163.667 -78 221s-133.667 86 -245 86c-58.667 0 -112.334 -11 -161.001 -33
s-90 -48.667 -124 -80v-177h-54v206c44.667 41.333 94.5 74.5 149.5 99.5s118.5 37.5 190.5 37.5c124.667 0 218.5 -32.5 281.5 -97.5s94.5 -153.167 94.5 -264.5v-522c0 -28 1.16699 -55.667 3.5 -83s6.16602 -54.333 11.499 -81h150v-54h-197
c-8.66699 47.333 -14.5 83.5 -17.5 108.5s-4.5 55.167 -4.5 90.5c-40.667 -65.333 -96.5 -118.333 -167.5 -159s-151.833 -61 -242.5 -61zM417.002 31.999c82 0 161.332 23.001 237.999 69.001s134 109.667 172 191v257h-246c-127.333 0 -229.666 -25.833 -306.999 -77.5
s-116 -118.834 -116 -201.501c0 -67.333 24.333 -123.833 73 -169.5s110.667 -68.5 186 -68.5zM201.001 1420v53h627v-53h-627z" />
    <glyph glyph-name="Abreve" unicode="&#x102;" horiz-adv-x="1472" 
d="M55 0v54h107l524 1402h66l525 -1402h107v-54h-309v54h143l-143 381h-712l-142 -381h143v-54h-309zM383 489h672l-305 820l-28 82h-6l-27 -82zM720 1581c-86 0 -153.5 22 -202.5 66s-73.167 100.667 -72.5 170l2 6h52c0 -56 17.667 -101.333 53 -136s91.333 -52 168 -52
c73.333 0 128.333 17.667 165 53s55 80.333 55 135h52l2 -6c0 -69.333 -24.333 -126 -73 -170s-115.667 -66 -201 -66z" />
    <glyph glyph-name="abreve" unicode="&#x103;" horiz-adv-x="1116" 
d="M417 -21c-94.667 0 -170.498 27.166 -227.498 81.499s-85.5 125.5 -85.5 213.5c0 64.667 19.5 121.834 58.5 171.501s94 88.5 165 116.5s154.5 42 250.5 42h249v138c0 90 -26 163.667 -78 221s-133.667 86 -245 86c-58.667 0 -112.334 -11 -161.001 -33
s-90 -48.667 -124 -80v-177h-54v206c44.667 41.333 94.5 74.5 149.5 99.5s118.5 37.5 190.5 37.5c124.667 0 218.5 -32.5 281.5 -97.5s94.5 -153.167 94.5 -264.5v-522c0 -28 1.16699 -55.667 3.5 -83s6.16602 -54.333 11.499 -81h150v-54h-197
c-8.66699 47.333 -14.5 83.5 -17.5 108.5s-4.5 55.167 -4.5 90.5c-40.667 -65.333 -96.5 -118.333 -167.5 -159s-151.833 -61 -242.5 -61zM417.002 31.999c82 0 161.332 23.001 237.999 69.001s134 109.667 172 191v257h-246c-127.333 0 -229.666 -25.833 -306.999 -77.5
s-116 -118.834 -116 -201.501c0 -67.333 24.333 -123.833 73 -169.5s110.667 -68.5 186 -68.5zM516.001 1318c-86 0 -153.5 22 -202.5 66s-73.167 100.667 -72.5 170l2 6h52c0 -56 17.667 -101.333 53 -136s91.333 -52 168 -52c73.333 0 128.333 17.667 165 53
s55 80.333 55 135h52l2 -6c0 -69.333 -24.333 -126 -73 -170s-115.667 -66 -201 -66z" />
    <glyph glyph-name="Aogonek" unicode="&#x104;" horiz-adv-x="1472" 
d="M55 0v54h107l524 1402h66l525 -1402h107v-54h-309v54h143l-143 381h-712l-142 -381h143v-54h-309zM383 489h672l-305 820l-28 82h-6l-27 -82zM1324 -423c-49.333 0 -89.668 15.1689 -121.001 45.502s-47 72.833 -47 127.5c0 43.333 13.333 85.833 40 127.5
s72 89.167 136 142.5l52 -20c-59.333 -52.667 -103.166 -96.834 -131.499 -132.501s-42.5 -74.834 -42.5 -117.501c0 -24.667 7.33301 -50.667 22 -78s45.334 -41 92.001 -41c21.333 0 40.166 3.5 56.499 10.5s32.833 16.167 49.5 27.5l16 -48c-16 -12 -34 -22.333 -54 -31
s-42.667 -13 -68 -13z" />
    <glyph glyph-name="aogonek" unicode="&#x105;" horiz-adv-x="1116" 
d="M417 -21c-94.667 0 -170.498 27.166 -227.498 81.499s-85.5 125.5 -85.5 213.5c0 64.667 19.5 121.834 58.5 171.501s94 88.5 165 116.5s154.5 42 250.5 42h249v138c0 90 -26 163.667 -78 221s-133.667 86 -245 86c-58.667 0 -112.334 -11 -161.001 -33
s-90 -48.667 -124 -80v-177h-54v206c44.667 41.333 94.5 74.5 149.5 99.5s118.5 37.5 190.5 37.5c124.667 0 218.5 -32.5 281.5 -97.5s94.5 -153.167 94.5 -264.5v-522c0 -28 1.16699 -55.667 3.5 -83s6.16602 -54.333 11.499 -81h150v-54h-197
c-8.66699 47.333 -14.5 83.5 -17.5 108.5s-4.5 55.167 -4.5 90.5c-40.667 -65.333 -96.5 -118.333 -167.5 -159s-151.833 -61 -242.5 -61zM417.002 31.999c82 0 161.332 23.001 237.999 69.001s134 109.667 172 191v257h-246c-127.333 0 -229.666 -25.833 -306.999 -77.5
s-116 -118.834 -116 -201.501c0 -67.333 24.333 -123.833 73 -169.5s110.667 -68.5 186 -68.5zM986.001 -423c-49.333 0 -89.668 15.1689 -121.001 45.502s-47 72.833 -47 127.5c0 43.333 13.333 85.833 40 127.5s72 89.167 136 142.5l52 -20
c-59.333 -52.667 -103.166 -96.834 -131.499 -132.501s-42.5 -74.834 -42.5 -117.501c0 -24.667 7.33301 -50.667 22 -78s45.334 -41 92.001 -41c21.333 0 40.166 3.5 56.499 10.5s32.833 16.167 49.5 27.5l16 -48c-16 -12 -34 -22.333 -54 -31s-42.667 -13 -68 -13z" />
    <glyph glyph-name="Cacute" unicode="&#x106;" horiz-adv-x="1348" 
d="M794 -21c-141.333 0 -261.499 31.167 -360.499 93.5s-174.333 149 -226 260s-77.5 239.833 -77.5 386.5v18c0 146.667 26.667 275.5 80 386.5s127.833 197.667 223.5 260s206.834 93.5 333.501 93.5c105.333 0 191.666 -13.333 258.999 -40s130.666 -66 189.999 -118
v-257h-55v234c-36 27.333 -72.167 50.333 -108.5 69s-77 33 -122 43s-99.5 15 -163.5 15c-114.667 0 -215.834 -28.667 -303.501 -86s-156.167 -137.333 -205.5 -240s-74 -222 -74 -358v-20c0 -136 24.167 -255.5 72.5 -358.5s117.833 -183.333 208.5 -241
s199.334 -86.5 326.001 -86.5c73.333 0 144 9.33301 212 28s125.667 44 173 76v235h55v-269c-62.667 -42 -130.667 -73.167 -204 -93.5s-151 -30.5 -233 -30.5zM687.001 1592l180 231h64l2 -5l-199 -231h-45z" />
    <glyph glyph-name="cacute" unicode="&#x107;" horiz-adv-x="1082" 
d="M540 -21c-82.667 0 -157.002 22.665 -223.002 67.998s-118 108.5 -156 189.5s-57 175.5 -57 283.5v42c0 108 18.5 202.5 55.5 283.5s88.167 144 153.5 189s140.333 67.5 225 67.5c81.333 0 154.5 -17.167 219.5 -51.5s119.167 -76.166 162.5 -125.499v-232h-54v212
c-42.667 45.333 -91 80.5 -145 105.5s-114.667 37.5 -182 37.5c-76 0 -142.667 -20.667 -200 -62s-101.833 -98.5 -133.5 -171.5s-47.5 -157.167 -47.5 -252.5v-42c0 -96 16 -180.667 48 -254s76.833 -130.5 134.5 -171.5s125.167 -61.5 202.5 -61.5
c92.667 0 170.5 23.667 233.5 71s100.5 120.333 112.5 219h46l2 -6c-8 -74 -29.667 -136.167 -65 -186.5s-81.166 -88.166 -137.499 -113.499s-121.166 -38 -194.499 -38zM480.998 1329l180 231h64l2 -5l-199 -231h-45z" />
    <glyph glyph-name="Ccircumflex" unicode="&#x108;" horiz-adv-x="1348" 
d="M794 -21c-141.333 0 -261.499 31.167 -360.499 93.5s-174.333 149 -226 260s-77.5 239.833 -77.5 386.5v18c0 146.667 26.667 275.5 80 386.5s127.833 197.667 223.5 260s206.834 93.5 333.501 93.5c105.333 0 191.666 -13.333 258.999 -40s130.666 -66 189.999 -118
v-257h-55v234c-36 27.333 -72.167 50.333 -108.5 69s-77 33 -122 43s-99.5 15 -163.5 15c-114.667 0 -215.834 -28.667 -303.501 -86s-156.167 -137.333 -205.5 -240s-74 -222 -74 -358v-20c0 -136 24.167 -255.5 72.5 -358.5s117.833 -183.333 208.5 -241
s199.334 -86.5 326.001 -86.5c73.333 0 144 9.33301 212 28s125.667 44 173 76v235h55v-269c-62.667 -42 -130.667 -73.167 -204 -93.5s-151 -30.5 -233 -30.5zM495.001 1600v17l218 206h65l221 -210v-13h-60l-195 186l-190 -186h-59z" />
    <glyph glyph-name="ccircumflex" unicode="&#x109;" horiz-adv-x="1082" 
d="M540 -21c-82.667 0 -157.002 22.665 -223.002 67.998s-118 108.5 -156 189.5s-57 175.5 -57 283.5v42c0 108 18.5 202.5 55.5 283.5s88.167 144 153.5 189s140.333 67.5 225 67.5c81.333 0 154.5 -17.167 219.5 -51.5s119.167 -76.166 162.5 -125.499v-232h-54v212
c-42.667 45.333 -91 80.5 -145 105.5s-114.667 37.5 -182 37.5c-76 0 -142.667 -20.667 -200 -62s-101.833 -98.5 -133.5 -171.5s-47.5 -157.167 -47.5 -252.5v-42c0 -96 16 -180.667 48 -254s76.833 -130.5 134.5 -171.5s125.167 -61.5 202.5 -61.5
c92.667 0 170.5 23.667 233.5 71s100.5 120.333 112.5 219h46l2 -6c-8 -74 -29.667 -136.167 -65 -186.5s-81.166 -88.166 -137.499 -113.499s-121.166 -38 -194.499 -38zM288.998 1337v17l218 206h65l221 -210v-13h-60l-195 186l-190 -186h-59z" />
    <glyph glyph-name="Cdotaccent" unicode="&#x10a;" horiz-adv-x="1348" 
d="M794 -21c-141.333 0 -261.499 31.167 -360.499 93.5s-174.333 149 -226 260s-77.5 239.833 -77.5 386.5v18c0 146.667 26.667 275.5 80 386.5s127.833 197.667 223.5 260s206.834 93.5 333.501 93.5c105.333 0 191.666 -13.333 258.999 -40s130.666 -66 189.999 -118
v-257h-55v234c-36 27.333 -72.167 50.333 -108.5 69s-77 33 -122 43s-99.5 15 -163.5 15c-114.667 0 -215.834 -28.667 -303.501 -86s-156.167 -137.333 -205.5 -240s-74 -222 -74 -358v-20c0 -136 24.167 -255.5 72.5 -358.5s117.833 -183.333 208.5 -241
s199.334 -86.5 326.001 -86.5c73.333 0 144 9.33301 212 28s125.667 44 173 76v235h55v-269c-62.667 -42 -130.667 -73.167 -204 -93.5s-151 -30.5 -233 -30.5zM710.001 1683v140h72v-140h-72z" />
    <glyph glyph-name="cdotaccent" unicode="&#x10b;" horiz-adv-x="1082" 
d="M540 -21c-82.667 0 -157.002 22.665 -223.002 67.998s-118 108.5 -156 189.5s-57 175.5 -57 283.5v42c0 108 18.5 202.5 55.5 283.5s88.167 144 153.5 189s140.333 67.5 225 67.5c81.333 0 154.5 -17.167 219.5 -51.5s119.167 -76.166 162.5 -125.499v-232h-54v212
c-42.667 45.333 -91 80.5 -145 105.5s-114.667 37.5 -182 37.5c-76 0 -142.667 -20.667 -200 -62s-101.833 -98.5 -133.5 -171.5s-47.5 -157.167 -47.5 -252.5v-42c0 -96 16 -180.667 48 -254s76.833 -130.5 134.5 -171.5s125.167 -61.5 202.5 -61.5
c92.667 0 170.5 23.667 233.5 71s100.5 120.333 112.5 219h46l2 -6c-8 -74 -29.667 -136.167 -65 -186.5s-81.166 -88.166 -137.499 -113.499s-121.166 -38 -194.499 -38zM503.998 1420v140h72v-140h-72z" />
    <glyph glyph-name="Ccaron" unicode="&#x10c;" horiz-adv-x="1348" 
d="M794 -21c-141.333 0 -261.499 31.167 -360.499 93.5s-174.333 149 -226 260s-77.5 239.833 -77.5 386.5v18c0 146.667 26.667 275.5 80 386.5s127.833 197.667 223.5 260s206.834 93.5 333.501 93.5c105.333 0 191.666 -13.333 258.999 -40s130.666 -66 189.999 -118
v-257h-55v234c-36 27.333 -72.167 50.333 -108.5 69s-77 33 -122 43s-99.5 15 -163.5 15c-114.667 0 -215.834 -28.667 -303.501 -86s-156.167 -137.333 -205.5 -240s-74 -222 -74 -358v-20c0 -136 24.167 -255.5 72.5 -358.5s117.833 -183.333 208.5 -241
s199.334 -86.5 326.001 -86.5c73.333 0 144 9.33301 212 28s125.667 44 173 76v235h55v-269c-62.667 -42 -130.667 -73.167 -204 -93.5s-151 -30.5 -233 -30.5zM999.001 1823v-17l-218 -206h-65l-221 210v13h60l195 -186l190 186h59z" />
    <glyph glyph-name="ccaron" unicode="&#x10d;" horiz-adv-x="1082" 
d="M540 -21c-82.667 0 -157.002 22.665 -223.002 67.998s-118 108.5 -156 189.5s-57 175.5 -57 283.5v42c0 108 18.5 202.5 55.5 283.5s88.167 144 153.5 189s140.333 67.5 225 67.5c81.333 0 154.5 -17.167 219.5 -51.5s119.167 -76.166 162.5 -125.499v-232h-54v212
c-42.667 45.333 -91 80.5 -145 105.5s-114.667 37.5 -182 37.5c-76 0 -142.667 -20.667 -200 -62s-101.833 -98.5 -133.5 -171.5s-47.5 -157.167 -47.5 -252.5v-42c0 -96 16 -180.667 48 -254s76.833 -130.5 134.5 -171.5s125.167 -61.5 202.5 -61.5
c92.667 0 170.5 23.667 233.5 71s100.5 120.333 112.5 219h46l2 -6c-8 -74 -29.667 -136.167 -65 -186.5s-81.166 -88.166 -137.499 -113.499s-121.166 -38 -194.499 -38zM792.998 1560v-17l-218 -206h-65l-221 210v13h60l195 -186l190 186h59z" />
    <glyph glyph-name="Dcaron" unicode="&#x10e;" horiz-adv-x="1386" 
d="M71 0v54h163v1348h-163v54h163h395c119.333 0 225.5 -30.833 318.5 -92.5s166.333 -146.5 220 -254.5s80.5 -232 80.5 -372v-18c0 -140 -26.833 -264 -80.5 -372s-127 -192.833 -220 -254.5s-199.167 -92.5 -318.5 -92.5h-558zM288 54l341 -0.000976562
c108.667 0 205.5 28.833 290.5 86.5s152 136.667 201 237s73.5 214.166 73.5 341.499v21c0 126.667 -24.5 239.834 -73.5 339.501s-116 178.334 -201 236.001s-181.833 86.5 -290.5 86.5h-341v-1348zM925 1823v-17l-218 -206h-65l-221 210v13h60l195 -186l190 186h59z" />
    <glyph glyph-name="dcaron" unicode="&#x10f;" horiz-adv-x="1205" 
d="M510 -21c-84.667 0 -157.332 22 -217.999 66s-107.167 106.5 -139.5 187.5s-48.5 177.167 -48.5 288.5v21c0 114 16.167 213 48.5 297s79 148.833 140 194.5s134.167 68.5 219.5 68.5s158.666 -19.5 219.999 -58.5s110.333 -92.5 147 -160.5v623h-163v54h163h54v-1506
h163v-54h-215l-2 173c-35.333 -59.333 -84.333 -106.5 -147 -141.5s-136.667 -52.5 -222 -52.5zM509.002 33c94 0 172.167 21.334 234.5 64.001s107.5 99.667 135.5 171v507c-26 77.333 -68 142.166 -126 194.499s-138.667 78.5 -242 78.5c-76.667 0 -141 -21.333 -193 -64
s-91.333 -102 -118 -178s-40 -164 -40 -264v-21c0 -149.333 29.5 -268 88.5 -356s145.833 -132 260.5 -132zM1088 1284l-37 32.002c21.333 29.333 36.833 57.166 46.5 83.499s14.5 58.166 14.5 95.499v65h54v-63c0 -44.667 -7 -84.5 -21 -119.5s-33 -66.167 -57 -93.5z" />
    <glyph glyph-name="Dcroat" unicode="&#x110;" horiz-adv-x="1386" 
d="M71 0v54h163v1348h-163v54h163h395c119.333 0 225.5 -30.833 318.5 -92.5s166.333 -146.5 220 -254.5s80.5 -232 80.5 -372v-18c0 -140 -26.833 -264 -80.5 -372s-127 -192.833 -220 -254.5s-199.167 -92.5 -318.5 -92.5h-558zM288 54l341 -0.000976562
c108.667 0 205.5 28.833 290.5 86.5s152 136.667 201 237s73.5 214.166 73.5 341.499v21c0 126.667 -24.5 239.834 -73.5 339.501s-116 178.334 -201 236.001s-181.833 86.5 -290.5 86.5h-341v-1348zM71 715.999v54h521v-54h-521z" />
    <glyph glyph-name="dcroat" unicode="&#x111;" horiz-adv-x="1205" 
d="M510 -21c-84.667 0 -157.332 22 -217.999 66s-107.167 106.5 -139.5 187.5s-48.5 177.167 -48.5 288.5v21c0 114 16.167 213 48.5 297s79 148.833 140 194.5s134.167 68.5 219.5 68.5s158.666 -19.5 219.999 -58.5s110.333 -92.5 147 -160.5v623h-163v54h163h54v-1506
h163v-54h-215l-2 173c-35.333 -59.333 -84.333 -106.5 -147 -141.5s-136.667 -52.5 -222 -52.5zM509.002 33c94 0 172.167 21.334 234.5 64.001s107.5 99.667 135.5 171v507c-26 77.333 -68 142.166 -126 194.499s-138.667 78.5 -242 78.5c-76.667 0 -141 -21.333 -193 -64
s-91.333 -102 -118 -178s-40 -164 -40 -264v-21c0 -149.333 29.5 -268 88.5 -356s145.833 -132 260.5 -132zM575.002 1258v54h521v-54h-521z" />
    <glyph glyph-name="Emacron" unicode="&#x112;" horiz-adv-x="1270" 
d="M71 0v54h163v1348h-163v54h1019v-293h-54v239h-748v-616h630v-54h-630v-678h778v239h54v-293h-1049zM321 1683v53h627v-53h-627z" />
    <glyph glyph-name="emacron" unicode="&#x113;" horiz-adv-x="1084" 
d="M564 -21c-86.667 0 -163.999 22.167 -231.999 66.5s-121.667 105.666 -161 183.999s-59 168.5 -59 270.5v64c0 103.333 19 195.5 57 276.5s90.167 144.833 156.5 191.5s141.5 70 225.5 70c81.333 0 152.5 -18.167 213.5 -54.5s108.333 -87.5 142 -153.5
s50.5 -144 50.5 -234v-83h-791v-77c0 -89.333 17 -169.166 51 -239.499s81 -125.833 141 -166.5s128.667 -61 206 -61c68.667 0 129.5 11.833 182.5 35.5s100.167 55.834 141.5 96.501l29 -42c-44.667 -42.667 -95.334 -77.334 -152.001 -104.001s-123.667 -40 -201 -40z
M177.001 631h726v33c0 73.333 -14.5 139 -43.5 197s-69.833 103.667 -122.5 137s-114.667 50 -186 50c-68 0 -129.333 -18 -184 -54s-99 -85 -133 -147s-54 -132 -60 -210zM239.001 1420v53h627v-53h-627z" />
    <glyph glyph-name="Ebreve" unicode="&#x114;" horiz-adv-x="1270" 
d="M71 0v54h163v1348h-163v54h1019v-293h-54v239h-748v-616h630v-54h-630v-678h778v239h54v-293h-1049zM636 1581c-86 0 -153.5 22 -202.5 66s-73.167 100.667 -72.5 170l2 6h52c0 -56 17.667 -101.333 53 -136s91.333 -52 168 -52c73.333 0 128.333 17.667 165 53
s55 80.333 55 135h52l2 -6c0 -69.333 -24.333 -126 -73 -170s-115.667 -66 -201 -66z" />
    <glyph glyph-name="ebreve" unicode="&#x115;" horiz-adv-x="1084" 
d="M564 -21c-86.667 0 -163.999 22.167 -231.999 66.5s-121.667 105.666 -161 183.999s-59 168.5 -59 270.5v64c0 103.333 19 195.5 57 276.5s90.167 144.833 156.5 191.5s141.5 70 225.5 70c81.333 0 152.5 -18.167 213.5 -54.5s108.333 -87.5 142 -153.5
s50.5 -144 50.5 -234v-83h-791v-77c0 -89.333 17 -169.166 51 -239.499s81 -125.833 141 -166.5s128.667 -61 206 -61c68.667 0 129.5 11.833 182.5 35.5s100.167 55.834 141.5 96.501l29 -42c-44.667 -42.667 -95.334 -77.334 -152.001 -104.001s-123.667 -40 -201 -40z
M177.001 631h726v33c0 73.333 -14.5 139 -43.5 197s-69.833 103.667 -122.5 137s-114.667 50 -186 50c-68 0 -129.333 -18 -184 -54s-99 -85 -133 -147s-54 -132 -60 -210zM554.001 1318c-86 0 -153.5 22 -202.5 66s-73.167 100.667 -72.5 170l2 6h52
c0 -56 17.667 -101.333 53 -136s91.333 -52 168 -52c73.333 0 128.333 17.667 165 53s55 80.333 55 135h52l2 -6c0 -69.333 -24.333 -126 -73 -170s-115.667 -66 -201 -66z" />
    <glyph glyph-name="Edotaccent" unicode="&#x116;" horiz-adv-x="1270" 
d="M71 0v54h163v1348h-163v54h1019v-293h-54v239h-748v-616h630v-54h-630v-678h778v239h54v-293h-1049zM598 1683v140h72v-140h-72z" />
    <glyph glyph-name="edotaccent" unicode="&#x117;" horiz-adv-x="1084" 
d="M564 -21c-86.667 0 -163.999 22.167 -231.999 66.5s-121.667 105.666 -161 183.999s-59 168.5 -59 270.5v64c0 103.333 19 195.5 57 276.5s90.167 144.833 156.5 191.5s141.5 70 225.5 70c81.333 0 152.5 -18.167 213.5 -54.5s108.333 -87.5 142 -153.5
s50.5 -144 50.5 -234v-83h-791v-77c0 -89.333 17 -169.166 51 -239.499s81 -125.833 141 -166.5s128.667 -61 206 -61c68.667 0 129.5 11.833 182.5 35.5s100.167 55.834 141.5 96.501l29 -42c-44.667 -42.667 -95.334 -77.334 -152.001 -104.001s-123.667 -40 -201 -40z
M177.001 631h726v33c0 73.333 -14.5 139 -43.5 197s-69.833 103.667 -122.5 137s-114.667 50 -186 50c-68 0 -129.333 -18 -184 -54s-99 -85 -133 -147s-54 -132 -60 -210zM516.001 1420v140h72v-140h-72z" />
    <glyph glyph-name="Eogonek" unicode="&#x118;" horiz-adv-x="1270" 
d="M71 0v54h163v1348h-163v54h1019v-293h-54v239h-748v-616h630v-54h-630v-678h778v239h54v-293h-1049zM1060 -423c-49.333 0 -89.668 15.1689 -121.001 45.502s-47 72.833 -47 127.5c0 43.333 13.333 85.833 40 127.5s72 89.167 136 142.5l52 -20
c-59.333 -52.667 -103.166 -96.834 -131.499 -132.501s-42.5 -74.834 -42.5 -117.501c0 -24.667 7.33301 -50.667 22 -78s45.334 -41 92.001 -41c21.333 0 40.166 3.5 56.499 10.5s32.833 16.167 49.5 27.5l16 -48c-16 -12 -34 -22.333 -54 -31s-42.667 -13 -68 -13z" />
    <glyph glyph-name="eogonek" unicode="&#x119;" horiz-adv-x="1084" 
d="M564 -21c-86.667 0 -163.999 22.167 -231.999 66.5s-121.667 105.666 -161 183.999s-59 168.5 -59 270.5v64c0 103.333 19 195.5 57 276.5s90.167 144.833 156.5 191.5s141.5 70 225.5 70c81.333 0 152.5 -18.167 213.5 -54.5s108.333 -87.5 142 -153.5
s50.5 -144 50.5 -234v-83h-791v-77c0 -89.333 17 -169.166 51 -239.499s81 -125.833 141 -166.5s128.667 -61 206 -61c68.667 0 129.5 11.833 182.5 35.5s100.167 55.834 141.5 96.501l29 -42c-44.667 -42.667 -95.334 -77.334 -152.001 -104.001s-123.667 -40 -201 -40z
M177.001 631h726v33c0 73.333 -14.5 139 -43.5 197s-69.833 103.667 -122.5 137s-114.667 50 -186 50c-68 0 -129.333 -18 -184 -54s-99 -85 -133 -147s-54 -132 -60 -210zM789.001 -423c-51.333 0 -93.668 16.333 -127.001 49s-50 83.334 -50 152.001
c0 58 15.5 112.5 46.5 163.5s83.833 102.167 158.5 153.5l35 -26c-63.333 -50.667 -110.166 -97.5 -140.499 -140.5s-45.5 -93.167 -45.5 -150.5c0 -38.667 7.83301 -72.834 23.5 -102.501s48.834 -44.5 99.501 -44.5c23.333 0 43.166 3.5 59.499 10.5
s32.833 16.167 49.5 27.5l16 -48c-16 -12 -34 -22.333 -54 -31s-43.667 -13 -71 -13z" />
    <glyph glyph-name="Ecaron" unicode="&#x11a;" horiz-adv-x="1270" 
d="M71 0v54h163v1348h-163v54h1019v-293h-54v239h-748v-616h630v-54h-630v-678h778v239h54v-293h-1049zM887 1823v-17l-218 -206h-65l-221 210v13h60l195 -186l190 186h59z" />
    <glyph glyph-name="ecaron" unicode="&#x11b;" horiz-adv-x="1084" 
d="M564 -21c-86.667 0 -163.999 22.167 -231.999 66.5s-121.667 105.666 -161 183.999s-59 168.5 -59 270.5v64c0 103.333 19 195.5 57 276.5s90.167 144.833 156.5 191.5s141.5 70 225.5 70c81.333 0 152.5 -18.167 213.5 -54.5s108.333 -87.5 142 -153.5
s50.5 -144 50.5 -234v-83h-791v-77c0 -89.333 17 -169.166 51 -239.499s81 -125.833 141 -166.5s128.667 -61 206 -61c68.667 0 129.5 11.833 182.5 35.5s100.167 55.834 141.5 96.501l29 -42c-44.667 -42.667 -95.334 -77.334 -152.001 -104.001s-123.667 -40 -201 -40z
M177.001 631h726v33c0 73.333 -14.5 139 -43.5 197s-69.833 103.667 -122.5 137s-114.667 50 -186 50c-68 0 -129.333 -18 -184 -54s-99 -85 -133 -147s-54 -132 -60 -210zM805.001 1560v-17l-218 -206h-65l-221 210v13h60l195 -186l190 186h59z" />
    <glyph glyph-name="Gcircumflex" unicode="&#x11c;" horiz-adv-x="1417" 
d="M770 -21c-132.667 0 -246.835 31.167 -342.502 93.5s-169.167 149.166 -220.5 260.499s-77 240.333 -77 387v38c0 142 27 267 81 375s128 192.333 222 253s201 91 321 91c102.667 0 189.834 -13.833 261.501 -41.5s137.5 -64.834 197.5 -111.501v-252h-54v224
c-49.333 38.667 -104.833 69.5 -166.5 92.5s-141.167 34.5 -238.5 34.5c-108 0 -205 -28.167 -291 -84.5s-154 -134.166 -204 -233.499s-75 -214.333 -75 -345v-40c0 -135.333 23.167 -254.666 69.5 -357.999s113 -184 200 -242s191.833 -87 314.5 -87
c89.333 0 170 10.833 242 32.5s133.333 46.834 184 75.501v424h-315v55h369v-509c-60.667 -36.667 -129.667 -67.834 -207 -93.501s-167.666 -38.5 -270.999 -38.5zM456.999 1600v17l218 206h65l221 -210v-13h-60l-195 186l-190 -186h-59z" />
    <glyph glyph-name="gcircumflex" unicode="&#x11d;" horiz-adv-x="1155" 
d="M524 -437c-52.667 0 -107.499 5.49902 -164.499 16.499s-106.833 26.167 -149.5 45.5l16 54c48.667 -21.333 95.667 -37.166 141 -47.499s97 -15.5 155 -15.5c115.333 0 203.5 35.5 264.5 106.5s91.5 168.167 91.5 291.5v157
c-36 -58.667 -85.167 -105.334 -147.5 -140.001s-135.833 -52 -220.5 -52s-157.334 22 -218.001 66s-107.167 106.667 -139.5 188s-48.5 177.333 -48.5 288v21c0 114.667 16.167 213.834 48.5 297.501s79 148.334 140 194.001s134.167 68.5 219.5 68.5
s158.833 -19.667 220.5 -59s110.5 -93 146.5 -161l8 200h46v-1068c0 -92 -16.5 -171.833 -49.5 -239.5s-80 -119.834 -141 -156.501s-133.833 -55 -218.5 -55zM509.001 32.999c96 0 174.832 22 236.499 66s105.834 103 132.501 177v491c-25.333 79.333 -66.5 146 -123.5 200
s-138.167 81 -243.5 81c-76 0 -140.167 -21.333 -192.5 -64s-92 -102 -119 -178s-40.5 -164 -40.5 -264v-21c0 -149.333 29.667 -268 89 -356s146.333 -132 261 -132zM913 1028l-7 54h170v-54h-163zM307 1337v17l218 206h65l221 -210v-13h-60l-195 186l-190 -186h-59z" />
    <glyph glyph-name="Gbreve" unicode="&#x11e;" horiz-adv-x="1417" 
d="M770 -21c-132.667 0 -246.835 31.167 -342.502 93.5s-169.167 149.166 -220.5 260.499s-77 240.333 -77 387v38c0 142 27 267 81 375s128 192.333 222 253s201 91 321 91c102.667 0 189.834 -13.833 261.501 -41.5s137.5 -64.834 197.5 -111.501v-252h-54v224
c-49.333 38.667 -104.833 69.5 -166.5 92.5s-141.167 34.5 -238.5 34.5c-108 0 -205 -28.167 -291 -84.5s-154 -134.166 -204 -233.499s-75 -214.333 -75 -345v-40c0 -135.333 23.167 -254.666 69.5 -357.999s113 -184 200 -242s191.833 -87 314.5 -87
c89.333 0 170 10.833 242 32.5s133.333 46.834 184 75.501v424h-315v55h369v-509c-60.667 -36.667 -129.667 -67.834 -207 -93.501s-167.666 -38.5 -270.999 -38.5zM709.999 1581c-86 0 -153.5 22 -202.5 66s-73.167 100.667 -72.5 170l2 6h52
c0 -56 17.667 -101.333 53 -136s91.333 -52 168 -52c73.333 0 128.333 17.667 165 53s55 80.333 55 135h52l2 -6c0 -69.333 -24.333 -126 -73 -170s-115.667 -66 -201 -66z" />
    <glyph glyph-name="gbreve" unicode="&#x11f;" horiz-adv-x="1155" 
d="M524 -437c-52.667 0 -107.499 5.49902 -164.499 16.499s-106.833 26.167 -149.5 45.5l16 54c48.667 -21.333 95.667 -37.166 141 -47.499s97 -15.5 155 -15.5c115.333 0 203.5 35.5 264.5 106.5s91.5 168.167 91.5 291.5v157
c-36 -58.667 -85.167 -105.334 -147.5 -140.001s-135.833 -52 -220.5 -52s-157.334 22 -218.001 66s-107.167 106.667 -139.5 188s-48.5 177.333 -48.5 288v21c0 114.667 16.167 213.834 48.5 297.501s79 148.334 140 194.001s134.167 68.5 219.5 68.5
s158.833 -19.667 220.5 -59s110.5 -93 146.5 -161l8 200h46v-1068c0 -92 -16.5 -171.833 -49.5 -239.5s-80 -119.834 -141 -156.501s-133.833 -55 -218.5 -55zM509.001 32.999c96 0 174.832 22 236.499 66s105.834 103 132.501 177v491c-25.333 79.333 -66.5 146 -123.5 200
s-138.167 81 -243.5 81c-76 0 -140.167 -21.333 -192.5 -64s-92 -102 -119 -178s-40.5 -164 -40.5 -264v-21c0 -149.333 29.667 -268 89 -356s146.333 -132 261 -132zM913 1028l-7 54h170v-54h-163zM560 1318c-86 0 -153.5 22 -202.5 66s-73.167 100.667 -72.5 170l2 6h52
c0 -56 17.667 -101.333 53 -136s91.333 -52 168 -52c73.333 0 128.333 17.667 165 53s55 80.333 55 135h52l2 -6c0 -69.333 -24.333 -126 -73 -170s-115.667 -66 -201 -66z" />
    <glyph glyph-name="Gdotaccent" unicode="&#x120;" horiz-adv-x="1417" 
d="M770 -21c-132.667 0 -246.835 31.167 -342.502 93.5s-169.167 149.166 -220.5 260.499s-77 240.333 -77 387v38c0 142 27 267 81 375s128 192.333 222 253s201 91 321 91c102.667 0 189.834 -13.833 261.501 -41.5s137.5 -64.834 197.5 -111.501v-252h-54v224
c-49.333 38.667 -104.833 69.5 -166.5 92.5s-141.167 34.5 -238.5 34.5c-108 0 -205 -28.167 -291 -84.5s-154 -134.166 -204 -233.499s-75 -214.333 -75 -345v-40c0 -135.333 23.167 -254.666 69.5 -357.999s113 -184 200 -242s191.833 -87 314.5 -87
c89.333 0 170 10.833 242 32.5s133.333 46.834 184 75.501v424h-315v55h369v-509c-60.667 -36.667 -129.667 -67.834 -207 -93.501s-167.666 -38.5 -270.999 -38.5zM671.999 1683v140h72v-140h-72z" />
    <glyph glyph-name="gdotaccent" unicode="&#x121;" horiz-adv-x="1155" 
d="M524 -437c-52.667 0 -107.499 5.49902 -164.499 16.499s-106.833 26.167 -149.5 45.5l16 54c48.667 -21.333 95.667 -37.166 141 -47.499s97 -15.5 155 -15.5c115.333 0 203.5 35.5 264.5 106.5s91.5 168.167 91.5 291.5v157
c-36 -58.667 -85.167 -105.334 -147.5 -140.001s-135.833 -52 -220.5 -52s-157.334 22 -218.001 66s-107.167 106.667 -139.5 188s-48.5 177.333 -48.5 288v21c0 114.667 16.167 213.834 48.5 297.501s79 148.334 140 194.001s134.167 68.5 219.5 68.5
s158.833 -19.667 220.5 -59s110.5 -93 146.5 -161l8 200h46v-1068c0 -92 -16.5 -171.833 -49.5 -239.5s-80 -119.834 -141 -156.501s-133.833 -55 -218.5 -55zM509.001 32.999c96 0 174.832 22 236.499 66s105.834 103 132.501 177v491c-25.333 79.333 -66.5 146 -123.5 200
s-138.167 81 -243.5 81c-76 0 -140.167 -21.333 -192.5 -64s-92 -102 -119 -178s-40.5 -164 -40.5 -264v-21c0 -149.333 29.667 -268 89 -356s146.333 -132 261 -132zM913 1028l-7 54h170v-54h-163zM522 1420v140h72v-140h-72z" />
    <glyph glyph-name="uni0122" unicode="&#x122;" horiz-adv-x="1417" 
d="M770 -21c-132.667 0 -246.835 31.167 -342.502 93.5s-169.167 149.166 -220.5 260.499s-77 240.333 -77 387v38c0 142 27 267 81 375s128 192.333 222 253s201 91 321 91c102.667 0 189.834 -13.833 261.501 -41.5s137.5 -64.834 197.5 -111.501v-252h-54v224
c-49.333 38.667 -104.833 69.5 -166.5 92.5s-141.167 34.5 -238.5 34.5c-108 0 -205 -28.167 -291 -84.5s-154 -134.166 -204 -233.499s-75 -214.333 -75 -345v-40c0 -135.333 23.167 -254.666 69.5 -357.999s113 -184 200 -242s191.833 -87 314.5 -87
c89.333 0 170 10.833 242 32.5s133.333 46.834 184 75.501v424h-315v55h369v-509c-60.667 -36.667 -129.667 -67.834 -207 -93.501s-167.666 -38.5 -270.999 -38.5zM710.999 -531l-37 32.002c21.333 29.333 36.833 57.166 46.5 83.499s14.5 58.166 14.5 95.499v65h54v-63
c0 -44.667 -7 -84.5 -21 -119.5s-33 -66.167 -57 -93.5z" />
    <glyph glyph-name="uni0123" unicode="&#x123;" horiz-adv-x="1155" 
d="M524 -437c-52.667 0 -107.499 5.49902 -164.499 16.499s-106.833 26.167 -149.5 45.5l16 54c48.667 -21.333 95.667 -37.166 141 -47.499s97 -15.5 155 -15.5c115.333 0 203.5 35.5 264.5 106.5s91.5 168.167 91.5 291.5v157
c-36 -58.667 -85.167 -105.334 -147.5 -140.001s-135.833 -52 -220.5 -52s-157.334 22 -218.001 66s-107.167 106.667 -139.5 188s-48.5 177.333 -48.5 288v21c0 114.667 16.167 213.834 48.5 297.501s79 148.334 140 194.001s134.167 68.5 219.5 68.5
s158.833 -19.667 220.5 -59s110.5 -93 146.5 -161l8 200h46v-1068c0 -92 -16.5 -171.833 -49.5 -239.5s-80 -119.834 -141 -156.501s-133.833 -55 -218.5 -55zM509.001 32.999c96 0 174.832 22 236.499 66s105.834 103 132.501 177v491c-25.333 79.333 -66.5 146 -123.5 200
s-138.167 81 -243.5 81c-76 0 -140.167 -21.333 -192.5 -64s-92 -102 -119 -178s-40.5 -164 -40.5 -264v-21c0 -149.333 29.667 -268 89 -356s146.333 -132 261 -132zM913 1028l-7 54h170v-54h-163zM579 1640l37 -31.999c-20.667 -28.667 -36 -56.334 -46 -83.001
s-15 -58.667 -15 -96v-65h-54v63c0 45.333 7 85.5 21 120.5s33 65.833 57 92.5z" />
    <glyph glyph-name="Hcircumflex" unicode="&#x124;" horiz-adv-x="1506" 
d="M71 0v54h163v1348h-163v54h380v-54h-163v-653h930v653h-163v54h163h54h163v-54h-163v-1348h163v-54h-380v54h163v641h-930v-641h163v-54h-380zM501 1600v17l218 206h65l221 -210v-13h-60l-195 186l-190 -186h-59z" />
    <glyph glyph-name="hcircumflex" unicode="&#x125;" horiz-adv-x="1278" 
d="M62 0l-0.000976562 54h163v1452h-163v54h217v-706c33.333 78.667 82.333 139.667 147 183s143.667 65 237 65c112.667 0 198.167 -35.667 256.5 -107s87.5 -183.666 87.5 -336.999v-604h163v-54h-381v54h163v606c0 142 -26.167 242.167 -78.5 300.5
s-122.166 87.5 -209.499 87.5c-116.667 0 -206 -34.833 -268 -104.5s-101 -158.834 -117 -267.501v-622h163v-54h-380zM4.99902 1711v17l218 206h65l221 -210v-13h-60l-195 186l-190 -186h-59z" />
    <glyph glyph-name="Hbar" unicode="&#x126;" horiz-adv-x="1506" 
d="M71 0v54h163v1348h-163v54h380v-54h-163v-653h930v653h-163v54h163h54h163v-54h-163v-1348h163v-54h-380v54h163v641h-930v-641h163v-54h-380zM71 1028v54h1364v-54h-1364z" />
    <glyph glyph-name="hbar" unicode="&#x127;" horiz-adv-x="1278" 
d="M62 0l-0.000976562 54h163v1452h-163v54h217v-706c33.333 78.667 82.333 139.667 147 183s143.667 65 237 65c112.667 0 198.167 -35.667 256.5 -107s87.5 -183.666 87.5 -336.999v-604h163v-54h-381v54h163v606c0 142 -26.167 242.167 -78.5 300.5
s-122.166 87.5 -209.499 87.5c-116.667 0 -206 -34.833 -268 -104.5s-101 -158.834 -117 -267.501v-622h163v-54h-380zM61.999 1258v54h521v-54h-521z" />
    <glyph glyph-name="Itilde" unicode="&#x128;" horiz-adv-x="522" 
d="M71 0v54h163v1348h-163v54h380v-54h-163v-1348h163v-54h-380zM-6 1635h-52.9971c0 36.667 7.5 68.5 22.5 95.5s35 48.167 60 63.5s52.5 23 82.5 23c38.667 0 76.167 -10.333 112.5 -31s71.166 -41.5 104.499 -62.5s64.666 -31.5 93.999 -31.5
c27.333 0 52.5 11.5 75.5 34.5s34.5 55.167 34.5 96.5h53c0 -36 -7.33301 -68 -22 -96s-34 -49.833 -58 -65.5s-50.667 -23.5 -80 -23.5c-38 0 -75.167 10.5 -111.5 31.5l-105.5 63c-34 21 -66.667 31.5 -98 31.5c-28.667 0 -54.334 -11 -77.001 -33s-34 -54 -34 -96z" />
    <glyph glyph-name="itilde" unicode="&#x129;" horiz-adv-x="609" 
d="M89 0v54h163v974h-163v54h217v-1028h163v-54h-380zM4 1372h-52.9971c0 36.667 7.5 68.5 22.5 95.5s35 48.167 60 63.5s52.5 23 82.5 23c38.667 0 76.167 -10.333 112.5 -31s71.166 -41.5 104.499 -62.5s64.666 -31.5 93.999 -31.5c27.333 0 52.5 11.5 75.5 34.5
s34.5 55.167 34.5 96.5h53c0 -36 -7.33301 -68 -22 -96s-34 -49.833 -58 -65.5s-50.667 -23.5 -80 -23.5c-38 0 -75.167 10.5 -111.5 31.5l-105.5 63c-34 21 -66.667 31.5 -98 31.5c-28.667 0 -54.334 -11 -77.001 -33s-34 -54 -34 -96z" />
    <glyph glyph-name="Imacron" unicode="&#x12a;" horiz-adv-x="522" 
d="M71 0v54h163v1348h-163v54h380v-54h-163v-1348h163v-54h-380zM-53 1683v53h627v-53h-627z" />
    <glyph glyph-name="imacron" unicode="&#x12b;" horiz-adv-x="609" 
d="M89 0v54h163v974h-163v54h217v-1028h163v-54h-380zM-43 1420v53h627v-53h-627z" />
    <glyph glyph-name="Ibreve" unicode="&#x12c;" horiz-adv-x="522" 
d="M71 0v54h163v1348h-163v54h380v-54h-163v-1348h163v-54h-380zM262 1581c-86 0 -153.5 22 -202.5 66s-73.167 100.667 -72.5 170l2 6h52c0 -56 17.667 -101.333 53 -136s91.333 -52 168 -52c73.333 0 128.333 17.667 165 53s55 80.333 55 135h52l2 -6
c0 -69.333 -24.333 -126 -73 -170s-115.667 -66 -201 -66z" />
    <glyph glyph-name="ibreve" unicode="&#x12d;" horiz-adv-x="609" 
d="M89 0v54h163v974h-163v54h217v-1028h163v-54h-380zM272 1318c-86 0 -153.5 22 -202.5 66s-73.167 100.667 -72.5 170l2 6h52c0 -56 17.667 -101.333 53 -136s91.333 -52 168 -52c73.333 0 128.333 17.667 165 53s55 80.333 55 135h52l2 -6
c0 -69.333 -24.333 -126 -73 -170s-115.667 -66 -201 -66z" />
    <glyph glyph-name="Iogonek" unicode="&#x12e;" horiz-adv-x="522" 
d="M71 0v54h163v1348h-163v54h380v-54h-163v-1348h163v-54h-380zM391 -423c-49.333 0 -89.668 15.1689 -121.001 45.502s-47 72.833 -47 127.5c0 43.333 13.333 85.833 40 127.5s72 89.167 136 142.5l52 -20c-59.333 -52.667 -103.166 -96.834 -131.499 -132.501
s-42.5 -74.834 -42.5 -117.501c0 -24.667 7.33301 -50.667 22 -78s45.334 -41 92.001 -41c21.333 0 40.166 3.5 56.499 10.5s32.833 16.167 49.5 27.5l16 -48c-16 -12 -34 -22.333 -54 -31s-42.667 -13 -68 -13z" />
    <glyph glyph-name="iogonek" unicode="&#x12f;" horiz-adv-x="609" 
d="M89 0v54h163v974h-163v54h217v-1028h163v-54h-380zM234 1420v140h72v-140h-72zM409 -423c-49.333 0 -89.668 15.1689 -121.001 45.502s-47 72.833 -47 127.5c0 43.333 13.333 85.833 40 127.5s72 89.167 136 142.5l52 -20
c-59.333 -52.667 -103.166 -96.834 -131.499 -132.501s-42.5 -74.834 -42.5 -117.501c0 -24.667 7.33301 -50.667 22 -78s45.334 -41 92.001 -41c21.333 0 40.166 3.5 56.499 10.5s32.833 16.167 49.5 27.5l16 -48c-16 -12 -34 -22.333 -54 -31s-42.667 -13 -68 -13z" />
    <glyph glyph-name="Idotaccent" unicode="&#x130;" horiz-adv-x="522" 
d="M71 0v54h163v1348h-163v54h380v-54h-163v-1348h163v-54h-380zM224 1683v140h72v-140h-72z" />
    <glyph glyph-name="dotlessi" unicode="&#x131;" horiz-adv-x="609" 
d="M89 0v54h163v974h-163v54h217v-1028h163v-54h-380z" />
    <glyph glyph-name="IJ" unicode="&#x132;" horiz-adv-x="1659" 
d="M71 0v54h163v1348h-163v54h380v-54h-163v-1348h163v-54h-380zM993 -21c-88.667 0 -165.167 15.8311 -229.5 47.498s-113.5 78.334 -147.5 140.001s-50 137.834 -48 228.501l2 6h46c0 -118.667 32.333 -209.667 97 -273s158 -95 280 -95c68 0 128.833 15.833 182.5 47.5
s95.834 76.667 126.501 135s46 127.166 46 206.499v980h-186v54h403v-54h-163v-980c0 -90 -17.333 -168.167 -52 -234.5s-82.834 -117.666 -144.501 -153.999s-132.5 -54.5 -212.5 -54.5z" />
    <glyph glyph-name="ij" unicode="&#x133;" horiz-adv-x="1172" 
d="M89 0v54h163v974h-163v54h217v-1028h163v-54h-380zM234 1420v140h72v-140h-72zM717 -437c-20 0 -38.665 1.66602 -55.998 4.99902s-36 8.33301 -56 15l13 52c12 -4 27.167 -8 45.5 -12s36.166 -6 53.499 -6c73.333 0 130.166 25.5 170.499 76.5s60.5 123.5 60.5 217.5
v1117h-163v54h217v-1171c0 -111.333 -25 -197.166 -75 -257.499s-120 -90.5 -210 -90.5zM924.002 1420v140h72v-140h-72z" />
    <glyph glyph-name="Jcircumflex" unicode="&#x134;" horiz-adv-x="1137" 
d="M471 -21c-88.667 0 -165.167 15.8311 -229.5 47.498s-113.5 78.334 -147.5 140.001s-50 137.834 -48 228.501l2 6h46c0 -118.667 32.333 -209.667 97 -273s158 -95 280 -95c68 0 128.833 15.833 182.5 47.5s95.834 76.667 126.501 135s46 127.166 46 206.499v980h-186v54
h403v-54h-163v-980c0 -90 -17.333 -168.167 -52 -234.5s-82.834 -117.666 -144.501 -153.999s-132.5 -54.5 -212.5 -54.5zM596 1600v17l218 206h65l221 -210v-13h-60l-195 186l-190 -186h-59z" />
    <glyph glyph-name="jcircumflex" unicode="&#x135;" horiz-adv-x="563" 
d="M108 -437c-20 0 -38.665 1.66602 -55.998 4.99902s-36 8.33301 -56 15l13 52c12 -4 27.167 -8 45.5 -12s36.166 -6 53.499 -6c73.333 0 130.166 25.5 170.499 76.5s60.5 123.5 60.5 217.5v1117h-163v54h217v-1171c0 -111.333 -25 -197.166 -75 -257.499
s-120 -90.5 -210 -90.5zM100.002 1337v17l218 206h65l221 -210v-13h-60l-195 186l-190 -186h-59z" />
    <glyph glyph-name="uni0136" unicode="&#x136;" horiz-adv-x="1388" 
d="M270 391l-20 62l841 944l-2 5h-168v54h361v-54h-115zM71 0v54h163v1348h-163v54h380v-54h-163v-1348h163v-54h-380zM967 0v54h163l3 6l-542 743l50 29l569 -778h118v-54h-361zM656 -531l-37 32.002c21.333 29.333 36.833 57.166 46.5 83.499s14.5 58.166 14.5 95.499v65
h54v-63c0 -44.667 -7 -84.5 -21 -119.5s-33 -66.167 -57 -93.5z" />
    <glyph glyph-name="uni0137" unicode="&#x137;" horiz-adv-x="1154" 
d="M62 0v54h163v1452h-163v54h217v-1506h163v-54h-380zM761 0v54h126l2 5l-399 555l38 35l436 -595h117v-54h-320zM269 346l-18 54l587 622l-2 6h-119v54h321v-54h-122zM539 -531l-37 32.002c21.333 29.333 36.833 57.166 46.5 83.499s14.5 58.166 14.5 95.499v65h54v-63
c0 -44.667 -7 -84.5 -21 -119.5s-33 -66.167 -57 -93.5z" />
    <glyph glyph-name="kgreenlandic" unicode="&#x138;" horiz-adv-x="1163" 
d="M269 346l-18 54l593 622l-2 6h-119v54h321v-54h-122zM62 0v54h163v974h-163v54h217v-1028h163v-54h-380zM931 0l-441 614l38 35l436 -595h117v-54h-150z" />
    <glyph glyph-name="Lacute" unicode="&#x139;" horiz-adv-x="1161" 
d="M71 0v54h163v1348h-163v54h163h55h163v-54h-163v-1348h693v239h54v-293h-965zM202 1592l180 231h64l2 -5l-199 -231h-45z" />
    <glyph glyph-name="lacute" unicode="&#x13a;" horiz-adv-x="581" 
d="M82 0v54h163v1452h-163v54h217v-1506h163v-54h-380zM217 1703l180 231h64l2 -5l-199 -231h-45z" />
    <glyph glyph-name="uni013B" unicode="&#x13b;" horiz-adv-x="1161" 
d="M71 0v54h163v1348h-163v54h163h55h163v-54h-163v-1348h693v239h54v-293h-965zM543 -531l-37 32.002c21.333 29.333 36.833 57.166 46.5 83.499s14.5 58.166 14.5 95.499v65h54v-63c0 -44.667 -7 -84.5 -21 -119.5s-33 -66.167 -57 -93.5z" />
    <glyph glyph-name="uni013C" unicode="&#x13c;" horiz-adv-x="581" 
d="M82 0v54h163v1452h-163v54h217v-1506h163v-54h-380zM253 -531l-37 32.002c21.333 29.333 36.833 57.166 46.5 83.499s14.5 58.166 14.5 95.499v65h54v-63c0 -44.667 -7 -84.5 -21 -119.5s-33 -66.167 -57 -93.5z" />
    <glyph glyph-name="Lcaron" unicode="&#x13d;" horiz-adv-x="1161" 
d="M71 0v54h163v1348h-163v54h163h55h163v-54h-163v-1348h693v239h54v-293h-965zM960 1180l-37 32.002c21.333 29.333 36.833 57.166 46.5 83.499s14.5 58.166 14.5 95.499v65h54v-63c0 -44.667 -7 -84.5 -21 -119.5s-33 -66.167 -57 -93.5z" />
    <glyph glyph-name="lcaron" unicode="&#x13e;" horiz-adv-x="581" 
d="M82 0v54h163v1452h-163v54h217v-1506h163v-54h-380zM454 1284l-37 32.002c21.333 29.333 36.833 57.166 46.5 83.499s14.5 58.166 14.5 95.499v65h54v-63c0 -44.667 -7 -84.5 -21 -119.5s-33 -66.167 -57 -93.5z" />
    <glyph glyph-name="Ldot" unicode="&#x13f;" horiz-adv-x="1161" 
d="M71 0v54h163v1348h-163v54h163h55h163v-54h-163v-1348h693v239h54v-293h-965zM782 636v130h86v-130h-86z" />
    <glyph glyph-name="ldot" unicode="&#x140;" horiz-adv-x="581" 
d="M82 0v54h163v1452h-163v54h217v-1506h163v-54h-380zM442 636v130h86v-130h-86z" />
    <glyph glyph-name="Lslash" unicode="&#x141;" horiz-adv-x="1161" 
d="M71 0v54h163v1348h-163v54h163h55h163v-54h-163v-1348h693v239h54v-293h-965zM64 648v57l590 187v-57z" />
    <glyph glyph-name="lslash" unicode="&#x142;" horiz-adv-x="581" 
d="M82 0v54h163v1452h-163v54h217v-1506h163v-54h-380zM47 684v59l460 187v-59z" />
    <glyph glyph-name="Nacute" unicode="&#x143;" horiz-adv-x="1517" 
d="M71 0v54h163v1348h-163v54h163h55l934 -1353l6 2v1297h-163v54h217h163v-54h-163v-1402h-54l-934 1356l-6 -2v-1300h163v-54h-381zM699 1592l180 231h64l2 -5l-199 -231h-45z" />
    <glyph glyph-name="nacute" unicode="&#x144;" horiz-adv-x="1320" 
d="M89 0l-0.000976562 54.001h163v974h-163v54h209l7 -223c32.667 77.333 80.334 137.166 143.001 179.499s140 63.5 232 63.5c118 0 206.5 -37.167 265.5 -111.5s88.5 -192.166 88.5 -353.499v-583h163v-54h-380v54h163v585c0 150 -26.833 255.667 -80.5 317
s-126.5 92 -218.5 92c-116.667 0 -204.667 -34.833 -264 -104.5s-96.333 -158.834 -111 -267.501v-622h163v-54h-380zM599.999 1329l180 231h64l2 -5l-199 -231h-45z" />
    <glyph glyph-name="uni0145" unicode="&#x145;" horiz-adv-x="1517" 
d="M71 0v54h163v1348h-163v54h163h55l934 -1353l6 2v1297h-163v54h217h163v-54h-163v-1402h-54l-934 1356l-6 -2v-1300h163v-54h-381zM721 -531l-37 32.002c21.333 29.333 36.833 57.166 46.5 83.499s14.5 58.166 14.5 95.499v65h54v-63c0 -44.667 -7 -84.5 -21 -119.5
s-33 -66.167 -57 -93.5z" />
    <glyph glyph-name="uni0146" unicode="&#x146;" horiz-adv-x="1320" 
d="M89 0l-0.000976562 54.001h163v974h-163v54h209l7 -223c32.667 77.333 80.334 137.166 143.001 179.499s140 63.5 232 63.5c118 0 206.5 -37.167 265.5 -111.5s88.5 -192.166 88.5 -353.499v-583h163v-54h-380v54h163v585c0 150 -26.833 255.667 -80.5 317
s-126.5 92 -218.5 92c-116.667 0 -204.667 -34.833 -264 -104.5s-96.333 -158.834 -111 -267.501v-622h163v-54h-380zM621.999 -530.999l-37 32.002c21.333 29.333 36.833 57.166 46.5 83.499s14.5 58.166 14.5 95.499v65h54v-63c0 -44.667 -7 -84.5 -21 -119.5
s-33 -66.167 -57 -93.5z" />
    <glyph glyph-name="Ncaron" unicode="&#x147;" horiz-adv-x="1517" 
d="M71 0v54h163v1348h-163v54h163h55l934 -1353l6 2v1297h-163v54h217h163v-54h-163v-1402h-54l-934 1356l-6 -2v-1300h163v-54h-381zM1011 1823v-17l-218 -206h-65l-221 210v13h60l195 -186l190 186h59z" />
    <glyph glyph-name="ncaron" unicode="&#x148;" horiz-adv-x="1320" 
d="M89 0l-0.000976562 54.001h163v974h-163v54h209l7 -223c32.667 77.333 80.334 137.166 143.001 179.499s140 63.5 232 63.5c118 0 206.5 -37.167 265.5 -111.5s88.5 -192.166 88.5 -353.499v-583h163v-54h-380v54h163v585c0 150 -26.833 255.667 -80.5 317
s-126.5 92 -218.5 92c-116.667 0 -204.667 -34.833 -264 -104.5s-96.333 -158.834 -111 -267.501v-622h163v-54h-380zM911.999 1560v-17l-218 -206h-65l-221 210v13h60l195 -186l190 186h59z" />
    <glyph glyph-name="napostrophe" unicode="&#x149;" horiz-adv-x="1320" 
d="M89 0l-0.000976562 54.001h163v974h-163v54h209l7 -223c32.667 77.333 80.334 137.166 143.001 179.499s140 63.5 232 63.5c118 0 206.5 -37.167 265.5 -111.5s88.5 -192.166 88.5 -353.499v-583h163v-54h-380v54h163v585c0 150 -26.833 255.667 -80.5 317
s-126.5 92 -218.5 92c-116.667 0 -204.667 -34.833 -264 -104.5s-96.333 -158.834 -111 -267.501v-622h163v-54h-380zM94.999 1284l-37 32.002c21.333 29.333 36.833 57.166 46.5 83.499s14.5 58.166 14.5 95.499v65h54v-63c0 -44.667 -7 -84.5 -21 -119.5
s-33 -66.167 -57 -93.5z" />
    <glyph glyph-name="Eng" unicode="&#x14a;" horiz-adv-x="1537" 
d="M998 -437c-20 0 -38.667 1.66797 -56 5.00098s-36 8.33301 -56 15l13 52c12 -4.66699 27 -8.83398 45 -12.501s36 -5.5 54 -5.5c73.333 0 130.166 25.667 170.499 77s60.5 123.666 60.5 216.999v89l-936 1356l-6 -2v-1300h163v-54h-380v54h163v1348h-163v54h217
l936 -1355l6 2v1299h-163v54h380v-54h-163v-1491c0 -111.333 -25.167 -197.166 -75.5 -257.499s-120.166 -90.5 -209.499 -90.5z" />
    <glyph glyph-name="eng" unicode="&#x14b;" horiz-adv-x="1225" 
d="M752 -437c-24 0 -46.3359 1.66504 -67.0029 4.99805s-42.667 8.33301 -66 15l13 52c14 -4.66699 32.333 -9 55 -13s44.334 -6 65.001 -6c73.333 0 130.166 25.833 170.499 77.5s60.5 124.167 60.5 217.5v728c0 150 -26.667 255.667 -80 317s-126.333 92 -219 92
c-116 0 -204 -34.333 -264 -103s-97.667 -157 -113 -265v-626h163v-54h-380v54h163v974h-163v54h211l6 -224c32.667 77.333 80.334 137.333 143.001 180s140.334 64 233.001 64c118 0 206.5 -37.167 265.5 -111.5s88.5 -192.166 88.5 -353.499v-726
c0 -111.333 -25.167 -197.166 -75.5 -257.499s-120.166 -90.5 -209.499 -90.5z" />
    <glyph glyph-name="Omacron" unicode="&#x14c;" horiz-adv-x="1488" 
d="M740 -21c-90.667 0 -173.331 17.5 -247.998 52.5s-139 85 -193 150s-95.667 142.833 -125 233.5s-44 192 -44 304v18c0 112 14.5 213.333 43.5 304s70.5 168.5 124.5 233.5s118.167 115 192.5 150s156.833 52.5 247.5 52.5c90 0 172.333 -17.5 247 -52.5
s139.167 -85 193.5 -150s96.166 -142.833 125.499 -233.5s44 -192 44 -304v-18c0 -112 -14.667 -213.5 -44 -304.5s-70.833 -168.833 -124.5 -233.5s-117.834 -114.5 -192.501 -149.5s-157 -52.5 -247 -52.5zM740.003 33c112.667 0 210.501 28.333 293.501 85
s147.167 136.5 192.5 239.5s68 223.5 68 361.5v20c0 137.333 -22.833 257.333 -68.5 360s-110.167 182.334 -193.5 239.001s-181.333 85 -294 85c-112 0 -209.333 -28.333 -292 -85s-146.834 -136.334 -192.501 -239.001s-68.5 -222.667 -68.5 -360v-20
c0 -138 22.833 -258.5 68.5 -361.5s110 -182.833 193 -239.5s180.833 -85 293.5 -85zM424.004 1683v53h627v-53h-627z" />
    <glyph glyph-name="omacron" unicode="&#x14d;" horiz-adv-x="1155" 
d="M579 -21c-94 0 -176.667 23 -248 69s-127 109.667 -167 191s-60 175 -60 281v42c0 106 20 199.5 60 280.5s95.5 144.5 166.5 190.5s153.167 69 246.5 69c94 0 176.5 -23 247.5 -69s126.5 -109.5 166.5 -190.5s60 -174.5 60 -280.5v-42c0 -106 -20 -199.667 -60 -281
s-95.5 -145 -166.5 -191s-152.833 -69 -245.5 -69zM579 33c84.667 0 158.333 21.833 221 65.5s111.167 102.334 145.5 176.001s51.5 155.5 51.5 245.5v42c0 88.667 -17.333 169.834 -52 243.501s-83.5 132.5 -146.5 176.5s-136.833 66 -221.5 66s-158.5 -22 -221.5 -66
s-111.667 -102.833 -146 -176.5s-51.5 -154.834 -51.5 -243.501v-42c0 -90.667 17.167 -172.834 51.5 -246.501s83 -132.167 146 -175.5s137.5 -65 223.5 -65zM263.999 1420v53h627v-53h-627z" />
    <glyph glyph-name="Obreve" unicode="&#x14e;" horiz-adv-x="1488" 
d="M740 -21c-90.667 0 -173.331 17.5 -247.998 52.5s-139 85 -193 150s-95.667 142.833 -125 233.5s-44 192 -44 304v18c0 112 14.5 213.333 43.5 304s70.5 168.5 124.5 233.5s118.167 115 192.5 150s156.833 52.5 247.5 52.5c90 0 172.333 -17.5 247 -52.5
s139.167 -85 193.5 -150s96.166 -142.833 125.499 -233.5s44 -192 44 -304v-18c0 -112 -14.667 -213.5 -44 -304.5s-70.833 -168.833 -124.5 -233.5s-117.834 -114.5 -192.501 -149.5s-157 -52.5 -247 -52.5zM740.003 33c112.667 0 210.501 28.333 293.501 85
s147.167 136.5 192.5 239.5s68 223.5 68 361.5v20c0 137.333 -22.833 257.333 -68.5 360s-110.167 182.334 -193.5 239.001s-181.333 85 -294 85c-112 0 -209.333 -28.333 -292 -85s-146.834 -136.334 -192.501 -239.001s-68.5 -222.667 -68.5 -360v-20
c0 -138 22.833 -258.5 68.5 -361.5s110 -182.833 193 -239.5s180.833 -85 293.5 -85zM739.004 1581c-86 0 -153.5 22 -202.5 66s-73.167 100.667 -72.5 170l2 6h52c0 -56 17.667 -101.333 53 -136s91.333 -52 168 -52c73.333 0 128.333 17.667 165 53s55 80.333 55 135h52
l2 -6c0 -69.333 -24.333 -126 -73 -170s-115.667 -66 -201 -66z" />
    <glyph glyph-name="obreve" unicode="&#x14f;" horiz-adv-x="1155" 
d="M579 -21c-94 0 -176.667 23 -248 69s-127 109.667 -167 191s-60 175 -60 281v42c0 106 20 199.5 60 280.5s95.5 144.5 166.5 190.5s153.167 69 246.5 69c94 0 176.5 -23 247.5 -69s126.5 -109.5 166.5 -190.5s60 -174.5 60 -280.5v-42c0 -106 -20 -199.667 -60 -281
s-95.5 -145 -166.5 -191s-152.833 -69 -245.5 -69zM579 33c84.667 0 158.333 21.833 221 65.5s111.167 102.334 145.5 176.001s51.5 155.5 51.5 245.5v42c0 88.667 -17.333 169.834 -52 243.501s-83.5 132.5 -146.5 176.5s-136.833 66 -221.5 66s-158.5 -22 -221.5 -66
s-111.667 -102.833 -146 -176.5s-51.5 -154.834 -51.5 -243.501v-42c0 -90.667 17.167 -172.834 51.5 -246.501s83 -132.167 146 -175.5s137.5 -65 223.5 -65zM578.999 1318c-86 0 -153.5 22 -202.5 66s-73.167 100.667 -72.5 170l2 6h52c0 -56 17.667 -101.333 53 -136
s91.333 -52 168 -52c73.333 0 128.333 17.667 165 53s55 80.333 55 135h52l2 -6c0 -69.333 -24.333 -126 -73 -170s-115.667 -66 -201 -66z" />
    <glyph glyph-name="Ohungarumlaut" unicode="&#x150;" horiz-adv-x="1488" 
d="M740 -21c-90.667 0 -173.331 17.5 -247.998 52.5s-139 85 -193 150s-95.667 142.833 -125 233.5s-44 192 -44 304v18c0 112 14.5 213.333 43.5 304s70.5 168.5 124.5 233.5s118.167 115 192.5 150s156.833 52.5 247.5 52.5c90 0 172.333 -17.5 247 -52.5
s139.167 -85 193.5 -150s96.166 -142.833 125.499 -233.5s44 -192 44 -304v-18c0 -112 -14.667 -213.5 -44 -304.5s-70.833 -168.833 -124.5 -233.5s-117.834 -114.5 -192.501 -149.5s-157 -52.5 -247 -52.5zM740.003 33c112.667 0 210.501 28.333 293.501 85
s147.167 136.5 192.5 239.5s68 223.5 68 361.5v20c0 137.333 -22.833 257.333 -68.5 360s-110.167 182.334 -193.5 239.001s-181.333 85 -294 85c-112 0 -209.333 -28.333 -292 -85s-146.834 -136.334 -192.501 -239.001s-68.5 -222.667 -68.5 -360v-20
c0 -138 22.833 -258.5 68.5 -361.5s110 -182.833 193 -239.5s180.833 -85 293.5 -85zM772.004 1587l-2 6l214 230h68l2 -6l-231 -230h-51zM537.004 1590l-2 5l179 228h64l3 -6l-196 -227h-48z" />
    <glyph glyph-name="ohungarumlaut" unicode="&#x151;" horiz-adv-x="1155" 
d="M579 -21c-94 0 -176.667 23 -248 69s-127 109.667 -167 191s-60 175 -60 281v42c0 106 20 199.5 60 280.5s95.5 144.5 166.5 190.5s153.167 69 246.5 69c94 0 176.5 -23 247.5 -69s126.5 -109.5 166.5 -190.5s60 -174.5 60 -280.5v-42c0 -106 -20 -199.667 -60 -281
s-95.5 -145 -166.5 -191s-152.833 -69 -245.5 -69zM579 33c84.667 0 158.333 21.833 221 65.5s111.167 102.334 145.5 176.001s51.5 155.5 51.5 245.5v42c0 88.667 -17.333 169.834 -52 243.501s-83.5 132.5 -146.5 176.5s-136.833 66 -221.5 66s-158.5 -22 -221.5 -66
s-111.667 -102.833 -146 -176.5s-51.5 -154.834 -51.5 -243.501v-42c0 -90.667 17.167 -172.834 51.5 -246.501s83 -132.167 146 -175.5s137.5 -65 223.5 -65zM611.999 1324l-2 6l214 230h68l2 -6l-231 -230h-51zM376.999 1327l-2 5l179 228h64l3 -6l-196 -227h-48z" />
    <glyph glyph-name="OE" unicode="&#x152;" horiz-adv-x="2028" 
d="M786 -21c-101.333 0 -192.338 17.502 -273.005 52.502s-149.5 85 -206.5 150s-100.667 142.833 -131 233.5s-45.5 192 -45.5 304v18c0 112 15 213.333 45 304s73.333 168.5 130 233.5s125.334 115 206.001 150s171.667 52.5 273 52.5c39.333 0 82.833 -2.66699 130.5 -8
s92.167 -13 133.5 -23l-20 -53c-40 10 -81.5 17.5 -124.5 22.5s-82.833 7.5 -119.5 7.5c-126 0 -233.667 -28.333 -323 -85s-157.666 -136.334 -204.999 -239.001s-71 -222.667 -71 -360v-20c0 -138.667 23.833 -259.334 71.5 -362.001s116.334 -182.334 206.001 -239.001
s197.5 -85 323.5 -85c36.667 0 76.334 2.5 119.001 7.5s83.667 12.5 123 22.5l20 -54c-40.667 -9.33301 -84.667 -16.666 -132 -21.999s-90.666 -8 -129.999 -8zM925.995 0.00195312l66 44v1368l-66 44h952v-293h-54v239h-778v-616h630v-54h-630v-678h778v239h54v-293h-952z
" />
    <glyph glyph-name="oe" unicode="&#x153;" horiz-adv-x="1994" 
d="M579 -21c-94 0 -176.663 22.9971 -247.996 68.9971s-127 109.667 -167 191s-60 175 -60 281v42c0 106 20 199.5 60 280.5s95.5 144.5 166.5 190.5s153.167 69 246.5 69c110 0 204.833 -32 284.5 -96s134.834 -150.333 165.501 -259c30 107.333 83.667 193.333 161 258
s165.666 97 264.999 97c81.333 0 153.166 -18.167 215.499 -54.5s111 -87.5 146 -153.5s52.5 -144 52.5 -234v-83h-811v-77c0 -87.333 17.667 -166.166 53 -236.499s83.166 -126.333 143.499 -168s128.166 -62.5 203.499 -62.5c54 0 101.833 4.83301 143.5 14.5
s78.667 24.334 111 44.001s61.5 44.167 87.5 73.5l29 -42c-42.667 -47.333 -94.5 -83.166 -155.5 -107.499s-132.833 -36.5 -215.5 -36.5c-64.667 0 -126 14.667 -184 44s-108.333 70.5 -151 123.5s-74.334 114.5 -95.001 184.5
c-31.333 -108.667 -86.5 -194.5 -165.5 -257.5s-172.833 -94.5 -281.5 -94.5zM579.004 32.9971c84.667 0 158.333 21.833 221 65.5s111.167 102.334 145.5 176.001s51.5 155.5 51.5 245.5v42c0 88.667 -17.333 169.834 -52 243.501s-83.5 132.5 -146.5 176.5
s-136.833 66 -221.5 66s-158.5 -22 -221.5 -66s-111.667 -102.833 -146 -176.5s-51.5 -154.834 -51.5 -243.501v-42c0 -90.667 17.167 -172.834 51.5 -246.501s83 -132.167 146 -175.5s137.5 -65 223.5 -65zM1067 630.997h745.999v33c0 73.333 -15.167 139 -45.5 197
s-72.5 103.667 -126.5 137s-116.667 50 -188 50s-135.166 -18 -191.499 -54s-101.833 -85 -136.5 -147s-55 -132 -61 -210z" />
    <glyph glyph-name="Racute" unicode="&#x154;" horiz-adv-x="1364" 
d="M71 -1l-0.000976562 54.001h163v1348h-163v54h585c102.667 0 189.5 -14.833 260.5 -44.5s125 -73.334 162 -131.001s55.5 -129.167 55.5 -214.5c0 -81.333 -20.167 -150.5 -60.5 -207.5s-96.666 -100.333 -168.999 -130s-156.5 -44.5 -252.5 -44.5h-364v-630h163v-54
h-380zM1067 -0.999023l-305 719h54l287 -665h133v-54h-169zM287.999 737.001l363.001 -0.000976562c147.333 0 255.666 31.333 324.999 94s104 140.667 104 234c0 108.667 -35.5 191.834 -106.5 249.501s-176.833 86.5 -317.5 86.5h-368v-664zM622 1592l180 231h64l2 -5
l-199 -231h-45z" />
    <glyph glyph-name="racute" unicode="&#x155;" horiz-adv-x="823" 
d="M89 0v54.001h163v974h-163v54h207l10 -188v-37c30 77.333 74.667 137.5 134 180.5s132.333 64.5 219 64.5c15.333 0 32.833 -1.33301 52.5 -4s34.167 -5.33398 43.5 -8.00098l-6 -48l-90 7c-96.667 0 -175.167 -31.167 -235.5 -93.5s-99.5 -144.5 -117.5 -246.5v-655h163
v-54h-380zM352 1329l180 231h64l2 -5l-199 -231h-45z" />
    <glyph glyph-name="uni0156" unicode="&#x156;" horiz-adv-x="1364" 
d="M71 -1l-0.000976562 54.001h163v1348h-163v54h585c102.667 0 189.5 -14.833 260.5 -44.5s125 -73.334 162 -131.001s55.5 -129.167 55.5 -214.5c0 -81.333 -20.167 -150.5 -60.5 -207.5s-96.666 -100.333 -168.999 -130s-156.5 -44.5 -252.5 -44.5h-364v-630h163v-54
h-380zM1067 -0.999023l-305 719h54l287 -665h133v-54h-169zM287.999 737.001l363.001 -0.000976562c147.333 0 255.666 31.333 324.999 94s104 140.667 104 234c0 108.667 -35.5 191.834 -106.5 249.501s-176.833 86.5 -317.5 86.5h-368v-664zM644 -531l-37 32.002
c21.333 29.333 36.833 57.166 46.5 83.499s14.5 58.166 14.5 95.499v65h54v-63c0 -44.667 -7 -84.5 -21 -119.5s-33 -66.167 -57 -93.5z" />
    <glyph glyph-name="uni0157" unicode="&#x157;" horiz-adv-x="823" 
d="M89 0v54.001h163v974h-163v54h207l10 -188v-37c30 77.333 74.667 137.5 134 180.5s132.333 64.5 219 64.5c15.333 0 32.833 -1.33301 52.5 -4s34.167 -5.33398 43.5 -8.00098l-6 -48l-90 7c-96.667 0 -175.167 -31.167 -235.5 -93.5s-99.5 -144.5 -117.5 -246.5v-655h163
v-54h-380zM240 -530.999l-37 32.002c21.333 29.333 36.833 57.166 46.5 83.499s14.5 58.166 14.5 95.499v65h54v-63c0 -44.667 -7 -84.5 -21 -119.5s-33 -66.167 -57 -93.5z" />
    <glyph glyph-name="Rcaron" unicode="&#x158;" horiz-adv-x="1364" 
d="M71 -1l-0.000976562 54.001h163v1348h-163v54h585c102.667 0 189.5 -14.833 260.5 -44.5s125 -73.334 162 -131.001s55.5 -129.167 55.5 -214.5c0 -81.333 -20.167 -150.5 -60.5 -207.5s-96.666 -100.333 -168.999 -130s-156.5 -44.5 -252.5 -44.5h-364v-630h163v-54
h-380zM1067 -0.999023l-305 719h54l287 -665h133v-54h-169zM287.999 737.001l363.001 -0.000976562c147.333 0 255.666 31.333 324.999 94s104 140.667 104 234c0 108.667 -35.5 191.834 -106.5 249.501s-176.833 86.5 -317.5 86.5h-368v-664zM934 1823v-17l-218 -206h-65
l-221 210v13h60l195 -186l190 186h59z" />
    <glyph glyph-name="rcaron" unicode="&#x159;" horiz-adv-x="823" 
d="M89 0v54.001h163v974h-163v54h207l10 -188v-37c30 77.333 74.667 137.5 134 180.5s132.333 64.5 219 64.5c15.333 0 32.833 -1.33301 52.5 -4s34.167 -5.33398 43.5 -8.00098l-6 -48l-90 7c-96.667 0 -175.167 -31.167 -235.5 -93.5s-99.5 -144.5 -117.5 -246.5v-655h163
v-54h-380zM664 1560v-17l-218 -206h-65l-221 210v13h60l195 -186l190 186h59z" />
    <glyph glyph-name="Sacute" unicode="&#x15a;" horiz-adv-x="1183" 
d="M589 -21c-78 0 -159.17 12.335 -243.503 37.002s-166.166 63.667 -245.499 117v257h54v-226c72 -45.333 145 -78.5 219 -99.5s146 -31.5 216 -31.5c85.333 0 161 13.333 227 40s117.833 63.834 155.5 111.501s56.5 102.5 56.5 164.5
c0 61.333 -14.5 114.666 -43.5 159.999s-76.167 85.666 -141.5 120.999s-153.333 68.333 -264 99s-198.667 63.334 -264 98.001s-112.166 76 -140.499 124s-42.5 107.333 -42.5 178c0 69.333 18.667 130 56 182s89.833 92.667 157.5 122s146.5 44 236.5 44
c94 0 178.833 -14 254.5 -42s141.834 -65.667 198.501 -113v-234h-54v204c-52 43.333 -112 76 -180 98s-141 33 -219 33c-84.667 0 -156.5 -13.5 -215.5 -40.5s-103.833 -62.667 -134.5 -107s-46 -92.5 -46 -144.5c0 -54.667 11 -102.834 33 -144.501
s62.333 -78.834 121 -111.501s143.334 -64 254.001 -94c161.333 -43.333 283.166 -97.166 365.499 -161.499s123.5 -153.833 123.5 -268.5c0 -76.667 -21.5 -142.834 -64.5 -198.501s-101.667 -98.5 -176 -128.5s-158.833 -45 -253.5 -45zM531.997 1592l180 231h64l2 -5
l-199 -231h-45z" />
    <glyph glyph-name="sacute" unicode="&#x15b;" horiz-adv-x="1009" 
d="M487 -21c-78.667 0 -151.166 12.668 -217.499 38.001s-121.833 60.333 -166.5 105v193h54v-163c39.333 -42 88 -72.333 146 -91s119.333 -28 184 -28c100 0 179.333 23.333 238 70s88 100.667 88 162c0 57.333 -24.5 109.5 -73.5 156.5s-134.5 83.833 -256.5 110.5
c-127.333 26.667 -218.166 61.667 -272.499 105s-81.5 106.333 -81.5 189c0 52 14 98.833 42 140.5s68.167 74.667 120.5 99s114.5 36.5 186.5 36.5c77.333 0 145.5 -13.333 204.5 -40s108.833 -62.334 149.5 -107.001v-202h-54v175
c-34.667 38.667 -75.667 68.334 -123 89.001s-106.333 31 -177 31c-98 0 -171.667 -22.667 -221 -68s-74 -96 -74 -152c0 -38.667 8.16699 -72.667 24.5 -102s47.166 -55.5 92.499 -78.5s111.666 -44.167 198.999 -63.5c121.333 -26.667 213 -65 275 -115
s93 -118.333 93 -205c0 -84.667 -34.667 -153.334 -104 -206.001s-161.333 -79 -276 -79zM445.001 1329l180 231h64l2 -5l-199 -231h-45z" />
    <glyph glyph-name="Scircumflex" unicode="&#x15c;" horiz-adv-x="1183" 
d="M589 -21c-78 0 -159.17 12.335 -243.503 37.002s-166.166 63.667 -245.499 117v257h54v-226c72 -45.333 145 -78.5 219 -99.5s146 -31.5 216 -31.5c85.333 0 161 13.333 227 40s117.833 63.834 155.5 111.501s56.5 102.5 56.5 164.5
c0 61.333 -14.5 114.666 -43.5 159.999s-76.167 85.666 -141.5 120.999s-153.333 68.333 -264 99s-198.667 63.334 -264 98.001s-112.166 76 -140.499 124s-42.5 107.333 -42.5 178c0 69.333 18.667 130 56 182s89.833 92.667 157.5 122s146.5 44 236.5 44
c94 0 178.833 -14 254.5 -42s141.834 -65.667 198.501 -113v-234h-54v204c-52 43.333 -112 76 -180 98s-141 33 -219 33c-84.667 0 -156.5 -13.5 -215.5 -40.5s-103.833 -62.667 -134.5 -107s-46 -92.5 -46 -144.5c0 -54.667 11 -102.834 33 -144.501
s62.333 -78.834 121 -111.501s143.334 -64 254.001 -94c161.333 -43.333 283.166 -97.166 365.499 -161.499s123.5 -153.833 123.5 -268.5c0 -76.667 -21.5 -142.834 -64.5 -198.501s-101.667 -98.5 -176 -128.5s-158.833 -45 -253.5 -45zM339.997 1600v17l218 206h65
l221 -210v-13h-60l-195 186l-190 -186h-59z" />
    <glyph glyph-name="scircumflex" unicode="&#x15d;" horiz-adv-x="1009" 
d="M487 -21c-78.667 0 -151.166 12.668 -217.499 38.001s-121.833 60.333 -166.5 105v193h54v-163c39.333 -42 88 -72.333 146 -91s119.333 -28 184 -28c100 0 179.333 23.333 238 70s88 100.667 88 162c0 57.333 -24.5 109.5 -73.5 156.5s-134.5 83.833 -256.5 110.5
c-127.333 26.667 -218.166 61.667 -272.499 105s-81.5 106.333 -81.5 189c0 52 14 98.833 42 140.5s68.167 74.667 120.5 99s114.5 36.5 186.5 36.5c77.333 0 145.5 -13.333 204.5 -40s108.833 -62.334 149.5 -107.001v-202h-54v175
c-34.667 38.667 -75.667 68.334 -123 89.001s-106.333 31 -177 31c-98 0 -171.667 -22.667 -221 -68s-74 -96 -74 -152c0 -38.667 8.16699 -72.667 24.5 -102s47.166 -55.5 92.499 -78.5s111.666 -44.167 198.999 -63.5c121.333 -26.667 213 -65 275 -115
s93 -118.333 93 -205c0 -84.667 -34.667 -153.334 -104 -206.001s-161.333 -79 -276 -79zM253.001 1337v17l218 206h65l221 -210v-13h-60l-195 186l-190 -186h-59z" />
    <glyph glyph-name="Scedilla" unicode="&#x15e;" horiz-adv-x="1183" 
d="M589 -21c-78 0 -159.17 12.335 -243.503 37.002s-166.166 63.667 -245.499 117v257h54v-226c72 -45.333 145 -78.5 219 -99.5s146 -31.5 216 -31.5c85.333 0 161 13.333 227 40s117.833 63.834 155.5 111.501s56.5 102.5 56.5 164.5
c0 61.333 -14.5 114.666 -43.5 159.999s-76.167 85.666 -141.5 120.999s-153.333 68.333 -264 99s-198.667 63.334 -264 98.001s-112.166 76 -140.499 124s-42.5 107.333 -42.5 178c0 69.333 18.667 130 56 182s89.833 92.667 157.5 122s146.5 44 236.5 44
c94 0 178.833 -14 254.5 -42s141.834 -65.667 198.501 -113v-234h-54v204c-52 43.333 -112 76 -180 98s-141 33 -219 33c-84.667 0 -156.5 -13.5 -215.5 -40.5s-103.833 -62.667 -134.5 -107s-46 -92.5 -46 -144.5c0 -54.667 11 -102.834 33 -144.501
s62.333 -78.834 121 -111.501s143.334 -64 254.001 -94c161.333 -43.333 283.166 -97.166 365.499 -161.499s123.5 -153.833 123.5 -268.5c0 -76.667 -21.5 -142.834 -64.5 -198.501s-101.667 -98.5 -176 -128.5s-158.833 -45 -253.5 -45zM473.997 -434.998l-7 49
c69.333 0 129.5 12 180.5 36s76.5 59 76.5 105c0 42.667 -15.167 72.334 -45.5 89.001s-84.833 28.334 -163.5 35.001l25 121h53l-11 -76c60.667 -4.66699 108.667 -19.834 144 -45.501s53 -66.834 53 -123.501c0 -58 -26.333 -104.167 -79 -138.5s-128 -51.5 -226 -51.5z
" />
    <glyph glyph-name="scedilla" unicode="&#x15f;" horiz-adv-x="1009" 
d="M487 -21c-78.667 0 -151.166 12.668 -217.499 38.001s-121.833 60.333 -166.5 105v193h54v-163c39.333 -42 88 -72.333 146 -91s119.333 -28 184 -28c100 0 179.333 23.333 238 70s88 100.667 88 162c0 57.333 -24.5 109.5 -73.5 156.5s-134.5 83.833 -256.5 110.5
c-127.333 26.667 -218.166 61.667 -272.499 105s-81.5 106.333 -81.5 189c0 52 14 98.833 42 140.5s68.167 74.667 120.5 99s114.5 36.5 186.5 36.5c77.333 0 145.5 -13.333 204.5 -40s108.833 -62.334 149.5 -107.001v-202h-54v175
c-34.667 38.667 -75.667 68.334 -123 89.001s-106.333 31 -177 31c-98 0 -171.667 -22.667 -221 -68s-74 -96 -74 -152c0 -38.667 8.16699 -72.667 24.5 -102s47.166 -55.5 92.499 -78.5s111.666 -44.167 198.999 -63.5c121.333 -26.667 213 -65 275 -115
s93 -118.333 93 -205c0 -84.667 -34.667 -153.334 -104 -206.001s-161.333 -79 -276 -79zM386.001 -434.999l-7 49c69.333 0 129.5 12 180.5 36s76.5 59 76.5 105c0 42.667 -15.167 72.334 -45.5 89.001s-84.833 28.334 -163.5 35.001l25 121h53l-11 -76
c60.667 -4.66699 108.667 -19.834 144 -45.501s53 -66.834 53 -123.501c0 -58 -26.333 -104.167 -79 -138.5s-128 -51.5 -226 -51.5z" />
    <glyph glyph-name="Scaron" unicode="&#x160;" horiz-adv-x="1183" 
d="M589 -21c-78 0 -159.17 12.335 -243.503 37.002s-166.166 63.667 -245.499 117v257h54v-226c72 -45.333 145 -78.5 219 -99.5s146 -31.5 216 -31.5c85.333 0 161 13.333 227 40s117.833 63.834 155.5 111.501s56.5 102.5 56.5 164.5
c0 61.333 -14.5 114.666 -43.5 159.999s-76.167 85.666 -141.5 120.999s-153.333 68.333 -264 99s-198.667 63.334 -264 98.001s-112.166 76 -140.499 124s-42.5 107.333 -42.5 178c0 69.333 18.667 130 56 182s89.833 92.667 157.5 122s146.5 44 236.5 44
c94 0 178.833 -14 254.5 -42s141.834 -65.667 198.501 -113v-234h-54v204c-52 43.333 -112 76 -180 98s-141 33 -219 33c-84.667 0 -156.5 -13.5 -215.5 -40.5s-103.833 -62.667 -134.5 -107s-46 -92.5 -46 -144.5c0 -54.667 11 -102.834 33 -144.501
s62.333 -78.834 121 -111.501s143.334 -64 254.001 -94c161.333 -43.333 283.166 -97.166 365.499 -161.499s123.5 -153.833 123.5 -268.5c0 -76.667 -21.5 -142.834 -64.5 -198.501s-101.667 -98.5 -176 -128.5s-158.833 -45 -253.5 -45zM843.997 1823v-17l-218 -206h-65
l-221 210v13h60l195 -186l190 186h59z" />
    <glyph glyph-name="scaron" unicode="&#x161;" horiz-adv-x="1009" 
d="M487 -21c-78.667 0 -151.166 12.668 -217.499 38.001s-121.833 60.333 -166.5 105v193h54v-163c39.333 -42 88 -72.333 146 -91s119.333 -28 184 -28c100 0 179.333 23.333 238 70s88 100.667 88 162c0 57.333 -24.5 109.5 -73.5 156.5s-134.5 83.833 -256.5 110.5
c-127.333 26.667 -218.166 61.667 -272.499 105s-81.5 106.333 -81.5 189c0 52 14 98.833 42 140.5s68.167 74.667 120.5 99s114.5 36.5 186.5 36.5c77.333 0 145.5 -13.333 204.5 -40s108.833 -62.334 149.5 -107.001v-202h-54v175
c-34.667 38.667 -75.667 68.334 -123 89.001s-106.333 31 -177 31c-98 0 -171.667 -22.667 -221 -68s-74 -96 -74 -152c0 -38.667 8.16699 -72.667 24.5 -102s47.166 -55.5 92.499 -78.5s111.666 -44.167 198.999 -63.5c121.333 -26.667 213 -65 275 -115
s93 -118.333 93 -205c0 -84.667 -34.667 -153.334 -104 -206.001s-161.333 -79 -276 -79zM757.001 1560v-17l-218 -206h-65l-221 210v13h60l195 -186l190 186h59z" />
    <glyph glyph-name="uni0162" unicode="&#x162;" horiz-adv-x="1277" 
d="M447 0v54h163v1348h-476v-239h-54v293h1114v-293h-54v239h-476v-1348h163v-54h-380zM521 -435l-7 49c69.333 0 129.5 12 180.5 36s76.5 59 76.5 105c0 42.667 -15.167 72.334 -45.5 89.001s-84.833 28.334 -163.5 35.001l25 121h53l-11 -76
c60.667 -4.66699 108.667 -19.834 144 -45.501s53 -66.834 53 -123.501c0 -58 -26.333 -104.167 -79 -138.5s-128 -51.5 -226 -51.5z" />
    <glyph glyph-name="uni0163" unicode="&#x163;" horiz-adv-x="719" 
d="M487 -21c-72.667 0 -127.833 23.6699 -165.5 71.0029s-56.5 123.666 -56.5 228.999v748h-200v55h200v292h55v-292h266v-55h-266v-748c0 -88.667 15 -151.834 45 -189.501s69.667 -56.5 119 -56.5c21.333 0 40.333 0.666992 57 2s39.667 3.66602 69 6.99902l10 -49
c-20 -5.33301 -40.5 -9 -61.5 -11s-44.833 -3 -71.5 -3zM345.001 -434.997l-7 49c69.333 0 129.5 12 180.5 36s76.5 59 76.5 105c0 42.667 -15.167 72.334 -45.5 89.001s-84.833 28.334 -163.5 35.001l25 121h53l-11 -76c60.667 -4.66699 108.667 -19.834 144 -45.501
s53 -66.834 53 -123.501c0 -58 -26.333 -104.167 -79 -138.5s-128 -51.5 -226 -51.5z" />
    <glyph glyph-name="Tcaron" unicode="&#x164;" horiz-adv-x="1277" 
d="M447 0v54h163v1348h-476v-239h-54v293h1114v-293h-54v239h-476v-1348h163v-54h-380zM891 1823v-17l-218 -206h-65l-221 210v13h60l195 -186l190 186h59z" />
    <glyph glyph-name="tcaron" unicode="&#x165;" horiz-adv-x="719" 
d="M487 -21c-72.667 0 -127.833 23.6699 -165.5 71.0029s-56.5 123.666 -56.5 228.999v748h-200v55h200v292h55v-292h266v-55h-266v-748c0 -88.667 15 -151.834 45 -189.501s69.667 -56.5 119 -56.5c21.333 0 40.333 0.666992 57 2s39.667 3.66602 69 6.99902l10 -49
c-20 -5.33301 -40.5 -9 -61.5 -11s-44.833 -3 -71.5 -3zM548.001 1284l-37 32.002c21.333 29.333 36.833 57.166 46.5 83.499s14.5 58.166 14.5 95.499v65h54v-63c0 -44.667 -7 -84.5 -21 -119.5s-33 -66.167 -57 -93.5z" />
    <glyph glyph-name="Tbar" unicode="&#x166;" horiz-adv-x="1277" 
d="M447 0v54h163v1348h-476v-239h-54v293h1114v-293h-54v239h-476v-1348h163v-54h-380zM378 708v54h521v-54h-521z" />
    <glyph glyph-name="tbar" unicode="&#x167;" horiz-adv-x="719" 
d="M487 -21c-72.667 0 -127.833 23.6699 -165.5 71.0029s-56.5 123.666 -56.5 228.999v748h-200v55h200v292h55v-292h266v-55h-266v-748c0 -88.667 15 -151.834 45 -189.501s69.667 -56.5 119 -56.5c21.333 0 40.333 0.666992 57 2s39.667 3.66602 69 6.99902l10 -49
c-20 -5.33301 -40.5 -9 -61.5 -11s-44.833 -3 -71.5 -3zM64.001 635.003v54h521v-54h-521z" />
    <glyph glyph-name="Utilde" unicode="&#x168;" horiz-adv-x="1441" 
d="M721 -21c-99.333 0 -186.335 18.834 -261.002 56.501s-132.834 93 -174.501 166s-62.5 162.167 -62.5 267.5v933h-163v54h380v-54h-163v-933c0 -91.333 18.833 -169.5 56.5 -234.5s89.834 -114.833 156.501 -149.5s143.667 -52 231 -52
c86.667 0 163.334 17.333 230.001 52s118.834 84.5 156.501 149.5s56.5 143.167 56.5 234.5v933h-163v54h380v-54h-163v-933c0 -106 -21 -195.333 -63 -268s-100.333 -127.834 -175 -165.501s-161 -56.5 -259 -56.5zM453.998 1635h-52.9971c0 36.667 7.5 68.5 22.5 95.5
s35 48.167 60 63.5s52.5 23 82.5 23c38.667 0 76.167 -10.333 112.5 -31s71.166 -41.5 104.499 -62.5s64.666 -31.5 93.999 -31.5c27.333 0 52.5 11.5 75.5 34.5s34.5 55.167 34.5 96.5h53c0 -36 -7.33301 -68 -22 -96s-34 -49.833 -58 -65.5s-50.667 -23.5 -80 -23.5
c-38 0 -75.167 10.5 -111.5 31.5l-105.5 63c-34 21 -66.667 31.5 -98 31.5c-28.667 0 -54.334 -11 -77.001 -33s-34 -54 -34 -96z" />
    <glyph glyph-name="utilde" unicode="&#x169;" horiz-adv-x="1202" 
d="M533 -21c-109.333 0 -194.333 39.501 -255 118.501s-91 201.5 -91 367.5v563h-143v54h143h54v-619c0 -146.667 25.833 -255 77.5 -325s122.5 -105 212.5 -105c112.667 0 197.5 27.667 254.5 83s93.833 128.666 110.5 219.999v692h-163v54h163h55v-1028h163v-54h-208
l-8 194c-34 -68.667 -80.833 -121.667 -140.5 -159s-134.5 -56 -224.5 -56zM334 1372h-52.9971c0 36.667 7.5 68.5 22.5 95.5s35 48.167 60 63.5s52.5 23 82.5 23c38.667 0 76.167 -10.333 112.5 -31s71.166 -41.5 104.499 -62.5s64.666 -31.5 93.999 -31.5
c27.333 0 52.5 11.5 75.5 34.5s34.5 55.167 34.5 96.5h53c0 -36 -7.33301 -68 -22 -96s-34 -49.833 -58 -65.5s-50.667 -23.5 -80 -23.5c-38 0 -75.167 10.5 -111.5 31.5l-105.5 63c-34 21 -66.667 31.5 -98 31.5c-28.667 0 -54.334 -11 -77.001 -33s-34 -54 -34 -96z" />
    <glyph glyph-name="Umacron" unicode="&#x16a;" horiz-adv-x="1441" 
d="M721 -21c-99.333 0 -186.335 18.834 -261.002 56.501s-132.834 93 -174.501 166s-62.5 162.167 -62.5 267.5v933h-163v54h380v-54h-163v-933c0 -91.333 18.833 -169.5 56.5 -234.5s89.834 -114.833 156.501 -149.5s143.667 -52 231 -52
c86.667 0 163.334 17.333 230.001 52s118.834 84.5 156.501 149.5s56.5 143.167 56.5 234.5v933h-163v54h380v-54h-163v-933c0 -106 -21 -195.333 -63 -268s-100.333 -127.834 -175 -165.501s-161 -56.5 -259 -56.5zM406.998 1683v53h627v-53h-627z" />
    <glyph glyph-name="umacron" unicode="&#x16b;" horiz-adv-x="1202" 
d="M533 -21c-109.333 0 -194.333 39.501 -255 118.501s-91 201.5 -91 367.5v563h-143v54h143h54v-619c0 -146.667 25.833 -255 77.5 -325s122.5 -105 212.5 -105c112.667 0 197.5 27.667 254.5 83s93.833 128.666 110.5 219.999v692h-163v54h163h55v-1028h163v-54h-208
l-8 194c-34 -68.667 -80.833 -121.667 -140.5 -159s-134.5 -56 -224.5 -56zM287 1420v53h627v-53h-627z" />
    <glyph glyph-name="Ubreve" unicode="&#x16c;" horiz-adv-x="1441" 
d="M721 -21c-99.333 0 -186.335 18.834 -261.002 56.501s-132.834 93 -174.501 166s-62.5 162.167 -62.5 267.5v933h-163v54h380v-54h-163v-933c0 -91.333 18.833 -169.5 56.5 -234.5s89.834 -114.833 156.501 -149.5s143.667 -52 231 -52
c86.667 0 163.334 17.333 230.001 52s118.834 84.5 156.501 149.5s56.5 143.167 56.5 234.5v933h-163v54h380v-54h-163v-933c0 -106 -21 -195.333 -63 -268s-100.333 -127.834 -175 -165.501s-161 -56.5 -259 -56.5zM721.998 1581c-86 0 -153.5 22 -202.5 66
s-73.167 100.667 -72.5 170l2 6h52c0 -56 17.667 -101.333 53 -136s91.333 -52 168 -52c73.333 0 128.333 17.667 165 53s55 80.333 55 135h52l2 -6c0 -69.333 -24.333 -126 -73 -170s-115.667 -66 -201 -66z" />
    <glyph glyph-name="ubreve" unicode="&#x16d;" horiz-adv-x="1202" 
d="M533 -21c-109.333 0 -194.333 39.501 -255 118.501s-91 201.5 -91 367.5v563h-143v54h143h54v-619c0 -146.667 25.833 -255 77.5 -325s122.5 -105 212.5 -105c112.667 0 197.5 27.667 254.5 83s93.833 128.666 110.5 219.999v692h-163v54h163h55v-1028h163v-54h-208
l-8 194c-34 -68.667 -80.833 -121.667 -140.5 -159s-134.5 -56 -224.5 -56zM602 1318c-86 0 -153.5 22 -202.5 66s-73.167 100.667 -72.5 170l2 6h52c0 -56 17.667 -101.333 53 -136s91.333 -52 168 -52c73.333 0 128.333 17.667 165 53s55 80.333 55 135h52l2 -6
c0 -69.333 -24.333 -126 -73 -170s-115.667 -66 -201 -66z" />
    <glyph glyph-name="Uring" unicode="&#x16e;" horiz-adv-x="1441" 
d="M721 -21c-99.333 0 -186.335 18.834 -261.002 56.501s-132.834 93 -174.501 166s-62.5 162.167 -62.5 267.5v933h-163v54h380v-54h-163v-933c0 -91.333 18.833 -169.5 56.5 -234.5s89.834 -114.833 156.501 -149.5s143.667 -52 231 -52
c86.667 0 163.334 17.333 230.001 52s118.834 84.5 156.501 149.5s56.5 143.167 56.5 234.5v933h-163v54h380v-54h-163v-933c0 -106 -21 -195.333 -63 -268s-100.333 -127.834 -175 -165.501s-161 -56.5 -259 -56.5zM720.998 1475c-48 0 -88.5 16.167 -121.5 48.5
s-49.5 72.833 -49.5 121.5c0 49.333 16.5 90.666 49.5 123.999s73.5 50 121.5 50c47.333 0 87.666 -16.667 120.999 -50s50 -74.666 50 -123.999c0 -48.667 -16.667 -89.167 -50 -121.5s-73.666 -48.5 -120.999 -48.5zM720.998 1529c34 0 62 10.667 84 32s33 49.333 33 84
c0 35.333 -11 64.166 -33 86.499s-50 33.5 -84 33.5s-62 -11.167 -84 -33.5s-33 -51.166 -33 -86.499c0 -34.667 11 -62.667 33 -84s50 -32 84 -32z" />
    <glyph glyph-name="uring" unicode="&#x16f;" horiz-adv-x="1202" 
d="M533 -21c-109.333 0 -194.333 39.501 -255 118.501s-91 201.5 -91 367.5v563h-143v54h143h54v-619c0 -146.667 25.833 -255 77.5 -325s122.5 -105 212.5 -105c112.667 0 197.5 27.667 254.5 83s93.833 128.666 110.5 219.999v692h-163v54h163h55v-1028h163v-54h-208
l-8 194c-34 -68.667 -80.833 -121.667 -140.5 -159s-134.5 -56 -224.5 -56zM601 1212c-48 0 -88.5 16.167 -121.5 48.5s-49.5 72.833 -49.5 121.5c0 49.333 16.5 90.666 49.5 123.999s73.5 50 121.5 50c47.333 0 87.666 -16.667 120.999 -50s50 -74.666 50 -123.999
c0 -48.667 -16.667 -89.167 -50 -121.5s-73.666 -48.5 -120.999 -48.5zM601 1266c34 0 62 10.667 84 32s33 49.333 33 84c0 35.333 -11 64.166 -33 86.499s-50 33.5 -84 33.5s-62 -11.167 -84 -33.5s-33 -51.166 -33 -86.499c0 -34.667 11 -62.667 33 -84s50 -32 84 -32z
" />
    <glyph glyph-name="Uhungarumlaut" unicode="&#x170;" horiz-adv-x="1441" 
d="M721 -21c-99.333 0 -186.335 18.834 -261.002 56.501s-132.834 93 -174.501 166s-62.5 162.167 -62.5 267.5v933h-163v54h380v-54h-163v-933c0 -91.333 18.833 -169.5 56.5 -234.5s89.834 -114.833 156.501 -149.5s143.667 -52 231 -52
c86.667 0 163.334 17.333 230.001 52s118.834 84.5 156.501 149.5s56.5 143.167 56.5 234.5v933h-163v54h380v-54h-163v-933c0 -106 -21 -195.333 -63 -268s-100.333 -127.834 -175 -165.501s-161 -56.5 -259 -56.5zM754.998 1587l-2 6l214 230h68l2 -6l-231 -230h-51z
M519.998 1590l-2 5l179 228h64l3 -6l-196 -227h-48z" />
    <glyph glyph-name="uhungarumlaut" unicode="&#x171;" horiz-adv-x="1202" 
d="M533 -21c-109.333 0 -194.333 39.501 -255 118.501s-91 201.5 -91 367.5v563h-143v54h143h54v-619c0 -146.667 25.833 -255 77.5 -325s122.5 -105 212.5 -105c112.667 0 197.5 27.667 254.5 83s93.833 128.666 110.5 219.999v692h-163v54h163h55v-1028h163v-54h-208
l-8 194c-34 -68.667 -80.833 -121.667 -140.5 -159s-134.5 -56 -224.5 -56zM635 1324l-2 6l214 230h68l2 -6l-231 -230h-51zM400 1327l-2 5l179 228h64l3 -6l-196 -227h-48z" />
    <glyph glyph-name="Uogonek" unicode="&#x172;" horiz-adv-x="1441" 
d="M721 -21c-99.333 0 -186.335 18.834 -261.002 56.501s-132.834 93 -174.501 166s-62.5 162.167 -62.5 267.5v933h-163v54h380v-54h-163v-933c0 -91.333 18.833 -169.5 56.5 -234.5s89.834 -114.833 156.501 -149.5s143.667 -52 231 -52
c86.667 0 163.334 17.333 230.001 52s118.834 84.5 156.501 149.5s56.5 143.167 56.5 234.5v933h-163v54h380v-54h-163v-933c0 -106 -21 -195.333 -63 -268s-100.333 -127.834 -175 -165.501s-161 -56.5 -259 -56.5zM758.998 -422.999
c-49.333 0 -89.668 15.1689 -121.001 45.502s-47 72.833 -47 127.5c0 43.333 13.333 85.833 40 127.5s72 89.167 136 142.5l52 -20c-59.333 -52.667 -103.166 -96.834 -131.499 -132.501s-42.5 -74.834 -42.5 -117.501c0 -24.667 7.33301 -50.667 22 -78
s45.334 -41 92.001 -41c21.333 0 40.166 3.5 56.499 10.5s32.833 16.167 49.5 27.5l16 -48c-16 -12 -34 -22.333 -54 -31s-42.667 -13 -68 -13z" />
    <glyph glyph-name="uogonek" unicode="&#x173;" horiz-adv-x="1202" 
d="M533 -21c-109.333 0 -194.333 39.501 -255 118.501s-91 201.5 -91 367.5v563h-143v54h143h54v-619c0 -146.667 25.833 -255 77.5 -325s122.5 -105 212.5 -105c112.667 0 197.5 27.667 254.5 83s93.833 128.666 110.5 219.999v692h-163v54h163h55v-1028h163v-54h-208
l-8 194c-34 -68.667 -80.833 -121.667 -140.5 -159s-134.5 -56 -224.5 -56zM1054 -422.999c-49.333 0 -89.668 15.1689 -121.001 45.502s-47 72.833 -47 127.5c0 43.333 13.333 85.833 40 127.5s72 89.167 136 142.5l52 -20
c-59.333 -52.667 -103.166 -96.834 -131.499 -132.501s-42.5 -74.834 -42.5 -117.501c0 -24.667 7.33301 -50.667 22 -78s45.334 -41 92.001 -41c21.333 0 40.166 3.5 56.499 10.5s32.833 16.167 49.5 27.5l16 -48c-16 -12 -34 -22.333 -54 -31s-42.667 -13 -68 -13z" />
    <glyph glyph-name="Wcircumflex" unicode="&#x174;" horiz-adv-x="2000" 
d="M517 0l-359 1402h-101v54h320v-54h-160l269 -1072l63 -229h6l63 229l364 1126h60l362 -1126l62 -229h6l65 229l266 1072h-159v54h319v-54h-101l-358 -1402h-61l-381 1214l-48 145h-6l-46 -145l-384 -1214h-61zM761 1600v17l218 206h65l221 -210v-13h-60l-195 186
l-190 -186h-59z" />
    <glyph glyph-name="wcircumflex" unicode="&#x175;" horiz-adv-x="1787" 
d="M492 0l-318 1028h-122v54h332v-54h-148l217 -715l65 -221l6 -1l70 222l257 769h55l264 -769l75 -223l6 1l67 222l216 715h-148v54h333v-54h-123l-319 -1028h-55l-282 813l-59 181h-6l-55 -181l-273 -813h-55zM642 1337v17l218 206h65l221 -210v-13h-60l-195 186
l-190 -186h-59z" />
    <glyph glyph-name="Ycircumflex" unicode="&#x176;" horiz-adv-x="1429" 
d="M526 0v54h163v499l-515 849h-119v54h326v-54h-141l449 -755l26 -50l1 2l26 48l451 755h-141v54h326v-54h-120l-514 -849v-499h163v-54h-381zM463 1600v17l218 206h65l221 -210v-13h-60l-195 186l-190 -186h-59z" />
    <glyph glyph-name="ycircumflex" unicode="&#x177;" horiz-adv-x="1185" 
d="M283 -437c-12.667 0 -26.667 1.16895 -42 3.50195s-26.666 4.83301 -33.999 7.5l9 51c7.33301 -2 18.333 -4 33 -6s26 -3 34 -3c61.333 0 109.166 18 143.499 54s64.833 89.333 91.5 160l65 176l-410 1022h-118v54h319v-54h-142l335 -832l40 -108h6l359 940h-142v54h320
v-54h-118l-460 -1208c-19.333 -50.667 -40.5 -95.334 -63.5 -134.001s-52.167 -68.834 -87.5 -90.501s-81.333 -32.5 -138 -32.5zM341 1337v17l218 206h65l221 -210v-13h-60l-195 186l-190 -186h-59z" />
    <glyph glyph-name="Ydieresis" unicode="&#x178;" horiz-adv-x="1429" 
d="M526 0v54h163v499l-515 849h-119v54h326v-54h-141l449 -755l26 -50l1 2l26 48l451 755h-141v54h326v-54h-120l-514 -849v-499h163v-54h-381zM838 1685v138h72v-138h-72zM518 1685v138h73v-138h-73z" />
    <glyph glyph-name="Zacute" unicode="&#x179;" horiz-adv-x="1220" 
d="M92 0v44l929 1359h-835v-240h-54v293h964v-38l-930 -1364h908v239h54v-293h-1036zM550 1592l180 231h64l2 -5l-199 -231h-45z" />
    <glyph glyph-name="zacute" unicode="&#x17a;" horiz-adv-x="1077" 
d="M120 0v44l711 983h-656v-238h-54v293h783v-48l-711 -980h716v239h54v-293h-843zM479 1329l180 231h64l2 -5l-199 -231h-45z" />
    <glyph glyph-name="Zdotaccent" unicode="&#x17b;" horiz-adv-x="1220" 
d="M92 0v44l929 1359h-835v-240h-54v293h964v-38l-930 -1364h908v239h54v-293h-1036zM573 1683v140h72v-140h-72z" />
    <glyph glyph-name="zdotaccent" unicode="&#x17c;" horiz-adv-x="1077" 
d="M120 0v44l711 983h-656v-238h-54v293h783v-48l-711 -980h716v239h54v-293h-843zM502 1420v140h72v-140h-72z" />
    <glyph glyph-name="Zcaron" unicode="&#x17d;" horiz-adv-x="1220" 
d="M92 0v44l929 1359h-835v-240h-54v293h964v-38l-930 -1364h908v239h54v-293h-1036zM862 1823v-17l-218 -206h-65l-221 210v13h60l195 -186l190 186h59z" />
    <glyph glyph-name="zcaron" unicode="&#x17e;" horiz-adv-x="1077" 
d="M120 0v44l711 983h-656v-238h-54v293h783v-48l-711 -980h716v239h54v-293h-843zM791 1560v-17l-218 -206h-65l-221 210v13h60l195 -186l190 186h59z" />
    <glyph glyph-name="longs" unicode="&#x17f;" horiz-adv-x="699" 
d="M57 0v54h163v1206c0 102.667 24.667 181.834 74 237.501s118.666 83.5 207.999 83.5c22.667 0 44.834 -1.33301 66.501 -4s42.167 -7 61.5 -13l-8 -52c-20 5.33301 -38.5 9.16602 -55.5 11.499s-38.167 3.5 -63.5 3.5c-72 0 -128.167 -23.5 -168.5 -70.5
s-60.5 -112.5 -60.5 -196.5v-1206h163v-54h-380z" />
    <glyph glyph-name="uni018F" unicode="&#x18f;" horiz-adv-x="1388" 
d="M676 -21c-121.333 0 -226.834 24.833 -316.501 74.5s-159 120.167 -208 211.5s-73.5 199 -73.5 323v123h1117v124c0 116 -20.167 218.167 -60.5 306.5s-100.833 157.333 -181.5 207s-181.667 74.5 -303 74.5c-94 0 -179.167 -13.667 -255.5 -41s-142.833 -65 -199.5 -113
l-30 43c58.667 50 124.834 90 198.501 120s169.167 45 286.5 45c126.667 0 234.5 -26.833 323.5 -80.5s157.167 -128.5 204.5 -224.5s71 -208.333 71 -337v-172c0 -133.333 -24.833 -251.5 -74.5 -354.5s-117.5 -183.667 -203.5 -242s-184.333 -87.5 -295 -87.5zM675.999 33
c104.667 0 195.501 27.001 272.501 81.001s136.667 127.667 179 221s63.166 198.666 62.499 315.999l-2 5h-1056v-72c0 -106 21.833 -200.5 65.5 -283.5s106.167 -148.333 187.5 -196s178.333 -71.5 291 -71.5z" />
    <glyph glyph-name="florin" unicode="&#x192;" horiz-adv-x="780" 
d="M109 -437c-20 0 -38.667 1.66602 -56 4.99902s-36 8.33301 -56 15l13 52c12 -4 27.167 -8 45.5 -12s36.166 -6 53.499 -6c73.333 0 130.166 25.5 170.499 76.5s60.5 123.5 60.5 217.5v1116h-188v55h188v178c0 102 24.833 181 74.5 237s119.167 84 208.5 84
c22 0 43.833 -1.33301 65.5 -4s42.5 -7 62.5 -13l-8 -52c-21.333 5.33301 -40.166 9.16602 -56.499 11.499s-37.166 3.5 -62.499 3.5c-72 0 -128.333 -23.667 -169 -71s-61 -112.666 -61 -195.999v-178h286v-55h-286v-1116c0 -111.333 -25 -197.166 -75 -257.499
s-120 -90.5 -210 -90.5z" />
    <glyph glyph-name="Ohorn" unicode="&#x1a0;" horiz-adv-x="1488" 
d="M740 -21c-90.667 0 -173.331 17.5 -247.998 52.5s-139 85 -193 150s-95.667 142.833 -125 233.5s-44 192 -44 304v18c0 112 14.5 213.333 43.5 304s70.5 168.5 124.5 233.5s118.167 115 192.5 150s156.833 52.5 247.5 52.5c90 0 172.333 -17.5 247 -52.5
s139.167 -85 193.5 -150s96.166 -142.833 125.499 -233.5s44 -192 44 -304v-18c0 -112 -14.667 -213.5 -44 -304.5s-70.833 -168.833 -124.5 -233.5s-117.834 -114.5 -192.501 -149.5s-157 -52.5 -247 -52.5zM740.003 33c112.667 0 210.501 28.333 293.501 85
s147.167 136.5 192.5 239.5s68 223.5 68 361.5v20c0 137.333 -22.833 257.333 -68.5 360s-110.167 182.334 -193.5 239.001s-181.333 85 -294 85c-112 0 -209.333 -28.333 -292 -85s-146.834 -136.334 -192.501 -239.001s-68.5 -222.667 -68.5 -360v-20
c0 -138 22.833 -258.5 68.5 -361.5s110 -182.833 193 -239.5s180.833 -85 293.5 -85zM1161 1220v53c84.667 0 144.667 23.167 180 69.5s53 112.5 53 198.5h54c0 -64.667 -9.5 -121 -28.5 -169s-49.5 -85.333 -91.5 -112s-97.667 -40 -167 -40z" />
    <glyph glyph-name="ohorn" unicode="&#x1a1;" horiz-adv-x="1163" 
d="M579 -21c-94 0 -176.667 23 -248 69s-127 109.667 -167 191s-60 175 -60 281v42c0 106 20 199.5 60 280.5s95.5 144.5 166.5 190.5s153.167 69 246.5 69c94 0 176.5 -23 247.5 -69s126.5 -109.5 166.5 -190.5s60 -174.5 60 -280.5v-42c0 -106 -20 -199.667 -60 -281
s-95.5 -145 -166.5 -191s-152.833 -69 -245.5 -69zM579 33c84.667 0 158.333 21.833 221 65.5s111.167 102.334 145.5 176.001s51.5 155.5 51.5 245.5v42c0 88.667 -17.333 169.834 -52 243.501s-83.5 132.5 -146.5 176.5s-136.833 66 -221.5 66s-158.5 -22 -221.5 -66
s-111.667 -102.833 -146 -176.5s-51.5 -154.834 -51.5 -243.501v-42c0 -90.667 17.167 -172.834 51.5 -246.501s83 -132.167 146 -175.5s137.5 -65 223.5 -65zM900.999 900l-0.000976562 53c54.667 0 97.5 8.16699 128.5 24.5s53 42.333 66 78s19.5 82.5 19.5 140.5h55
c0 -68 -9.16699 -124 -27.5 -168s-47.166 -76.5 -86.499 -97.5s-91 -31.167 -155 -30.5z" />
    <glyph glyph-name="Uhorn" unicode="&#x1af;" horiz-adv-x="1540" 
d="M721 -21c-99.333 0 -186.335 18.834 -261.002 56.501s-132.834 93 -174.501 166s-62.5 162.167 -62.5 267.5v933h-163v54h380v-54h-163v-933c0 -91.333 18.833 -169.5 56.5 -234.5s89.834 -114.833 156.501 -149.5s143.667 -52 231 -52
c86.667 0 163.334 17.333 230.001 52s118.834 84.5 156.501 149.5s56.5 143.167 56.5 234.5v933h-163v54h217v-987c0 -106 -21 -195.333 -63 -268s-100.333 -127.834 -175 -165.501s-161 -56.5 -259 -56.5zM1199 1193l6 63.001c93.333 -2.66699 157.5 20 192.5 68
s52.5 123.667 52.5 227h50v-5c2 -116.667 -20.333 -204.334 -67 -263.001s-124.667 -88.667 -234 -90z" />
    <glyph glyph-name="uhorn" unicode="&#x1b0;" horiz-adv-x="1209" 
d="M533 -21c-109.333 0 -194.333 39.501 -255 118.501s-91 201.5 -91 367.5v563h-143v54h143h54v-619c0 -146.667 25.833 -255 77.5 -325s122.5 -105 212.5 -105c112.667 0 197.5 27.667 254.5 83s93.833 128.666 110.5 219.999v692h-163v54h163h55v-1028h163v-54h-208
l-8 194c-34 -68.667 -80.833 -121.667 -140.5 -159s-134.5 -56 -224.5 -56zM932 900.001l-0.000976562 53c54.667 0 97.5 8.16699 128.5 24.5s53 42.333 66 78s19.5 82.5 19.5 140.5h55c0 -68 -9.16699 -124 -27.5 -168s-47.166 -76.5 -86.499 -97.5s-91 -31.167 -155 -30.5
z" />
    <glyph glyph-name="uni01F0" unicode="&#x1f0;" horiz-adv-x="563" 
d="M108 -437c-20 0 -38.665 1.66602 -55.998 4.99902s-36 8.33301 -56 15l13 52c12 -4 27.167 -8 45.5 -12s36.166 -6 53.499 -6c73.333 0 130.166 25.5 170.499 76.5s60.5 123.5 60.5 217.5v1117h-163v54h217v-1171c0 -111.333 -25 -197.166 -75 -257.499
s-120 -90.5 -210 -90.5zM604.002 1560v-17l-218 -206h-65l-221 210v13h60l195 -186l190 186h59z" />
    <glyph glyph-name="Aringacute" unicode="&#x1fa;" horiz-adv-x="1472" 
d="M55 0v54h107l524 1402h66l525 -1402h107v-54h-309v54h143l-143 381h-712l-142 -381h143v-54h-309zM383 489h672l-305 820l-28 82h-6l-27 -82zM719 1404c-44.667 0 -82.667 15.167 -114 45.5s-47 68.5 -47 114.5s15.667 84.833 47 116.5s69.333 47.5 114 47.5
s82.667 -15.833 114 -47.5s47 -70.5 47 -116.5s-15.667 -84.167 -47 -114.5s-69.333 -45.5 -114 -45.5zM719 1458c31.333 0 57 9.83301 77 29.5s30 45.167 30 76.5c0 32.667 -10 59.167 -30 79.5s-45.667 30.5 -77 30.5c-30.667 0 -56.167 -10.167 -76.5 -30.5
s-30.5 -46.833 -30.5 -79.5c0 -31.333 10.167 -56.833 30.5 -76.5s45.833 -29.5 76.5 -29.5zM672 1788l139 214h64l2 -5l-158 -214h-45z" />
    <glyph glyph-name="aringacute" unicode="&#x1fb;" horiz-adv-x="1116" 
d="M417 -21c-94.667 0 -170.498 27.166 -227.498 81.499s-85.5 125.5 -85.5 213.5c0 64.667 19.5 121.834 58.5 171.501s94 88.5 165 116.5s154.5 42 250.5 42h249v138c0 90 -26 163.667 -78 221s-133.667 86 -245 86c-58.667 0 -112.334 -11 -161.001 -33
s-90 -48.667 -124 -80v-177h-54v206c44.667 41.333 94.5 74.5 149.5 99.5s118.5 37.5 190.5 37.5c124.667 0 218.5 -32.5 281.5 -97.5s94.5 -153.167 94.5 -264.5v-522c0 -28 1.16699 -55.667 3.5 -83s6.16602 -54.333 11.499 -81h150v-54h-197
c-8.66699 47.333 -14.5 83.5 -17.5 108.5s-4.5 55.167 -4.5 90.5c-40.667 -65.333 -96.5 -118.333 -167.5 -159s-151.833 -61 -242.5 -61zM417.002 31.999c82 0 161.332 23.001 237.999 69.001s134 109.667 172 191v257h-246c-127.333 0 -229.666 -25.833 -306.999 -77.5
s-116 -118.834 -116 -201.501c0 -67.333 24.333 -123.833 73 -169.5s110.667 -68.5 186 -68.5zM515.001 1068c-48 0 -88.5 16.167 -121.5 48.5s-49.5 72.833 -49.5 121.5c0 49.333 16.5 90.666 49.5 123.999s73.5 50 121.5 50c47.333 0 87.666 -16.667 120.999 -50
s50 -74.666 50 -123.999c0 -48.667 -16.667 -89.167 -50 -121.5s-73.666 -48.5 -120.999 -48.5zM515.001 1122c34 0 62 10.667 84 32s33 49.333 33 84c0 35.333 -11 64.166 -33 86.499s-50 33.5 -84 33.5s-62 -11.167 -84 -33.5s-33 -51.166 -33 -86.499
c0 -34.667 11 -62.667 33 -84s50 -32 84 -32zM468.001 1502l139 214h64l2 -5l-158 -214h-45z" />
    <glyph glyph-name="AEacute" unicode="&#x1fc;" horiz-adv-x="2026" 
d="M51 0v54h119l849 1402h776v-293h-54v239h-642l26 -616h588v-54h-586l28 -678h647v239h54v-293h-915v54h160l-15 371h-628l-223 -371h131v-54h-315zM490 478h594l-39 924l-5 1l-57 -105zM1037 1592l180 231h64l2 -5l-199 -231h-45z" />
    <glyph glyph-name="aeacute" unicode="&#x1fd;" horiz-adv-x="1795" 
d="M417 -21c-94.667 0 -170.499 28.501 -227.499 85.501s-85.5 131.5 -85.5 223.5c0 68 19.5 127.833 58.5 179.5s94 92 165 121s154.5 43.5 250.5 43.5h249v110c0 90 -26 163.667 -78 221s-133.667 86 -245 86c-58.667 0 -112.334 -11 -161.001 -33s-90 -48.667 -124 -80
v-177h-54v206c44.667 41.333 94.5 74.5 149.5 99.5s118.5 37.5 190.5 37.5c109.333 0 194.833 -24.333 256.5 -73s98.834 -115.334 111.501 -200.001c18 53.333 46.667 100.5 86 141.5s85.5 73.167 138.5 96.5s108.5 35 166.5 35c84 0 156.167 -17.833 216.5 -53.5
s106.666 -86.5 138.999 -152.5s48.5 -144.667 48.5 -236v-83h-787v-77c0 -138.667 33 -251.167 99 -337.5s165.667 -129.5 299 -129.5c68 0 130.167 11.5 186.5 34.5s104.833 55.167 145.5 96.5l30 -42c-43.333 -44 -92.833 -78.833 -148.5 -104.5
s-126.834 -38.5 -213.501 -38.5c-193.333 0 -329.666 89.667 -408.999 269c-46.667 -80.667 -109 -145.667 -187 -195s-166.667 -74 -266 -74zM417.001 32.001c56 0 111.5 11 166.5 33s105.333 53.667 151 95s81.5 91 107.5 149
c-4.66699 31.333 -8.33398 63.166 -11.001 95.499s-4 64.833 -4 97.5v75h-246c-127.333 0 -229.666 -27.167 -306.999 -81.5s-116 -124.833 -116 -211.5c0 -71.333 24.333 -131.166 73 -179.499s110.667 -72.5 186 -72.5zM883.001 632.001l731 0.000976562v32
c0 112 -30.5 204 -91.5 276s-147.167 108 -258.5 108c-72 0 -135.833 -17.833 -191.5 -53.5s-100 -84.334 -133 -146.001s-52.5 -132.167 -58.5 -211.5zM837.001 1329l180 231h64l2 -5l-199 -231h-45z" />
    <glyph glyph-name="Oslashacute" unicode="&#x1fe;" horiz-adv-x="1488" 
d="M740 -21c-90.667 0 -173.331 17.5 -247.998 52.5s-139 85 -193 150s-95.667 142.833 -125 233.5s-44 192 -44 304v18c0 112 14.5 213.333 43.5 304s70.5 168.5 124.5 233.5s118.167 115 192.5 150s156.833 52.5 247.5 52.5c90 0 172.333 -17.5 247 -52.5
s139.167 -85 193.5 -150s96.166 -142.833 125.499 -233.5s44 -192 44 -304v-18c0 -112 -14.667 -213.5 -44 -304.5s-70.833 -168.833 -124.5 -233.5s-117.834 -114.5 -192.501 -149.5s-157 -52.5 -247 -52.5zM740.003 33c112.667 0 210.501 28.333 293.501 85
s147.167 136.5 192.5 239.5s68 223.5 68 361.5v20c0 137.333 -22.833 257.333 -68.5 360s-110.167 182.334 -193.5 239.001s-181.333 85 -294 85c-112 0 -209.333 -28.333 -292 -85s-146.834 -136.334 -192.501 -239.001s-68.5 -222.667 -68.5 -360v-20
c0 -138 22.833 -258.5 68.5 -361.5s110 -182.833 193 -239.5s180.833 -85 293.5 -85zM212.004 -57l997 1570h66l-997 -1570h-66zM678.004 1592l180 231h64l2 -5l-199 -231h-45z" />
    <glyph glyph-name="oslashacute" unicode="&#x1ff;" horiz-adv-x="1155" 
d="M579 -21c-94 0 -176.667 23 -248 69s-127 109.667 -167 191s-60 175 -60 281v42c0 106 20 199.5 60 280.5s95.5 144.5 166.5 190.5s153.167 69 246.5 69c94 0 176.5 -23 247.5 -69s126.5 -109.5 166.5 -190.5s60 -174.5 60 -280.5v-42c0 -106 -20 -199.667 -60 -281
s-95.5 -145 -166.5 -191s-152.833 -69 -245.5 -69zM579 33c84.667 0 158.333 21.833 221 65.5s111.167 102.334 145.5 176.001s51.5 155.5 51.5 245.5v42c0 88.667 -17.333 169.834 -52 243.501s-83.5 132.5 -146.5 176.5s-136.833 66 -221.5 66s-158.5 -22 -221.5 -66
s-111.667 -102.833 -146 -176.5s-51.5 -154.834 -51.5 -243.501v-42c0 -90.667 17.167 -172.834 51.5 -246.501s83 -132.167 146 -175.5s137.5 -65 223.5 -65zM184.999 -141l723 1364h63l-723 -1364h-63zM517.999 1329l180 231h64l2 -5l-199 -231h-45z" />
    <glyph glyph-name="uni0218" unicode="&#x218;" horiz-adv-x="1183" 
d="M589 -21c-78 0 -159.17 12.335 -243.503 37.002s-166.166 63.667 -245.499 117v257h54v-226c72 -45.333 145 -78.5 219 -99.5s146 -31.5 216 -31.5c85.333 0 161 13.333 227 40s117.833 63.834 155.5 111.501s56.5 102.5 56.5 164.5
c0 61.333 -14.5 114.666 -43.5 159.999s-76.167 85.666 -141.5 120.999s-153.333 68.333 -264 99s-198.667 63.334 -264 98.001s-112.166 76 -140.499 124s-42.5 107.333 -42.5 178c0 69.333 18.667 130 56 182s89.833 92.667 157.5 122s146.5 44 236.5 44
c94 0 178.833 -14 254.5 -42s141.834 -65.667 198.501 -113v-234h-54v204c-52 43.333 -112 76 -180 98s-141 33 -219 33c-84.667 0 -156.5 -13.5 -215.5 -40.5s-103.833 -62.667 -134.5 -107s-46 -92.5 -46 -144.5c0 -54.667 11 -102.834 33 -144.501
s62.333 -78.834 121 -111.501s143.334 -64 254.001 -94c161.333 -43.333 283.166 -97.166 365.499 -161.499s123.5 -153.833 123.5 -268.5c0 -76.667 -21.5 -142.834 -64.5 -198.501s-101.667 -98.5 -176 -128.5s-158.833 -45 -253.5 -45zM553.997 -530.998l-37 32.002
c21.333 29.333 36.833 57.166 46.5 83.499s14.5 58.166 14.5 95.499v65h54v-63c0 -44.667 -7 -84.5 -21 -119.5s-33 -66.167 -57 -93.5z" />
    <glyph glyph-name="uni0219" unicode="&#x219;" horiz-adv-x="1009" 
d="M487 -21c-78.667 0 -151.166 12.668 -217.499 38.001s-121.833 60.333 -166.5 105v193h54v-163c39.333 -42 88 -72.333 146 -91s119.333 -28 184 -28c100 0 179.333 23.333 238 70s88 100.667 88 162c0 57.333 -24.5 109.5 -73.5 156.5s-134.5 83.833 -256.5 110.5
c-127.333 26.667 -218.166 61.667 -272.499 105s-81.5 106.333 -81.5 189c0 52 14 98.833 42 140.5s68.167 74.667 120.5 99s114.5 36.5 186.5 36.5c77.333 0 145.5 -13.333 204.5 -40s108.833 -62.334 149.5 -107.001v-202h-54v175
c-34.667 38.667 -75.667 68.334 -123 89.001s-106.333 31 -177 31c-98 0 -171.667 -22.667 -221 -68s-74 -96 -74 -152c0 -38.667 8.16699 -72.667 24.5 -102s47.166 -55.5 92.499 -78.5s111.666 -44.167 198.999 -63.5c121.333 -26.667 213 -65 275 -115
s93 -118.333 93 -205c0 -84.667 -34.667 -153.334 -104 -206.001s-161.333 -79 -276 -79zM466.001 -530.999l-37 32.002c21.333 29.333 36.833 57.166 46.5 83.499s14.5 58.166 14.5 95.499v65h54v-63c0 -44.667 -7 -84.5 -21 -119.5s-33 -66.167 -57 -93.5z" />
    <glyph glyph-name="uni021A" unicode="&#x21a;" horiz-adv-x="1277" 
d="M447 0v54h163v1348h-476v-239h-54v293h1114v-293h-54v239h-476v-1348h163v-54h-380zM601 -531l-37 32.002c21.333 29.333 36.833 57.166 46.5 83.499s14.5 58.166 14.5 95.499v65h54v-63c0 -44.667 -7 -84.5 -21 -119.5s-33 -66.167 -57 -93.5z" />
    <glyph glyph-name="uni021B" unicode="&#x21b;" horiz-adv-x="719" 
d="M487 -21c-72.667 0 -127.833 23.6699 -165.5 71.0029s-56.5 123.666 -56.5 228.999v748h-200v55h200v292h55v-292h266v-55h-266v-748c0 -88.667 15 -151.834 45 -189.501s69.667 -56.5 119 -56.5c21.333 0 40.333 0.666992 57 2s39.667 3.66602 69 6.99902l10 -49
c-20 -5.33301 -40.5 -9 -61.5 -11s-44.833 -3 -71.5 -3zM425.001 -530.997l-37 32.002c21.333 29.333 36.833 57.166 46.5 83.499s14.5 58.166 14.5 95.499v65h54v-63c0 -44.667 -7 -84.5 -21 -119.5s-33 -66.167 -57 -93.5z" />
    <glyph glyph-name="uni0237" unicode="&#x237;" horiz-adv-x="563" 
d="M108 -437c-20 0 -38.665 1.66602 -55.998 4.99902s-36 8.33301 -56 15l13 52c12 -4 27.167 -8 45.5 -12s36.166 -6 53.499 -6c73.333 0 130.166 25.5 170.499 76.5s60.5 123.5 60.5 217.5v1117h-163v54h217v-1171c0 -111.333 -25 -197.166 -75 -257.499
s-120 -90.5 -210 -90.5z" />
    <glyph glyph-name="uni0259" unicode="&#x259;" horiz-adv-x="1032" 
d="M501 -21c-82 0 -154.004 17.9961 -216.004 53.9961s-110.5 87.167 -145.5 153.5s-52.5 144.5 -52.5 234.5v83h811v26.5v50.5c0 86.667 -17.667 165.334 -53 236.001s-83.166 126.834 -143.499 168.501s-128.166 62.5 -203.499 62.5
c-81.333 0 -149.166 -11.167 -203.499 -33.5s-100.5 -55.166 -138.5 -98.499l-29 42c42 46.667 93.5 82.334 154.5 107.001s133.167 37 216.5 37c82 0 157.333 -23 226 -69s123.834 -108.333 165.501 -187s62.5 -167 62.5 -265v-64c0 -104 -20 -196.5 -60 -277.5
s-94 -144.667 -162 -191s-144.333 -69.5 -229 -69.5zM500.996 32.9961c71.333 0 135 17.833 191 53.5s101.167 84.5 135.5 146.5s54.833 132.333 61.5 211l-3 6h-745v-33c0 -74 15.167 -139.833 45.5 -197.5s72.5 -103.167 126.5 -136.5s116.667 -50 188 -50z" />
    <glyph glyph-name="uni02BC" unicode="&#x2bc;" horiz-adv-x="320" 
d="M114 1111l-37 32c30.667 40 53.167 78.833 67.5 116.5s21.5 81.5 21.5 131.5v169h54v-167c0 -39.333 -4.16699 -76 -12.5 -110s-20.5 -65.333 -36.5 -94s-35 -54.667 -57 -78z" />
    <glyph glyph-name="circumflex" unicode="&#x2c6;" horiz-adv-x="584" 
d="M40 1337v17l218 206h65l221 -210v-13h-60l-195 186l-190 -186h-59z" />
    <glyph glyph-name="caron" unicode="&#x2c7;" horiz-adv-x="584" 
d="M544 1560v-17l-218 -206h-65l-221 210v13h60l195 -186l190 186h59z" />
    <glyph glyph-name="uni02C9" unicode="&#x2c9;" horiz-adv-x="707" 
d="M40 1420v53h627v-53h-627z" />
    <glyph glyph-name="breve" unicode="&#x2d8;" horiz-adv-x="629" 
d="M315 1318c-86 0 -153.5 22 -202.5 66s-73.167 100.667 -72.5 170l2 6h52c0 -56 17.667 -101.333 53 -136s91.333 -52 168 -52c73.333 0 128.333 17.667 165 53s55 80.333 55 135h52l2 -6c0 -69.333 -24.333 -126 -73 -170s-115.667 -66 -201 -66z" />
    <glyph glyph-name="dotaccent" unicode="&#x2d9;" horiz-adv-x="152" 
d="M40 1420v140h72v-140h-72z" />
    <glyph glyph-name="ring" unicode="&#x2da;" horiz-adv-x="422" 
d="M211 1212c-48 0 -88.5 16.167 -121.5 48.5s-49.5 72.833 -49.5 121.5c0 49.333 16.5 90.666 49.5 123.999s73.5 50 121.5 50c47.333 0 87.666 -16.667 120.999 -50s50 -74.666 50 -123.999c0 -48.667 -16.667 -89.167 -50 -121.5s-73.666 -48.5 -120.999 -48.5zM211 1266
c34 0 62 10.667 84 32s33 49.333 33 84c0 35.333 -11 64.166 -33 86.499s-50 33.5 -84 33.5s-62 -11.167 -84 -33.5s-33 -51.166 -33 -86.499c0 -34.667 11 -62.667 33 -84s50 -32 84 -32z" />
    <glyph glyph-name="ogonek" unicode="&#x2db;" horiz-adv-x="413" 
d="M208 -423c-49.333 0 -89.668 15.1689 -121.001 45.502s-47 72.833 -47 127.5c0 43.333 13.333 85.833 40 127.5s72 89.167 136 142.5l52 -20c-59.333 -52.667 -103.166 -96.834 -131.499 -132.501s-42.5 -74.834 -42.5 -117.501c0 -24.667 7.33301 -50.667 22 -78
s45.334 -41 92.001 -41c21.333 0 40.166 3.5 56.499 10.5s32.833 16.167 49.5 27.5l16 -48c-16 -12 -34 -22.333 -54 -31s-42.667 -13 -68 -13z" />
    <glyph glyph-name="tilde" unicode="&#x2dc;" horiz-adv-x="719" 
d="M93 1372h-52.9971c0 36.667 7.5 68.5 22.5 95.5s35 48.167 60 63.5s52.5 23 82.5 23c38.667 0 76.167 -10.333 112.5 -31s71.166 -41.5 104.499 -62.5s64.666 -31.5 93.999 -31.5c27.333 0 52.5 11.5 75.5 34.5s34.5 55.167 34.5 96.5h53c0 -36 -7.33301 -68 -22 -96
s-34 -49.833 -58 -65.5s-50.667 -23.5 -80 -23.5c-38 0 -75.167 10.5 -111.5 31.5l-105.5 63c-34 21 -66.667 31.5 -98 31.5c-28.667 0 -54.334 -11 -77.001 -33s-34 -54 -34 -96z" />
    <glyph glyph-name="hungarumlaut" unicode="&#x2dd;" horiz-adv-x="866" 
d="M277 1324l-2 6l214 230h68l2 -6l-231 -230h-51zM42 1327l-2 5l179 228h64l3 -6l-196 -227h-48z" />
    <glyph glyph-name="uni02F3" unicode="&#x2f3;" horiz-adv-x="486" 
d="M243 -493c-48 0 -88.5 16.167 -121.5 48.5s-49.5 72.833 -49.5 121.5c0 49.333 16.5 90.666 49.5 123.999s73.5 50 121.5 50c47.333 0 87.666 -16.667 120.999 -50s50 -74.666 50 -123.999c0 -48.667 -16.667 -89.167 -50 -121.5s-73.666 -48.5 -120.999 -48.5zM243 -439
c34 0 62 10.667 84 32s33 49.333 33 84c0 35.333 -11 64.166 -33 86.499s-50 33.5 -84 33.5s-62 -11.167 -84 -33.5s-33 -51.166 -33 -86.499c0 -34.667 11 -62.667 33 -84s50 -32 84 -32z" />
    <glyph glyph-name="gravecomb" unicode="&#x300;" 
d="M286 1329l-2 -5h-45l-199 231l2 5h64z" />
    <glyph glyph-name="acutecomb" unicode="&#x301;" 
d="M40 1329l180 231h64l2 -5l-199 -231h-45z" />
    <glyph glyph-name="uni0302" unicode="&#x302;" 
d="M40 1337v17l218 206h65l221 -210v-13h-60l-195 186l-190 -186h-59z" />
    <glyph glyph-name="tildecomb" unicode="&#x303;" 
d="M93 1372h-52.9971c0 36.667 7.5 68.5 22.5 95.5s35 48.167 60 63.5s52.5 23 82.5 23c38.667 0 76.167 -10.333 112.5 -31s71.166 -41.5 104.499 -62.5s64.666 -31.5 93.999 -31.5c27.333 0 52.5 11.5 75.5 34.5s34.5 55.167 34.5 96.5h53c0 -36 -7.33301 -68 -22 -96
s-34 -49.833 -58 -65.5s-50.667 -23.5 -80 -23.5c-38 0 -75.167 10.5 -111.5 31.5l-105.5 63c-34 21 -66.667 31.5 -98 31.5c-28.667 0 -54.334 -11 -77.001 -33s-34 -54 -34 -96z" />
    <glyph glyph-name="uni0304" unicode="&#x304;" 
d="M40 1420v53h627v-53h-627z" />
    <glyph glyph-name="uni0306" unicode="&#x306;" 
d="M315 1318c-86 0 -153.5 22 -202.5 66s-73.167 100.667 -72.5 170l2 6h52c0 -56 17.667 -101.333 53 -136s91.333 -52 168 -52c73.333 0 128.333 17.667 165 53s55 80.333 55 135h52l2 -6c0 -69.333 -24.333 -126 -73 -170s-115.667 -66 -201 -66z" />
    <glyph glyph-name="uni0307" unicode="&#x307;" 
d="M40 1420v140h72v-140h-72z" />
    <glyph glyph-name="uni0308" unicode="&#x308;" 
d="M360 1422v138h72v-138h-72zM40 1422v138h73v-138h-73z" />
    <glyph glyph-name="hookabovecomb" unicode="&#x309;" 
d="M87 1292v98.999c63.333 5.33301 107.333 14.833 132 28.5s37 33.834 37 60.501c0 36.667 -20.667 62.667 -62 78s-92.666 23 -153.999 23l7 49c81.333 0 145.833 -13.167 193.5 -39.5s71.5 -63.166 71.5 -110.499c0 -40.667 -15.333 -72.334 -46 -95.001
s-74.334 -35.667 -131.001 -39v-54h-48z" />
    <glyph glyph-name="uni030A" unicode="&#x30a;" 
d="M211 1212c-48 0 -88.5 16.167 -121.5 48.5s-49.5 72.833 -49.5 121.5c0 49.333 16.5 90.666 49.5 123.999s73.5 50 121.5 50c47.333 0 87.666 -16.667 120.999 -50s50 -74.666 50 -123.999c0 -48.667 -16.667 -89.167 -50 -121.5s-73.666 -48.5 -120.999 -48.5zM211 1266
c34 0 62 10.667 84 32s33 49.333 33 84c0 35.333 -11 64.166 -33 86.499s-50 33.5 -84 33.5s-62 -11.167 -84 -33.5s-33 -51.166 -33 -86.499c0 -34.667 11 -62.667 33 -84s50 -32 84 -32z" />
    <glyph glyph-name="uni030B" unicode="&#x30b;" 
d="M277 1324l-2 6l214 230h68l2 -6l-231 -230h-51zM42 1327l-2 5l179 228h64l3 -6l-196 -227h-48z" />
    <glyph glyph-name="uni030C" unicode="&#x30c;" 
d="M544 1560v-17l-218 -206h-65l-221 210v13h60l195 -186l190 186h59z" />
    <glyph glyph-name="uni030F" unicode="&#x30f;" 
d="M322 1324h-51l-231 230l2 6h68l214 -230zM557 1327h-48l-196 227l3 6h64l179 -228z" />
    <glyph glyph-name="uni0312" unicode="&#x312;" 
d="M118 1640l37 -31.999c-20.667 -28.667 -36 -56.334 -46 -83.001s-15 -58.667 -15 -96v-65h-54v63c0 45.333 7 85.5 21 120.5s33 65.833 57 92.5z" />
    <glyph glyph-name="uni031B" unicode="&#x31b;" 
d="M40 900l-0.000976562 53c54.667 0 97.5 8.16699 128.5 24.5s53 42.333 66 78s19.5 82.5 19.5 140.5h55c0 -68 -9.16699 -124 -27.5 -168s-47.166 -76.5 -86.499 -97.5s-91 -31.167 -155 -30.5z" />
    <glyph glyph-name="dotbelowcomb" unicode="&#x323;" 
d="M40 -367v140h72v-140h-72z" />
    <glyph glyph-name="uni0325" unicode="&#x325;" 
d="M211 -493c-48 0 -88.5 16.167 -121.5 48.5s-49.5 72.833 -49.5 121.5c0 49.333 16.5 90.666 49.5 123.999s73.5 50 121.5 50c47.333 0 87.666 -16.667 120.999 -50s50 -74.666 50 -123.999c0 -48.667 -16.667 -89.167 -50 -121.5s-73.666 -48.5 -120.999 -48.5zM211 -439
c34 0 62 10.667 84 32s33 49.333 33 84c0 35.333 -11 64.166 -33 86.499s-50 33.5 -84 33.5s-62 -11.167 -84 -33.5s-33 -51.166 -33 -86.499c0 -34.667 11 -62.667 33 -84s50 -32 84 -32z" />
    <glyph glyph-name="uni0326.1" unicode="&#x326;" 
d="M77 -531l-37 32.002c21.333 29.333 36.833 57.166 46.5 83.499s14.5 58.166 14.5 95.499v65h54v-63c0 -44.667 -7 -84.5 -21 -119.5s-33 -66.167 -57 -93.5z" />
    <glyph glyph-name="uni0327" unicode="&#x327;" 
d="M47 -435l-7 49c69.333 0 129.5 12 180.5 36s76.5 59 76.5 105c0 42.667 -15.167 72.334 -45.5 89.001s-84.833 28.334 -163.5 35.001l25 121h53l-11 -76c60.667 -4.66699 108.667 -19.834 144 -45.501s53 -66.834 53 -123.501c0 -58 -26.333 -104.167 -79 -138.5
s-128 -51.5 -226 -51.5z" />
    <glyph glyph-name="uni0328" unicode="&#x328;" 
d="M208 -423c-49.333 0 -89.668 15.1689 -121.001 45.502s-47 72.833 -47 127.5c0 43.333 13.333 85.833 40 127.5s72 89.167 136 142.5l52 -20c-59.333 -52.667 -103.166 -96.834 -131.499 -132.501s-42.5 -74.834 -42.5 -117.501c0 -24.667 7.33301 -50.667 22 -78
s45.334 -41 92.001 -41c21.333 0 40.166 3.5 56.499 10.5s32.833 16.167 49.5 27.5l16 -48c-16 -12 -34 -22.333 -54 -31s-42.667 -13 -68 -13z" />
    <glyph glyph-name="uni0335" unicode="&#x335;" 
d="M40 721v54h521v-54h-521z" />
    <glyph glyph-name="uni0336" unicode="&#x336;" 
d="M40 721v54h1364v-54h-1364z" />
    <glyph glyph-name="uni0337" unicode="&#x337;" 
d="M40 684v59l460 187v-59z" />
    <glyph glyph-name="uni0338" unicode="&#x338;" 
d="M40 -145l723 1364h63l-723 -1364h-63z" />
    <glyph glyph-name="tonos" unicode="&#x384;" horiz-adv-x="462" 
d="M137 1305l130 273h68l-150 -273h-48z" />
    <glyph glyph-name="dieresistonos" unicode="&#x385;" horiz-adv-x="482" 
d="M210 1417l85 240h75l-118 -240h-42zM40 1320v136h73v-136h-73zM370 1320v136h72v-136h-72z" />
    <glyph glyph-name="Alphatonos" unicode="&#x386;" horiz-adv-x="1472" 
d="M55 0v54h107l524 1402h66l525 -1402h107v-54h-309v54h143l-143 381h-712l-142 -381h143v-54h-309zM383 489h672l-305 820l-28 82h-6l-27 -82zM284 1305l130 273h68l-150 -273h-48z" />
    <glyph glyph-name="anoteleia" unicode="&#x387;" horiz-adv-x="472" 
d="M176 636v130h86v-130h-86z" />
    <glyph glyph-name="Epsilontonos" unicode="&#x388;" horiz-adv-x="1365" 
d="M166 0v54h163v1348h-163v54h1019v-293h-54v239h-748v-616h630v-54h-630v-678h778v239h54v-293h-1049zM-38 1305l130 273h68l-150 -273h-48z" />
    <glyph glyph-name="Etatonos" unicode="&#x389;" horiz-adv-x="1631" 
d="M196 0v54h163v1348h-163v54h380v-54h-163v-653h930v653h-163v54h163h54h163v-54h-163v-1348h163v-54h-380v54h163v641h-930v-641h163v-54h-380zM-38 1305l130 273h68l-150 -273h-48z" />
    <glyph glyph-name="Iotatonos" unicode="&#x38a;" horiz-adv-x="618" 
d="M167 0v54h163v1348h-163v54h380v-54h-163v-1348h163v-54h-380zM-38 1305l130 273h68l-150 -273h-48z" />
    <glyph glyph-name="Omicrontonos" unicode="&#x38c;" horiz-adv-x="1488" 
d="M740 -21c-90.667 0 -173.331 17.5 -247.998 52.5s-139 85 -193 150s-95.667 142.833 -125 233.5s-44 192 -44 304v18c0 112 14.5 213.333 43.5 304s70.5 168.5 124.5 233.5s118.167 115 192.5 150s156.833 52.5 247.5 52.5c90 0 172.333 -17.5 247 -52.5
s139.167 -85 193.5 -150s96.166 -142.833 125.499 -233.5s44 -192 44 -304v-18c0 -112 -14.667 -213.5 -44 -304.5s-70.833 -168.833 -124.5 -233.5s-117.834 -114.5 -192.501 -149.5s-157 -52.5 -247 -52.5zM740.003 33c112.667 0 210.501 28.333 293.501 85
s147.167 136.5 192.5 239.5s68 223.5 68 361.5v20c0 137.333 -22.833 257.333 -68.5 360s-110.167 182.334 -193.5 239.001s-181.333 85 -294 85c-112 0 -209.333 -28.333 -292 -85s-146.834 -136.334 -192.501 -239.001s-68.5 -222.667 -68.5 -360v-20
c0 -138 22.833 -258.5 68.5 -361.5s110 -182.833 193 -239.5s180.833 -85 293.5 -85zM72.0039 1305l130 273h68l-150 -273h-48z" />
    <glyph glyph-name="Upsilontonos" unicode="&#x38e;" horiz-adv-x="1493" 
d="M590 0v54h163v499l-515 849h-119v54h326v-54h-141l449 -755l26 -50l1 2l26 48l451 755h-141v54h326v-54h-120l-514 -849v-499h163v-54h-381zM-71 1305l130 273h68l-150 -273h-48z" />
    <glyph glyph-name="Omegatonos" unicode="&#x38f;" horiz-adv-x="1296" 
d="M114 0l0.00292969 53.9941h362c-74 40.667 -141.667 94.5 -203 161.5s-110.5 147 -147.5 240s-55.5 198.5 -55.5 316.5v37c0 126.667 24.5 240.334 73.5 341.001s116.833 180.334 203.5 239.001s186.667 88 300 88c112.667 0 212.667 -29.333 300 -88
s155.666 -138.5 204.999 -239.5s74 -214.5 74 -340.5v-37c0 -117.333 -18.5 -222.333 -55.5 -315s-86.167 -172.667 -147.5 -240s-128.333 -121.666 -201 -162.999h365v-54h-434v78c72 33.333 140 80.833 204 142.5s115.833 138.334 155.5 230.001
s59.5 198.834 59.5 321.501v39c0 116.667 -22 221.167 -66 313.5s-105.333 165.166 -184 218.499s-170.334 80 -275.001 80s-196.334 -26.667 -275.001 -80s-139.667 -126.166 -183 -218.499s-65 -196.833 -65 -313.5v-39c0 -123.333 20.167 -230.666 60.5 -321.999
s93 -167.833 158 -229.5s133.833 -109.167 206.5 -142.5v-78h-435zM-20.9971 1304.99l130 273h68l-150 -273h-48z" />
    <glyph glyph-name="iotadieresistonos" unicode="&#x390;" horiz-adv-x="594" 
d="M433 -21c-84 0 -145.5 23.1689 -184.5 69.502s-58.5 123.166 -58.5 230.499v749h-163v54h218v-803c0 -90 16 -153.5 48 -190.5s77.667 -55.5 137 -55.5c18 0 34 0.666992 48 2s33.667 3.66602 59 6.99902l9 -50c-16 -4.66699 -33.5 -8 -52.5 -10s-39.167 -3 -60.5 -3z
M194 1417l85 240h75l-118 -240h-42zM24 1320v136h73v-136h-73zM354 1320v136h72v-136h-72z" />
    <glyph glyph-name="Alpha" unicode="&#x391;" horiz-adv-x="1472" 
d="M55 0v54h107l524 1402h66l525 -1402h107v-54h-309v54h143l-143 381h-712l-142 -381h143v-54h-309zM383 489h672l-305 820l-28 82h-6l-27 -82z" />
    <glyph glyph-name="Beta" unicode="&#x392;" horiz-adv-x="1247" 
d="M71 0l-0.00195312 54h163v1348h-163v54h163h383c150.667 0 267.667 -31 351 -93s125 -155.333 125 -280c0 -86.667 -22.333 -159.667 -67 -219s-107.667 -96.333 -189 -111c60.667 -8 115.334 -28.833 164.001 -62.5s87.167 -75.667 115.5 -126
s42.5 -104.833 42.5 -163.5c0 -127.333 -41.167 -226 -123.5 -296s-191.166 -105 -326.499 -105h-638zM287.998 54h420.999c122.667 0 219.334 30.333 290.001 91s106 145.334 106 254.001c0 59.333 -15.167 113.166 -45.5 161.499s-74.333 86.833 -132 115.5
s-127.167 43 -208.5 43h-431v-665zM287.997 773h349c132.667 0 232.667 25.833 300 77.5s101 130.5 101 236.5c0 104 -35.5 182.5 -106.5 235.5s-175.833 79.5 -314.5 79.5h-329v-629z" />
    </font>
</defs>
</svg>
